<svg width="521" height="337" viewBox="0 0 521 337" fill="none" xmlns="http://www.w3.org/2000/svg">
<g clip-path="url(#clip0_1_804)">
<path d="M209.373 307.801C205.568 307.905 201.799 307.031 198.426 305.262L54.4192 221.913C51.5263 220.236 49.9312 217.917 49.9312 215.362C49.9312 212.306 52.2143 209.234 56.1862 206.914L330.768 48.0847C338.243 43.7746 349.533 43.3828 356.054 47.0503L500.03 130.352C502.907 132.029 504.502 134.349 504.502 136.903C504.502 140.038 502.219 143.047 498.247 145.351L223.65 304.228C219.271 306.616 214.358 307.846 209.373 307.801ZM198.692 304.667C204.947 308.319 216.05 307.801 223.353 303.632L497.919 144.803C501.703 142.624 503.877 139.74 503.877 136.966C503.785 135.683 503.35 134.449 502.618 133.393C501.887 132.337 500.884 131.497 499.717 130.963L355.741 47.5831C349.486 43.947 338.384 44.4486 331.081 48.6332L56.5146 207.51C52.7303 209.704 50.5567 212.588 50.5567 215.347C50.5567 217.666 52.1204 219.798 54.7163 221.365L198.692 304.667Z" fill="#42E8E0"/>
<path d="M504.19 98.4262L483.517 102L355.898 28.1487C349.502 24.4499 338.321 24.9201 330.877 29.1988L86.8048 170.459L50.2439 176.728V189.721C50.2439 192.088 51.6356 194.423 54.5443 195.99L198.52 279.292C204.916 283.007 216.097 282.536 223.54 278.258L498.107 119.381C502.079 117.077 504.143 114.146 504.205 111.341L504.19 98.4262Z" fill="url(#paint0_linear_1_804)"/>
<path d="M198.536 266.299L54.5599 182.997C48.1641 179.283 48.9617 172.826 56.3583 168.547L330.924 9.65448C338.321 5.39143 349.502 4.95259 355.945 8.62006L499.921 91.9218C506.316 95.6363 505.519 102.109 498.122 106.388L223.509 265.265C216.113 269.544 204.885 269.998 198.536 266.299Z" fill="#24126A"/>
<path d="M498.075 106.388L223.509 265.265C216.113 269.544 204.932 269.967 198.489 266.299L54.513 182.998C53.4296 182.477 52.4824 181.709 51.7467 180.757C51.0111 179.805 50.5072 178.694 50.2752 177.512C49.8842 180.192 51.2604 182.794 54.513 184.675L198.489 267.976C204.885 271.691 216.066 271.221 223.509 266.942L498.075 108.065C502.501 105.51 504.549 102.156 504.111 99.0845C503.736 101.655 501.703 104.366 498.075 106.388Z" fill="white"/>
<path opacity="0.51" d="M198.817 263.071L59.9863 182.731C53.7312 179.142 54.56 172.888 61.722 168.735L331.19 12.8362C338.337 8.69853 349.158 8.24401 355.366 11.8331L494.182 92.1884C500.437 95.7775 499.592 102.031 492.446 106.169L222.978 262.068C215.831 266.205 205.01 266.66 198.817 263.071Z" fill="#453C9E"/>
<path style="mix-blend-mode:lighten" opacity="0.8" d="M209.31 262.334C205.588 262.445 201.9 261.598 198.598 259.873L59.7516 179.596C58.5073 179.012 57.4428 178.102 56.6697 176.963C55.8966 175.824 55.4434 174.498 55.3574 173.123C55.3574 170.114 57.5936 167.089 61.4874 164.832L330.971 8.85517C338.227 4.65481 349.283 4.15327 355.585 7.85209L494.416 88.2074C495.663 88.79 496.731 89.6985 497.507 90.8375C498.283 91.9765 498.738 93.3039 498.826 94.6803C498.826 97.6895 496.59 100.714 492.68 102.971L223.212 258.87C218.945 261.185 214.162 262.377 209.31 262.334ZM199.036 259.09C205.104 262.6 215.737 262.146 222.759 258.087L492.227 102.203C495.855 100.103 497.919 97.3604 497.919 94.6803C497.831 93.4631 497.417 92.2922 496.72 91.2909C496.024 90.2897 495.071 89.4952 493.963 88.991L355.131 8.63574C349.08 5.125 338.43 5.50115 331.409 9.63881L61.9409 165.491C58.3286 167.591 56.2488 170.334 56.2488 173.014C56.3402 174.23 56.7554 175.4 57.4513 176.4C58.1472 177.401 59.0981 178.196 60.2051 178.703L199.036 259.09Z" fill="url(#paint1_linear_1_804)"/>
<g opacity="0.3">
<path style="mix-blend-mode:lighten" opacity="0.5" d="M198.817 259.529L59.9863 179.126C53.7312 175.537 54.56 169.284 61.722 165.146L331.19 9.24708C338.337 5.10942 349.158 4.6549 355.366 8.24401L494.182 88.5993C500.437 92.1884 499.592 98.4419 492.446 102.595L222.978 258.478C215.831 262.663 205.01 263.071 198.817 259.529Z" fill="url(#paint2_radial_1_804)"/>
<mask id="mask0_1_804" style="mask-type:luminance" maskUnits="userSpaceOnUse" x="55" y="5" width="444" height="257">
<path d="M198.817 259.529L59.9863 179.126C53.7312 175.537 54.56 169.284 61.722 165.146L331.19 9.24708C338.337 5.10942 349.158 4.6549 355.366 8.24401L494.182 88.5993C500.437 92.1884 499.592 98.4419 492.446 102.595L222.978 258.478C215.831 262.663 205.01 263.071 198.817 259.529Z" fill="white"/>
</mask>
<g mask="url(#mask0_1_804)">
<path d="M401.919 181.164L399.918 180.897C399.714 180.741 399.48 180.599 399.23 180.443L244.745 91.1069C240.758 88.803 233.799 89.0851 229.108 91.7495L138.988 143.893C137.93 144.482 136.995 145.269 136.235 146.213L135.188 145.9V149.034C135.253 149.862 135.537 150.659 136.009 151.341C136.482 152.024 137.126 152.569 137.877 152.921L292.362 242.257C296.35 244.561 303.308 244.279 308 241.614L398.135 189.455C400.7 187.887 401.998 186.054 401.935 184.251L401.919 181.164Z" fill="#9FFFF8"/>
<path d="M292.346 239.154L137.862 149.818C133.874 147.514 134.375 143.549 138.972 140.806L229.092 88.662C233.705 85.9976 240.679 85.7154 244.729 88.0194L399.214 177.355C403.202 179.675 402.701 183.624 398.104 186.367L307.968 238.527C303.308 241.113 296.334 241.395 292.346 239.154Z" fill="#42E8E0"/>
<path d="M190.483 157.654L171.405 146.683C169.622 145.664 169.841 143.862 171.905 142.687C172.954 142.098 174.125 141.765 175.326 141.713C176.526 141.662 177.722 141.893 178.817 142.389L197.895 153.36C199.678 154.394 199.459 156.181 197.394 157.372C196.346 157.962 195.173 158.294 193.972 158.343C192.771 158.392 191.575 158.156 190.483 157.654Z" fill="white"/>
<path d="M225.667 178.029L206.605 167.058C204.822 166.024 205.041 164.237 207.09 163.046C208.141 162.456 209.316 162.124 210.52 162.075C211.723 162.026 212.922 162.262 214.017 162.764L233.095 173.735C234.862 174.754 234.659 176.556 232.595 177.731C231.543 178.32 230.369 178.653 229.166 178.705C227.963 178.757 226.765 178.525 225.667 178.029Z" fill="white"/>
<path d="M260.868 198.404L241.79 187.433C240.023 186.414 240.226 184.612 242.29 183.421C243.345 182.843 244.519 182.517 245.721 182.468C246.922 182.419 248.119 182.649 249.218 183.139L268.28 194.11C270.063 195.144 269.844 196.931 267.795 198.122C266.744 198.711 265.569 199.044 264.365 199.093C263.161 199.142 261.963 198.906 260.868 198.404Z" fill="white"/>
<path d="M296.068 218.779L276.99 207.729C275.223 206.711 275.426 204.924 277.491 203.733C278.542 203.143 279.717 202.811 280.921 202.762C282.124 202.713 283.322 202.949 284.418 203.451L303.48 214.422C305.263 215.441 305.044 217.243 302.98 218.418C301.936 219.017 300.767 219.361 299.567 219.423C298.366 219.486 297.168 219.265 296.068 218.779Z" fill="white"/>
</g>
</g>
<path opacity="0.4" d="M464.548 101.937C463.36 102.548 462.044 102.866 460.709 102.866C459.374 102.866 458.058 102.548 456.87 101.937C454.743 100.714 454.743 98.8023 456.87 97.5015C458.06 96.8982 459.375 96.5839 460.709 96.5839C462.043 96.5839 463.358 96.8982 464.548 97.5015C466.659 98.7239 466.659 100.714 464.548 101.937Z" fill="#24126A"/>
<path opacity="0.4" d="M435.243 80.5434L450.271 89.2419C452.1 90.3076 451.835 92.157 449.755 93.3795C448.669 93.9906 447.454 94.3361 446.209 94.3879C444.965 94.4396 443.726 94.1962 442.593 93.6773L427.581 84.9945C425.735 83.9287 426.017 82.0793 428.081 80.8411C429.17 80.2371 430.384 79.8957 431.627 79.8441C432.87 79.7924 434.108 80.0318 435.243 80.5434Z" fill="#24126A"/>
<path opacity="0.4" d="M350.831 30.7033L365.843 39.4018C367.688 40.4676 367.407 42.317 365.327 43.5395C364.242 44.1469 363.031 44.4903 361.789 44.542C360.548 44.5937 359.312 44.3523 358.181 43.8373L343.153 35.1388C341.323 34.0887 341.589 32.2236 343.669 31.0011C344.756 30.3936 345.971 30.0502 347.215 29.9984C348.458 29.9467 349.697 30.1882 350.831 30.7033Z" fill="#24126A"/>
<path d="M464.548 96.5298C463.358 97.1331 462.043 97.4474 460.709 97.4474C459.375 97.4474 458.06 97.1331 456.87 96.5298C454.743 95.3073 454.743 93.3168 456.87 92.0944C458.058 91.4837 459.374 91.1653 460.709 91.1653C462.044 91.1653 463.36 91.4837 464.548 92.0944C466.659 93.3952 466.659 95.323 464.548 96.5298Z" fill="#42E8E0"/>
<path d="M435.243 75.1518L450.271 83.8503C452.1 84.9004 451.835 86.7655 449.755 87.988C448.667 88.5955 447.453 88.939 446.209 88.9907C444.965 89.0424 443.727 88.801 442.593 88.2858L427.581 79.5873C425.735 78.5372 426.017 76.6721 428.081 75.4496C429.168 74.8421 430.383 74.4986 431.627 74.4469C432.871 74.3952 434.109 74.6366 435.243 75.1518Z" fill="#42E8E0"/>
<path d="M350.831 25.2649L365.843 33.9477C367.688 35.0134 367.407 36.8785 365.327 38.101C364.241 38.7048 363.03 39.0462 361.789 39.0979C360.548 39.1496 359.313 38.9102 358.181 38.3988L343.153 29.7003C341.323 28.6345 341.589 26.7851 343.669 25.5626C344.756 24.9551 345.971 24.6117 347.215 24.56C348.458 24.5082 349.697 24.7497 350.831 25.2649Z" fill="#42E8E0"/>
<g opacity="0.3">
<path d="M80.4401 313.616V306.547L78.501 305.466C77.9537 308.789 74.06 310.967 70.8073 311.422L48.6331 324.415L38.9691 327.91L8.08468 311.939L8.80396 311.531C6.16119 310.293 4.73815 307.472 3.31512 304.886L1.23538 306.14L0.03125 306.547V313.741C0.113106 314.559 0.407391 315.341 0.884812 316.009C1.36223 316.678 2.00609 317.209 2.75219 317.55L33.6835 335.448C35.7188 336.484 37.9689 337.023 40.2513 337.023C42.5336 337.023 44.7839 336.484 46.8191 335.448L77.7191 317.519C78.4547 317.184 79.0917 316.665 79.5684 316.012C80.0451 315.358 80.3453 314.592 80.4401 313.788C80.4478 313.726 80.4478 313.663 80.4401 313.6V313.616Z" fill="url(#paint3_linear_1_804)"/>
<path opacity="0.3" d="M70.8075 311.469L48.6333 324.462L40.2202 327.502V337C42.507 337.047 44.7679 336.508 46.7881 335.433L77.7193 317.519C78.4549 317.184 79.0919 316.665 79.5685 316.012C80.0452 315.358 80.3454 314.592 80.4402 313.788C80.4479 313.726 80.4479 313.663 80.4402 313.6V306.547L78.6576 305.56H78.4855C77.8757 308.867 74.0288 311.014 70.8075 311.469Z" fill="white"/>
<path d="M33.6523 328.302L2.72095 310.403C-0.906984 308.303 -0.906984 304.886 2.72095 302.802L33.6523 284.887C35.6886 283.856 37.9384 283.318 40.2201 283.318C42.5018 283.318 44.7516 283.856 46.788 284.887L77.7192 302.786C81.3472 304.87 81.3472 308.287 77.7192 310.387L46.788 328.302C44.7505 329.33 42.5012 329.865 40.2201 329.865C37.9391 329.865 35.6897 329.33 33.6523 328.302Z" fill="url(#paint4_linear_1_804)"/>
<g opacity="0.3">
<path d="M33.6523 328.302L2.72095 310.403C-0.906984 308.303 -0.906984 304.886 2.72095 302.802L33.6523 284.887C35.6886 283.856 37.9384 283.318 40.2201 283.318C42.5018 283.318 44.7516 283.856 46.788 284.887L77.7192 302.786C81.3472 304.87 81.3472 308.287 77.7192 310.387L46.788 328.302C44.7505 329.33 42.5012 329.865 40.2201 329.865C37.9391 329.865 35.6897 329.33 33.6523 328.302Z" fill="white"/>
</g>
</g>
<path d="M40.22 302.253C38.1893 302.29 36.1824 301.81 34.3871 300.858L3.45584 283.038C2.73072 282.778 2.10353 282.299 1.66014 281.668C1.21674 281.037 0.97876 280.284 0.97876 279.512C0.97876 278.74 1.21674 277.986 1.66014 277.355C2.10353 276.724 2.73072 276.245 3.45584 275.985L34.434 257.961C36.2436 257.049 38.2412 256.574 40.2669 256.574C42.2925 256.574 44.2902 257.049 46.0998 257.961L77.031 275.875C77.7561 276.136 78.3833 276.614 78.8267 277.245C79.2701 277.877 79.5081 278.63 79.5081 279.402C79.5081 280.174 79.2701 280.927 78.8267 281.558C78.3833 282.189 77.7561 282.668 77.031 282.928L46.0998 300.827C44.2934 301.797 42.2692 302.288 40.22 302.253ZM40.22 257.146C38.2811 257.105 36.3642 257.564 34.653 258.478L3.72165 276.377C3.03067 276.535 2.41372 276.923 1.97177 277.478C1.52981 278.034 1.28905 278.723 1.28905 279.433C1.28905 280.143 1.52981 280.833 1.97177 281.388C2.41372 281.943 3.03067 282.332 3.72165 282.489L34.653 300.388C36.3793 301.261 38.2862 301.716 40.22 301.716C42.1538 301.716 44.0606 301.261 45.787 300.388L76.6557 282.489C77.3 282.28 77.8614 281.871 78.2597 281.322C78.6579 280.773 78.8724 280.112 78.8724 279.433C78.8724 278.754 78.6579 278.093 78.2597 277.544C77.8614 276.995 77.3 276.586 76.6557 276.377L45.7088 258.478C44.0219 257.574 42.1328 257.116 40.22 257.146Z" fill="#42E8E0"/>
<path opacity="0.4" d="M80.4401 272.553V261.942L78.5011 260.861C77.9538 264.183 74.06 266.362 70.8074 266.817L48.6332 279.809L38.9691 283.304L8.08474 267.365L8.80401 266.958C6.16125 265.719 4.7382 262.898 3.31518 260.312L1.23544 261.566L0 261.911V272.71C0.0844665 273.525 0.380012 274.303 0.857284 274.969C1.33456 275.634 1.97697 276.163 2.72094 276.502L33.6523 294.401C35.6875 295.436 37.9377 295.976 40.2201 295.976C42.5025 295.976 44.7527 295.436 46.788 294.401L77.7192 276.502C78.4548 276.168 79.0918 275.649 79.5684 274.995C80.0451 274.342 80.3453 273.576 80.4401 272.772C80.4478 272.71 80.4478 272.647 80.4401 272.584V272.553Z" fill="#42E8E0"/>
<path d="M80.4401 263.118V256.096L78.5011 255.015C77.9538 258.337 74.06 260.516 70.8074 260.97L48.6332 273.963L38.9691 277.458L8.08474 261.488L8.80401 261.08C6.16125 259.842 4.7382 257.021 3.31518 254.435L1.23544 255.689L0 256.033V263.243C0.0844665 264.058 0.380012 264.837 0.857284 265.502C1.33456 266.167 1.97697 266.696 2.72094 267.036L33.6523 284.934C35.6875 285.97 37.9377 286.509 40.2201 286.509C42.5025 286.509 44.7527 285.97 46.788 284.934L77.7192 267.036C78.4548 266.701 79.0918 266.182 79.5684 265.529C80.0451 264.875 80.3453 264.11 80.4401 263.306C80.4478 263.243 80.4478 263.18 80.4401 263.118Z" fill="url(#paint5_linear_1_804)"/>
<path opacity="0.3" d="M70.8075 260.97L48.6333 273.963L40.2202 277.004V286.502C42.507 286.549 44.7679 286.009 46.7881 284.934L77.7193 267.036C78.4549 266.701 79.0919 266.182 79.5685 265.529C80.0452 264.875 80.3454 264.11 80.4402 263.306C80.4479 263.243 80.4479 263.18 80.4402 263.118V256.096L78.6576 255.109H78.4855C77.8757 258.369 74.0288 260.516 70.8075 260.97Z" fill="white"/>
<path d="M33.6523 277.803L2.72095 259.905C-0.906984 257.805 -0.906984 254.388 2.72095 252.303L33.6523 234.452C35.6875 233.417 37.9378 232.877 40.2201 232.877C42.5025 232.877 44.7527 233.417 46.788 234.452L77.7192 252.35C81.3472 254.435 81.3472 257.852 77.7192 259.952L46.788 277.803C44.7505 278.831 42.5012 279.367 40.2201 279.367C37.9391 279.367 35.6897 278.831 33.6523 277.803Z" fill="url(#paint6_linear_1_804)"/>
<path d="M40.22 274.543C38.3852 274.585 36.5706 274.153 34.9501 273.289L10.7899 259.309C10.1619 259.023 9.62096 258.575 9.22255 258.01C8.82414 257.446 8.58251 256.785 8.52246 256.096C8.59106 255.42 8.83693 254.773 9.23515 254.223C9.63336 253.672 10.1698 253.237 10.7899 252.962L34.9501 238.966C36.5844 238.139 38.3894 237.708 40.22 237.708C42.0506 237.708 43.8556 238.139 45.4899 238.966L69.6501 252.962C70.2703 253.237 70.8066 253.672 71.2048 254.223C71.603 254.773 71.8489 255.42 71.9175 256.096C71.8575 256.785 71.6159 257.446 71.2175 258.01C70.8191 258.575 70.2782 259.023 69.6501 259.309L45.4899 273.289C43.8695 274.153 42.0548 274.585 40.22 274.543ZM40.22 238.182C38.4768 238.151 36.7545 238.567 35.216 239.389L11.0558 253.369C10.5128 253.606 10.0425 253.983 9.69347 254.462C9.3444 254.942 9.12915 255.506 9.06984 256.096C9.13121 256.688 9.34701 257.253 9.69567 257.735C10.0443 258.216 10.5134 258.597 11.0558 258.839L35.2316 272.819C36.7756 273.611 38.4854 274.025 40.22 274.025C41.9546 274.025 43.6644 273.611 45.2085 272.819L69.3842 258.839C69.9265 258.597 70.3956 258.216 70.7443 257.735C71.093 257.253 71.3089 256.688 71.3702 256.096C71.3109 255.506 71.0957 254.942 70.7466 254.462C70.3975 253.983 69.9272 253.606 69.3842 253.369L45.2085 239.389C43.6763 238.565 41.9585 238.149 40.22 238.182Z" fill="#5351AF"/>
<path d="M77.7192 259.905L46.788 277.803C44.7506 278.831 42.5012 279.367 40.2201 279.367C37.9391 279.367 35.6897 278.831 33.6523 277.803L2.72097 259.905C2.04601 259.586 1.45282 259.116 0.986646 258.532C0.520472 257.948 0.193704 257.265 0.0313398 256.535C-0.00441647 257.433 0.23388 258.321 0.714438 259.08C1.195 259.839 1.89492 260.433 2.72097 260.782L33.6523 278.681C35.6897 279.709 37.9391 280.244 40.2201 280.244C42.5012 280.244 44.7506 279.709 46.788 278.681L77.7192 260.782C78.5453 260.433 79.2453 259.839 79.7259 259.08C80.2064 258.321 80.4447 257.433 80.409 256.535C80.2466 257.265 79.9198 257.948 79.4537 258.532C78.9875 259.116 78.3942 259.586 77.7192 259.905Z" fill="white"/>
<g opacity="0.3">
<path d="M119.425 104.131V97.1097L117.486 96.0283C116.938 99.3353 113.045 101.514 109.792 101.968L87.6021 114.961L77.9537 118.472L47.0694 102.501L47.7886 102.078C45.1459 100.856 43.7229 98.0187 42.2999 95.4484L40.2201 96.6865L38.9846 97.0313V104.241C39.0597 105.059 39.3517 105.842 39.8301 106.509C40.3085 107.175 40.956 107.702 41.7057 108.034L72.6369 125.932C74.6721 126.968 76.9224 127.507 79.2047 127.507C81.4871 127.507 83.7373 126.968 85.7726 125.932L116.704 108.034C117.439 107.699 118.076 107.18 118.553 106.527C119.03 105.873 119.33 105.108 119.425 104.304C119.425 104.304 119.425 104.178 119.425 104.131Z" fill="url(#paint7_linear_1_804)"/>
<path opacity="0.3" d="M109.792 101.968L87.602 114.961L79.189 118.017V127.515C81.4757 127.562 83.7366 127.023 85.7568 125.948L116.688 108.049C117.424 107.715 118.061 107.196 118.537 106.542C119.014 105.889 119.314 105.123 119.409 104.319C119.409 104.319 119.409 104.194 119.409 104.147V97.1253L117.626 96.1379H117.439C116.86 99.3822 113.013 101.529 109.792 101.968Z" fill="white"/>
<path d="M72.6368 118.801L41.7056 100.903C38.0776 98.8024 38.0776 95.4013 41.7056 93.3012L72.6368 75.4026C74.6721 74.3673 76.9223 73.8278 79.2047 73.8278C81.487 73.8278 83.7373 74.3673 85.7725 75.4026L116.704 93.3012C120.316 95.4013 120.316 98.8024 116.704 100.903L85.7725 118.801C83.7373 119.836 81.487 120.376 79.2047 120.376C76.9223 120.376 74.6721 119.836 72.6368 118.801Z" fill="url(#paint8_linear_1_804)"/>
<g opacity="0.3">
<path d="M72.6368 118.801L41.7056 100.903C38.0776 98.8024 38.0776 95.4013 41.7056 93.3012L72.6368 75.4026C74.6721 74.3673 76.9223 73.8278 79.2047 73.8278C81.487 73.8278 83.7373 74.3673 85.7725 75.4026L116.704 93.3012C120.316 95.4013 120.316 98.8024 116.704 100.903L85.7725 118.801C83.7373 119.836 81.487 120.376 79.2047 120.376C76.9223 120.376 74.6721 119.836 72.6368 118.801Z" fill="white"/>
</g>
</g>
<path d="M79.2049 96.2319C77.1734 96.2764 75.1646 95.7961 73.372 94.837L42.4407 76.9385C41.7156 76.6782 41.0884 76.1997 40.645 75.5684C40.2016 74.9372 39.9636 74.1841 39.9636 73.4121C39.9636 72.6401 40.2016 71.887 40.645 71.2558C41.0884 70.6245 41.7156 70.146 42.4407 69.8857L73.372 51.9872C75.1795 51.0675 77.1779 50.5883 79.2049 50.5883C81.2319 50.5883 83.2302 51.0675 85.0377 51.9872L115.969 69.8857C116.694 70.146 117.321 70.6245 117.765 71.2558C118.208 71.887 118.446 72.6401 118.446 73.4121C118.446 74.1841 118.208 74.9372 117.765 75.5684C117.321 76.1997 116.694 76.6782 115.969 76.9385L85.0377 94.837C83.2451 95.7961 81.2364 96.2764 79.2049 96.2319ZM79.2049 51.1252C77.266 51.084 75.3491 51.5428 73.6379 52.4574L42.7065 70.3559C42.0155 70.5137 41.3986 70.9021 40.9566 71.4573C40.5147 72.0126 40.274 72.7018 40.274 73.4121C40.274 74.1224 40.5147 74.8116 40.9566 75.3669C41.3986 75.9221 42.0155 76.3105 42.7065 76.4683L73.6379 94.3669C75.3604 95.2438 77.2651 95.7008 79.197 95.7008C81.129 95.7008 83.0337 95.2438 84.7562 94.3669L115.75 76.4683C116.441 76.3105 117.058 75.9221 117.5 75.3669C117.942 74.8116 118.183 74.1224 118.183 73.4121C118.183 72.7018 117.942 72.0126 117.5 71.4573C117.058 70.9021 116.441 70.5137 115.75 70.3559L84.7562 52.4574C83.0543 51.5284 81.1427 51.0534 79.2049 51.0781V51.1252Z" fill="#42E8E0"/>
<path opacity="0.4" d="M119.425 66.5474V55.9212L117.486 54.8397C116.938 58.1624 113.045 60.3409 109.792 60.7955L87.6021 73.7883L77.9381 77.2991L47.0694 61.3283L47.7886 60.9052C45.1459 59.667 43.7229 56.8459 42.2999 54.2755L40.2201 55.5137L38.9846 55.8585V66.6572C39.0581 67.4755 39.3494 68.2591 39.828 68.9263C40.3066 69.5934 40.955 70.1196 41.7057 70.45L72.6369 88.3485C74.6721 89.3838 76.9224 89.9234 79.2047 89.9234C81.4871 89.9234 83.7373 89.3838 85.7726 88.3485L116.704 70.45C117.435 70.1183 118.069 69.6041 118.546 68.9565C119.022 68.3089 119.325 67.5495 119.425 66.7512C119.425 66.7512 119.425 66.6415 119.425 66.5788V66.5474Z" fill="#42E8E0"/>
<path d="M119.425 57.1123V50.0908L117.486 49.0093C116.938 52.3163 113.045 54.4949 109.792 54.9494L87.6021 67.9423L77.9537 71.453L47.0694 55.4823L47.7886 55.0591C45.1459 53.8366 43.7229 50.9998 42.2999 48.4294L40.2201 49.6676L38.9846 50.0124V57.222C39.0597 58.0399 39.3517 58.8228 39.8301 59.4896C40.3085 60.1565 40.956 60.683 41.7057 61.0148L72.6369 78.9134C74.6721 79.9487 76.9224 80.4882 79.2047 80.4882C81.4871 80.4882 83.7373 79.9487 85.7726 78.9134L116.704 61.0148C117.431 60.6859 118.063 60.1765 118.539 59.5347C119.015 58.893 119.32 58.1401 119.425 57.3474C119.425 57.3474 119.425 57.222 119.425 57.175V57.1123Z" fill="url(#paint9_linear_1_804)"/>
<path opacity="0.3" d="M109.792 54.9494L87.6023 67.9423L79.1892 70.9985V80.4963C81.476 80.5435 83.7369 80.004 85.757 78.929L116.688 61.0305C117.421 60.7023 118.057 60.1914 118.536 59.5466C119.015 58.9017 119.321 58.1446 119.425 57.3474C119.425 57.3474 119.425 57.222 119.425 57.175V50.0908L117.642 49.1034H117.455C116.86 52.3634 113.013 54.5106 109.792 54.9494Z" fill="white"/>
<path d="M72.6371 71.7821L41.7058 53.8836C38.0779 51.7834 38.0779 48.3824 41.7058 46.2822L72.6371 28.3837C74.6723 27.3484 76.9225 26.8088 79.2049 26.8088C81.4873 26.8088 83.7375 27.3484 85.7727 28.3837L116.704 46.2822C120.316 48.3824 120.316 51.7834 116.704 53.8836L85.7727 71.7821C83.7375 72.8174 81.4873 73.357 79.2049 73.357C76.9225 73.357 74.6723 72.8174 72.6371 71.7821Z" fill="url(#paint10_linear_1_804)"/>
<path d="M79.2048 68.5378C77.3687 68.5737 75.5541 68.1366 73.9349 67.2683L49.7747 53.288C49.114 53.053 48.5423 52.6187 48.1379 52.0448C47.7335 51.4708 47.5164 50.7855 47.5164 50.0829C47.5164 49.3803 47.7335 48.6949 48.1379 48.121C48.5423 47.5471 49.114 47.1128 49.7747 46.8778L73.9349 32.8975C75.5692 32.0709 77.3742 31.6403 79.2048 31.6403C81.0354 31.6403 82.8404 32.0709 84.4746 32.8975L108.635 46.8778C109.295 47.1128 109.867 47.5471 110.272 48.121C110.676 48.6949 110.893 49.3803 110.893 50.0829C110.893 50.7855 110.676 51.4708 110.272 52.0448C109.867 52.6187 109.295 53.053 108.635 53.288L84.4746 67.2683C82.8554 68.1366 81.0409 68.5737 79.2048 68.5378ZM79.2048 32.1765C77.4627 32.1392 75.74 32.5492 74.2007 33.3677L50.0718 47.348C49.4917 47.5316 48.9851 47.8958 48.6255 48.3876C48.2659 48.8793 48.0721 49.4732 48.0721 50.0829C48.0721 50.6926 48.2659 51.2864 48.6255 51.7782C48.9851 52.27 49.4917 52.6342 50.0718 52.8178L74.2007 66.7511C75.7486 67.5398 77.4605 67.9509 79.1969 67.9509C80.9334 67.9509 82.6453 67.5398 84.1932 66.7511L108.369 52.7708C108.949 52.5871 109.456 52.223 109.815 51.7312C110.175 51.2394 110.369 50.6456 110.369 50.0359C110.369 49.4262 110.175 48.8323 109.815 48.3405C109.456 47.8487 108.949 47.4846 108.369 47.3009L84.1932 33.3677C82.659 32.5505 80.9417 32.1404 79.2048 32.1765Z" fill="#5351AF"/>
<path d="M116.704 53.8836L85.7726 71.7821C83.7374 72.8174 81.4871 73.357 79.2048 73.357C76.9224 73.357 74.6722 72.8174 72.6369 71.7821L41.7057 53.8836C41.0294 53.5666 40.4349 53.0977 39.9685 52.5133C39.5021 51.929 39.1761 51.2448 39.016 50.5139C38.9802 51.412 39.2185 52.2997 39.6991 53.0585C40.1796 53.8174 40.8796 54.4114 41.7057 54.7613L72.6369 72.6598C74.6722 73.6951 76.9224 74.2347 79.2048 74.2347C81.4871 74.2347 83.7374 73.6951 85.7726 72.6598L116.704 54.7613C117.53 54.4126 118.229 53.8184 118.707 53.0589C119.185 52.2994 119.419 51.4111 119.378 50.5139C119.218 51.2429 118.894 51.9255 118.431 52.5096C117.967 53.0937 117.377 53.5637 116.704 53.8836Z" fill="white"/>
<path opacity="0.4" d="M287.014 196.837L167.026 127.39C163.898 125.603 164.305 122.468 167.886 120.4L237.896 79.885C241.477 77.8162 246.888 77.5811 249.984 79.3835L369.987 148.815C373.115 150.617 372.708 153.752 369.127 155.821L299.117 196.335C295.583 198.404 290.126 198.608 287.014 196.837Z" fill="#24126A"/>
<path d="M401.919 94.8057L399.917 94.5393C399.699 94.3717 399.469 94.2198 399.23 94.0848L244.745 4.74888C240.757 2.42928 233.799 2.72707 229.107 5.39147L138.972 57.4884C137.914 58.0765 136.979 58.8642 136.22 59.808L135.172 59.4945V62.6291C135.238 63.4574 135.521 64.2535 135.994 64.9363C136.466 65.619 137.111 66.1641 137.862 66.516L292.346 155.852C296.334 158.156 303.292 157.874 307.984 155.194L398.119 103.05C400.684 101.482 401.982 99.6487 401.919 97.8463V94.8057Z" fill="#9FFFF8"/>
<path d="M292.346 152.764L137.862 63.4285C133.874 61.1245 134.375 57.1593 138.972 54.4165L229.092 2.27258C233.705 -0.391826 240.679 -0.689611 244.729 1.62999L399.214 90.9659C403.202 93.2855 402.701 97.235 398.104 99.9778L307.968 152.122C303.308 154.786 296.334 155.068 292.346 152.764Z" fill="#42E8E0"/>
<path d="M317.257 146.699L148.323 48.9467L166.26 38.5712L335.193 136.323L317.257 146.699Z" fill="#24126A"/>
<g opacity="0.1">
<path d="M396.634 287.191C396.634 269.716 408.878 248.463 423.984 239.734C431.553 235.345 438.402 234.953 443.343 237.822L448.52 240.862L446.956 241.003C449.677 244.341 451.272 249.278 451.272 255.548C451.272 273.023 439.028 294.276 423.922 303.021C418.73 306.015 413.882 307.159 409.738 306.642L409.863 308.036L404.609 304.902L404.406 304.776C399.605 301.846 396.634 295.796 396.634 287.191Z" fill="#9FFFF8"/>
<path d="M448.518 285.608C459.197 267.07 459.196 247.031 448.515 240.851C437.835 234.671 420.52 244.689 409.841 263.227C399.162 281.765 399.163 301.804 409.843 307.984C420.524 314.165 437.839 304.146 448.518 285.608Z" fill="#42E8E0"/>
</g>
<path opacity="0.2" d="M427.44 327.173C403.499 327.173 379.573 321.907 361.339 311.359C343.638 301.109 333.88 287.473 333.88 272.96C333.88 258.447 343.638 244.749 361.339 234.546C397.791 213.45 457.104 213.466 493.54 234.546C511.258 244.796 521 258.431 521 272.96C521 287.489 511.258 301.172 493.54 311.359C475.322 321.907 451.381 327.173 427.44 327.173ZM427.44 219.265C403.608 219.265 379.761 224.515 361.621 235.016C344.075 245.172 334.427 258.635 334.427 272.96C334.427 287.285 344.075 300.748 361.621 310.889C397.916 331.891 457.011 331.891 493.274 310.889C510.804 300.748 520.468 287.27 520.468 272.96C520.468 258.651 510.804 245.156 493.274 235.016C475.119 224.515 451.287 219.265 427.44 219.265Z" fill="#42E8E0"/>
<path d="M427.44 306.688C412.568 306.688 397.728 303.413 386.391 296.861C375.445 290.498 369.315 282.004 369.315 272.96C369.315 263.917 375.382 255.422 386.391 249.043C409.034 235.941 445.814 235.941 468.489 249.043C479.435 255.422 485.581 263.901 485.581 272.96C485.581 282.019 479.513 290.483 468.489 296.861C457.183 303.413 442.311 306.688 427.44 306.688ZM427.44 239.749C412.678 239.749 397.916 243.009 386.672 249.513C375.82 255.783 369.846 264.121 369.846 273.023C369.846 281.925 375.82 290.263 386.657 296.532C409.144 309.541 445.736 309.541 468.223 296.532C479.06 290.263 485.033 281.941 485.033 273.023C485.033 264.105 479.06 255.783 468.223 249.513C456.979 243.009 442.217 239.749 427.44 239.749Z" fill="#42E8E0"/>
<mask id="mask1_1_804" style="mask-type:luminance" maskUnits="userSpaceOnUse" x="384" y="174" width="87" height="117">
<path d="M384.624 280.264L401.81 290.2L470.256 250.595V174.424L384.624 223.982V280.264Z" fill="white"/>
</mask>
<g mask="url(#mask1_1_804)">
<path d="M396.634 287.191C396.634 269.716 408.878 248.463 423.984 239.734C431.553 235.345 438.402 234.953 443.343 237.821L448.52 240.862L446.956 241.003C449.677 244.341 451.272 249.278 451.272 255.548C451.272 273.023 439.028 294.275 423.922 303.021C418.73 306.014 413.882 307.159 409.738 306.641L409.863 308.036L404.609 304.902L404.406 304.776C399.605 301.845 396.634 295.796 396.634 287.191Z" fill="#9FFFF8"/>
<path d="M448.518 285.608C459.197 267.07 459.196 247.031 448.515 240.851C437.835 234.671 420.52 244.689 409.841 263.227C399.162 281.765 399.163 301.804 409.843 307.984C420.524 314.164 437.839 304.146 448.518 285.608Z" fill="#42E8E0"/>
</g>
</g>
<defs>
<linearGradient id="paint0_linear_1_804" x1="50.2439" y1="153.767" x2="504.19" y2="153.767" gradientUnits="userSpaceOnUse">
<stop stop-color="#BCBEFF"/>
<stop offset="0.15" stop-color="#A3A7F5"/>
<stop offset="0.39" stop-color="#8289E8"/>
<stop offset="0.61" stop-color="#6A73DF"/>
<stop offset="0.82" stop-color="#5C66D9"/>
<stop offset="1" stop-color="#5761D7"/>
</linearGradient>
<linearGradient id="paint1_linear_1_804" x1="340.448" y1="218.136" x2="213.371" y2="49.8646" gradientUnits="userSpaceOnUse">
<stop stop-color="#42E8E0"/>
<stop offset="0.11" stop-color="#37B6BF"/>
<stop offset="0.22" stop-color="#2C87A1"/>
<stop offset="0.34" stop-color="#235F87"/>
<stop offset="0.46" stop-color="#1C3F72"/>
<stop offset="0.58" stop-color="#162561"/>
<stop offset="0.71" stop-color="#121355"/>
<stop offset="0.85" stop-color="#10084E"/>
<stop offset="1" stop-color="#0F054C"/>
</linearGradient>
<radialGradient id="paint2_radial_1_804" cx="0" cy="0" r="1" gradientUnits="userSpaceOnUse" gradientTransform="translate(254.487 129.945) scale(355.303 356.105)">
<stop stop-color="#42E8E0"/>
<stop offset="0.11" stop-color="#37B6BF"/>
<stop offset="0.22" stop-color="#2C87A1"/>
<stop offset="0.34" stop-color="#235F87"/>
<stop offset="0.46" stop-color="#1C3F72"/>
<stop offset="0.58" stop-color="#162561"/>
<stop offset="0.71" stop-color="#121355"/>
<stop offset="0.85" stop-color="#10084E"/>
<stop offset="1" stop-color="#0F054C"/>
</radialGradient>
<linearGradient id="paint3_linear_1_804" x1="8.00646" y1="292.63" x2="71.8956" y2="329.446" gradientUnits="userSpaceOnUse">
<stop stop-color="#BCBEFF"/>
<stop offset="0.23" stop-color="#AAADF8"/>
<stop offset="0.68" stop-color="#7C83E5"/>
<stop offset="1" stop-color="#5761D7"/>
</linearGradient>
<linearGradient id="paint4_linear_1_804" x1="0" y1="306.594" x2="80.4402" y2="306.594" gradientUnits="userSpaceOnUse">
<stop stop-color="#E9E9FD"/>
<stop offset="0.36" stop-color="#D3D2F9"/>
<stop offset="0.71" stop-color="#C5C4F7"/>
<stop offset="1" stop-color="#C0BFF6"/>
</linearGradient>
<linearGradient id="paint5_linear_1_804" x1="8.00648" y1="242.147" x2="71.8956" y2="278.948" gradientUnits="userSpaceOnUse">
<stop stop-color="#BCBEFF"/>
<stop offset="0.23" stop-color="#AAADF8"/>
<stop offset="0.68" stop-color="#7C83E5"/>
<stop offset="1" stop-color="#5761D7"/>
</linearGradient>
<linearGradient id="paint6_linear_1_804" x1="0" y1="256.096" x2="80.4402" y2="256.096" gradientUnits="userSpaceOnUse">
<stop stop-color="#E9E9FD"/>
<stop offset="0.36" stop-color="#D3D2F9"/>
<stop offset="0.71" stop-color="#C5C4F7"/>
<stop offset="1" stop-color="#C0BFF6"/>
</linearGradient>
<linearGradient id="paint7_linear_1_804" x1="46.9911" y1="83.1451" x2="110.88" y2="119.946" gradientUnits="userSpaceOnUse">
<stop stop-color="#BCBEFF"/>
<stop offset="0.23" stop-color="#AAADF8"/>
<stop offset="0.68" stop-color="#7C83E5"/>
<stop offset="1" stop-color="#5761D7"/>
</linearGradient>
<linearGradient id="paint8_linear_1_804" x1="38.9846" y1="97.1097" x2="119.425" y2="97.1097" gradientUnits="userSpaceOnUse">
<stop stop-color="#E9E9FD"/>
<stop offset="0.36" stop-color="#D3D2F9"/>
<stop offset="0.71" stop-color="#C5C4F7"/>
<stop offset="1" stop-color="#C0BFF6"/>
</linearGradient>
<linearGradient id="paint9_linear_1_804" x1="46.9911" y1="36.1262" x2="110.88" y2="72.9269" gradientUnits="userSpaceOnUse">
<stop stop-color="#BCBEFF"/>
<stop offset="0.23" stop-color="#AAADF8"/>
<stop offset="0.68" stop-color="#7C83E5"/>
<stop offset="1" stop-color="#5761D7"/>
</linearGradient>
<linearGradient id="paint10_linear_1_804" x1="38.9849" y1="50.0908" x2="119.425" y2="50.0908" gradientUnits="userSpaceOnUse">
<stop stop-color="#E9E9FD"/>
<stop offset="0.36" stop-color="#D3D2F9"/>
<stop offset="0.71" stop-color="#C5C4F7"/>
<stop offset="1" stop-color="#C0BFF6"/>
</linearGradient>
<clipPath id="clip0_1_804">
<rect width="521" height="337" fill="white"/>
</clipPath>
</defs>
</svg>
