<svg width="1161" height="511" viewBox="0 0 1161 511" fill="none" xmlns="http://www.w3.org/2000/svg">
<rect x="936.5" y="63.5" width="186" height="50" rx="25" stroke="#3BC8D0"/>
<rect x="11.5" y="356.5" width="186" height="50" rx="25" stroke="#3BC8D0"/>
<rect x="40.5" y="171.5" width="186" height="50" rx="25" stroke="#3BC8D0"/>
<path d="M73.456 375.364V377.83H70.108V388H67.03V377.83H63.682V375.364H73.456ZM74.3888 382.96C74.3888 381.928 74.5808 381.022 74.9648 380.242C75.3608 379.462 75.8948 378.862 76.5668 378.442C77.2388 378.022 77.9888 377.812 78.8168 377.812C79.5248 377.812 80.1428 377.956 80.6708 378.244C81.2108 378.532 81.6248 378.91 81.9128 379.378V377.956H84.9908V388H81.9128V386.578C81.6128 387.046 81.1928 387.424 80.6528 387.712C80.1248 388 79.5068 388.144 78.7988 388.144C77.9828 388.144 77.2388 387.934 76.5668 387.514C75.8948 387.082 75.3608 386.476 74.9648 385.696C74.5808 384.904 74.3888 383.992 74.3888 382.96ZM81.9128 382.978C81.9128 382.21 81.6968 381.604 81.2648 381.16C80.8448 380.716 80.3288 380.494 79.7168 380.494C79.1048 380.494 78.5828 380.716 78.1508 381.16C77.7308 381.592 77.5208 382.192 77.5208 382.96C77.5208 383.728 77.7308 384.34 78.1508 384.796C78.5828 385.24 79.1048 385.462 79.7168 385.462C80.3288 385.462 80.8448 385.24 81.2648 384.796C81.6968 384.352 81.9128 383.746 81.9128 382.978ZM90.2956 379.63C90.6556 379.078 91.1056 378.646 91.6456 378.334C92.1856 378.01 92.7856 377.848 93.4456 377.848V381.106H92.5996C91.8316 381.106 91.2556 381.274 90.8716 381.61C90.4876 381.934 90.2956 382.51 90.2956 383.338V388H87.2176V377.956H90.2956V379.63ZM96.4468 376.912C95.9068 376.912 95.4628 376.756 95.1148 376.444C94.7788 376.12 94.6108 375.724 94.6108 375.256C94.6108 374.776 94.7788 374.38 95.1148 374.068C95.4628 373.744 95.9068 373.582 96.4468 373.582C96.9748 373.582 97.4068 373.744 97.7428 374.068C98.0908 374.38 98.2648 374.776 98.2648 375.256C98.2648 375.724 98.0908 376.12 97.7428 376.444C97.4068 376.756 96.9748 376.912 96.4468 376.912ZM97.9948 389.296C97.9948 390.532 97.6828 391.42 97.0588 391.96C96.4348 392.512 95.5648 392.788 94.4488 392.788H93.2428V390.178H93.9808C94.3168 390.178 94.5568 390.112 94.7008 389.98C94.8448 389.848 94.9168 389.632 94.9168 389.332V377.956H97.9948V389.296ZM109.676 382.816C109.676 383.104 109.658 383.404 109.622 383.716H102.656C102.704 384.34 102.902 384.82 103.25 385.156C103.61 385.48 104.048 385.642 104.564 385.642C105.332 385.642 105.866 385.318 106.166 384.67H109.442C109.274 385.33 108.968 385.924 108.524 386.452C108.092 386.98 107.546 387.394 106.886 387.694C106.226 387.994 105.488 388.144 104.672 388.144C103.688 388.144 102.812 387.934 102.044 387.514C101.276 387.094 100.676 386.494 100.244 385.714C99.8118 384.934 99.5958 384.022 99.5958 382.978C99.5958 381.934 99.8058 381.022 100.226 380.242C100.658 379.462 101.258 378.862 102.026 378.442C102.794 378.022 103.676 377.812 104.672 377.812C105.644 377.812 106.508 378.016 107.264 378.424C108.02 378.832 108.608 379.414 109.028 380.17C109.46 380.926 109.676 381.808 109.676 382.816ZM106.526 382.006C106.526 381.478 106.346 381.058 105.986 380.746C105.626 380.434 105.176 380.278 104.636 380.278C104.12 380.278 103.682 380.428 103.322 380.728C102.974 381.028 102.758 381.454 102.674 382.006H106.526ZM116.898 385.39V388H115.332C114.216 388 113.346 387.73 112.722 387.19C112.098 386.638 111.786 385.744 111.786 384.508V380.512H110.562V377.956H111.786V375.508H114.864V377.956H116.88V380.512H114.864V384.544C114.864 384.844 114.936 385.06 115.08 385.192C115.224 385.324 115.464 385.39 115.8 385.39H116.898ZM118 382.96C118 381.928 118.192 381.022 118.576 380.242C118.972 379.462 119.506 378.862 120.178 378.442C120.85 378.022 121.6 377.812 122.428 377.812C123.136 377.812 123.754 377.956 124.282 378.244C124.822 378.532 125.236 378.91 125.524 379.378V377.956H128.602V388H125.524V386.578C125.224 387.046 124.804 387.424 124.264 387.712C123.736 388 123.118 388.144 122.41 388.144C121.594 388.144 120.85 387.934 120.178 387.514C119.506 387.082 118.972 386.476 118.576 385.696C118.192 384.904 118 383.992 118 382.96ZM125.524 382.978C125.524 382.21 125.308 381.604 124.876 381.16C124.456 380.716 123.94 380.494 123.328 380.494C122.716 380.494 122.194 380.716 121.762 381.16C121.342 381.592 121.132 382.192 121.132 382.96C121.132 383.728 121.342 384.34 121.762 384.796C122.194 385.24 122.716 385.462 123.328 385.462C123.94 385.462 124.456 385.24 124.876 384.796C125.308 384.352 125.524 383.746 125.524 382.978ZM134.915 388.144C134.039 388.144 133.259 387.994 132.575 387.694C131.891 387.394 131.351 386.986 130.955 386.47C130.559 385.942 130.337 385.354 130.289 384.706H133.331C133.367 385.054 133.529 385.336 133.817 385.552C134.105 385.768 134.459 385.876 134.879 385.876C135.263 385.876 135.557 385.804 135.761 385.66C135.977 385.504 136.085 385.306 136.085 385.066C136.085 384.778 135.935 384.568 135.635 384.436C135.335 384.292 134.849 384.136 134.177 383.968C133.457 383.8 132.857 383.626 132.377 383.446C131.897 383.254 131.483 382.96 131.135 382.564C130.787 382.156 130.613 381.61 130.613 380.926C130.613 380.35 130.769 379.828 131.081 379.36C131.405 378.88 131.873 378.502 132.485 378.226C133.109 377.95 133.847 377.812 134.699 377.812C135.959 377.812 136.949 378.124 137.669 378.748C138.401 379.372 138.821 380.2 138.929 381.232H136.085C136.037 380.884 135.881 380.608 135.617 380.404C135.365 380.2 135.029 380.098 134.609 380.098C134.249 380.098 133.973 380.17 133.781 380.314C133.589 380.446 133.493 380.632 133.493 380.872C133.493 381.16 133.643 381.376 133.943 381.52C134.255 381.664 134.735 381.808 135.383 381.952C136.127 382.144 136.733 382.336 137.201 382.528C137.669 382.708 138.077 383.008 138.425 383.428C138.785 383.836 138.971 384.388 138.983 385.084C138.983 385.672 138.815 386.2 138.479 386.668C138.155 387.124 137.681 387.484 137.057 387.748C136.445 388.012 135.731 388.144 134.915 388.144Z" fill="#3BC8D0"/>
<path d="M92.7805 196.664C92.7805 195.416 93.0505 194.306 93.5905 193.334C94.1305 192.35 94.8805 191.588 95.8405 191.048C96.8125 190.496 97.9105 190.22 99.1345 190.22C100.635 190.22 101.919 190.616 102.987 191.408C104.055 192.2 104.769 193.28 105.129 194.648H101.745C101.493 194.12 101.133 193.718 100.665 193.442C100.209 193.166 99.6865 193.028 99.0985 193.028C98.1505 193.028 97.3825 193.358 96.7945 194.018C96.2065 194.678 95.9125 195.56 95.9125 196.664C95.9125 197.768 96.2065 198.65 96.7945 199.31C97.3825 199.97 98.1505 200.3 99.0985 200.3C99.6865 200.3 100.209 200.162 100.665 199.886C101.133 199.61 101.493 199.208 101.745 198.68H105.129C104.769 200.048 104.055 201.128 102.987 201.92C101.919 202.7 100.635 203.09 99.1345 203.09C97.9105 203.09 96.8125 202.82 95.8405 202.28C94.8805 201.728 94.1305 200.966 93.5905 199.994C93.0505 199.022 92.7805 197.912 92.7805 196.664ZM116.931 192.956V203H113.853V201.632C113.541 202.076 113.115 202.436 112.575 202.712C112.047 202.976 111.459 203.108 110.811 203.108C110.043 203.108 109.365 202.94 108.777 202.604C108.189 202.256 107.733 201.758 107.409 201.11C107.085 200.462 106.923 199.7 106.923 198.824V192.956H109.983V198.41C109.983 199.082 110.157 199.604 110.505 199.976C110.853 200.348 111.321 200.534 111.909 200.534C112.509 200.534 112.983 200.348 113.331 199.976C113.679 199.604 113.853 199.082 113.853 198.41V192.956H116.931ZM128.61 197.816C128.61 198.104 128.592 198.404 128.556 198.716H121.59C121.638 199.34 121.836 199.82 122.184 200.156C122.544 200.48 122.982 200.642 123.498 200.642C124.266 200.642 124.8 200.318 125.1 199.67H128.376C128.208 200.33 127.902 200.924 127.458 201.452C127.026 201.98 126.48 202.394 125.82 202.694C125.16 202.994 124.422 203.144 123.606 203.144C122.622 203.144 121.746 202.934 120.978 202.514C120.21 202.094 119.61 201.494 119.178 200.714C118.746 199.934 118.53 199.022 118.53 197.978C118.53 196.934 118.74 196.022 119.16 195.242C119.592 194.462 120.192 193.862 120.96 193.442C121.728 193.022 122.61 192.812 123.606 192.812C124.578 192.812 125.442 193.016 126.198 193.424C126.954 193.832 127.542 194.414 127.962 195.17C128.394 195.926 128.61 196.808 128.61 197.816ZM125.46 197.006C125.46 196.478 125.28 196.058 124.92 195.746C124.56 195.434 124.11 195.278 123.57 195.278C123.054 195.278 122.616 195.428 122.256 195.728C121.908 196.028 121.692 196.454 121.608 197.006H125.46ZM136.354 192.848C137.53 192.848 138.466 193.232 139.162 194C139.87 194.756 140.224 195.8 140.224 197.132V203H137.164V197.546C137.164 196.874 136.99 196.352 136.642 195.98C136.294 195.608 135.826 195.422 135.238 195.422C134.65 195.422 134.182 195.608 133.834 195.98C133.486 196.352 133.312 196.874 133.312 197.546V203H130.234V192.956H133.312V194.288C133.624 193.844 134.044 193.496 134.572 193.244C135.1 192.98 135.694 192.848 136.354 192.848ZM147.961 200.39V203H146.395C145.279 203 144.409 202.73 143.785 202.19C143.161 201.638 142.849 200.744 142.849 199.508V195.512H141.625V192.956H142.849V190.508H145.927V192.956H147.943V195.512H145.927V199.544C145.927 199.844 145.999 200.06 146.143 200.192C146.287 200.324 146.527 200.39 146.863 200.39H147.961ZM149.064 197.96C149.064 196.928 149.256 196.022 149.64 195.242C150.036 194.462 150.57 193.862 151.242 193.442C151.914 193.022 152.664 192.812 153.492 192.812C154.2 192.812 154.818 192.956 155.346 193.244C155.886 193.532 156.3 193.91 156.588 194.378V192.956H159.666V203H156.588V201.578C156.288 202.046 155.868 202.424 155.328 202.712C154.8 203 154.182 203.144 153.474 203.144C152.658 203.144 151.914 202.934 151.242 202.514C150.57 202.082 150.036 201.476 149.64 200.696C149.256 199.904 149.064 198.992 149.064 197.96ZM156.588 197.978C156.588 197.21 156.372 196.604 155.94 196.16C155.52 195.716 155.004 195.494 154.392 195.494C153.78 195.494 153.258 195.716 152.826 196.16C152.406 196.592 152.196 197.192 152.196 197.96C152.196 198.728 152.406 199.34 152.826 199.796C153.258 200.24 153.78 200.462 154.392 200.462C155.004 200.462 155.52 200.24 155.94 199.796C156.372 199.352 156.588 198.746 156.588 197.978ZM165.978 203.144C165.102 203.144 164.322 202.994 163.638 202.694C162.954 202.394 162.414 201.986 162.018 201.47C161.622 200.942 161.4 200.354 161.352 199.706H164.394C164.43 200.054 164.592 200.336 164.88 200.552C165.168 200.768 165.522 200.876 165.942 200.876C166.326 200.876 166.62 200.804 166.824 200.66C167.04 200.504 167.148 200.306 167.148 200.066C167.148 199.778 166.998 199.568 166.698 199.436C166.398 199.292 165.912 199.136 165.24 198.968C164.52 198.8 163.92 198.626 163.44 198.446C162.96 198.254 162.546 197.96 162.198 197.564C161.85 197.156 161.676 196.61 161.676 195.926C161.676 195.35 161.832 194.828 162.144 194.36C162.468 193.88 162.936 193.502 163.548 193.226C164.172 192.95 164.91 192.812 165.762 192.812C167.022 192.812 168.012 193.124 168.732 193.748C169.464 194.372 169.884 195.2 169.992 196.232H167.148C167.1 195.884 166.944 195.608 166.68 195.404C166.428 195.2 166.092 195.098 165.672 195.098C165.312 195.098 165.036 195.17 164.844 195.314C164.652 195.446 164.556 195.632 164.556 195.872C164.556 196.16 164.706 196.376 165.006 196.52C165.318 196.664 165.798 196.808 166.446 196.952C167.19 197.144 167.796 197.336 168.264 197.528C168.732 197.708 169.14 198.008 169.488 198.428C169.848 198.836 170.034 199.388 170.046 200.084C170.046 200.672 169.878 201.2 169.542 201.668C169.218 202.124 168.744 202.484 168.12 202.748C167.508 203.012 166.794 203.144 165.978 203.144Z" fill="#3BC8D0"/>
<path d="M975.387 82.364V84.83H972.039V95H968.961V84.83H965.613V82.364H975.387ZM980.009 86.63C980.369 86.078 980.819 85.646 981.359 85.334C981.899 85.01 982.499 84.848 983.159 84.848V88.106H982.313C981.545 88.106 980.969 88.274 980.585 88.61C980.201 88.934 980.009 89.51 980.009 90.338V95H976.931V84.956H980.009V86.63ZM984.019 89.96C984.019 88.928 984.211 88.022 984.595 87.242C984.991 86.462 985.525 85.862 986.197 85.442C986.869 85.022 987.619 84.812 988.447 84.812C989.155 84.812 989.773 84.956 990.301 85.244C990.841 85.532 991.255 85.91 991.543 86.378V84.956H994.621V95H991.543V93.578C991.243 94.046 990.823 94.424 990.283 94.712C989.755 95 989.137 95.144 988.429 95.144C987.613 95.144 986.869 94.934 986.197 94.514C985.525 94.082 984.991 93.476 984.595 92.696C984.211 91.904 984.019 90.992 984.019 89.96ZM991.543 89.978C991.543 89.21 991.327 88.604 990.895 88.16C990.475 87.716 989.959 87.494 989.347 87.494C988.735 87.494 988.213 87.716 987.781 88.16C987.361 88.592 987.151 89.192 987.151 89.96C987.151 90.728 987.361 91.34 987.781 91.796C988.213 92.24 988.735 92.462 989.347 92.462C989.959 92.462 990.475 92.24 990.895 91.796C991.327 91.352 991.543 90.746 991.543 89.978ZM1002.97 84.848C1004.14 84.848 1005.08 85.232 1005.78 86C1006.48 86.756 1006.84 87.8 1006.84 89.132V95H1003.78V89.546C1003.78 88.874 1003.6 88.352 1003.26 87.98C1002.91 87.608 1002.44 87.422 1001.85 87.422C1001.26 87.422 1000.8 87.608 1000.45 87.98C1000.1 88.352 999.925 88.874 999.925 89.546V95H996.847V84.956H999.925V86.288C1000.24 85.844 1000.66 85.496 1001.19 85.244C1001.71 84.98 1002.31 84.848 1002.97 84.848ZM1014.02 87.512H1012.36V95H1009.28V87.512H1008.17V84.956H1009.28V84.668C1009.28 83.432 1009.64 82.496 1010.34 81.86C1011.05 81.212 1012.09 80.888 1013.46 80.888C1013.69 80.888 1013.85 80.894 1013.96 80.906V83.516C1013.37 83.48 1012.96 83.564 1012.72 83.768C1012.48 83.972 1012.36 84.338 1012.36 84.866V84.956H1014.02V87.512ZM1024.93 89.816C1024.93 90.104 1024.91 90.404 1024.88 90.716H1017.91C1017.96 91.34 1018.16 91.82 1018.5 92.156C1018.86 92.48 1019.3 92.642 1019.82 92.642C1020.59 92.642 1021.12 92.318 1021.42 91.67H1024.7C1024.53 92.33 1024.22 92.924 1023.78 93.452C1023.35 93.98 1022.8 94.394 1022.14 94.694C1021.48 94.994 1020.74 95.144 1019.93 95.144C1018.94 95.144 1018.07 94.934 1017.3 94.514C1016.53 94.094 1015.93 93.494 1015.5 92.714C1015.07 91.934 1014.85 91.022 1014.85 89.978C1014.85 88.934 1015.06 88.022 1015.48 87.242C1015.91 86.462 1016.51 85.862 1017.28 85.442C1018.05 85.022 1018.93 84.812 1019.93 84.812C1020.9 84.812 1021.76 85.016 1022.52 85.424C1023.27 85.832 1023.86 86.414 1024.28 87.17C1024.71 87.926 1024.93 88.808 1024.93 89.816ZM1021.78 89.006C1021.78 88.478 1021.6 88.058 1021.24 87.746C1020.88 87.434 1020.43 87.278 1019.89 87.278C1019.37 87.278 1018.94 87.428 1018.58 87.728C1018.23 88.028 1018.01 88.454 1017.93 89.006H1021.78ZM1029.63 86.63C1029.99 86.078 1030.44 85.646 1030.98 85.334C1031.52 85.01 1032.12 84.848 1032.78 84.848V88.106H1031.94C1031.17 88.106 1030.59 88.274 1030.21 88.61C1029.82 88.934 1029.63 89.51 1029.63 90.338V95H1026.55V84.956H1029.63V86.63ZM1043.72 89.816C1043.72 90.104 1043.7 90.404 1043.67 90.716H1036.7C1036.75 91.34 1036.95 91.82 1037.3 92.156C1037.66 92.48 1038.09 92.642 1038.61 92.642C1039.38 92.642 1039.91 92.318 1040.21 91.67H1043.49C1043.32 92.33 1043.01 92.924 1042.57 93.452C1042.14 93.98 1041.59 94.394 1040.93 94.694C1040.27 94.994 1039.53 95.144 1038.72 95.144C1037.73 95.144 1036.86 94.934 1036.09 94.514C1035.32 94.094 1034.72 93.494 1034.29 92.714C1033.86 91.934 1033.64 91.022 1033.64 89.978C1033.64 88.934 1033.85 88.022 1034.27 87.242C1034.7 86.462 1035.3 85.862 1036.07 85.442C1036.84 85.022 1037.72 84.812 1038.72 84.812C1039.69 84.812 1040.55 85.016 1041.31 85.424C1042.07 85.832 1042.65 86.414 1043.07 87.17C1043.51 87.926 1043.72 88.808 1043.72 89.816ZM1040.57 89.006C1040.57 88.478 1040.39 88.058 1040.03 87.746C1039.67 87.434 1039.22 87.278 1038.68 87.278C1038.17 87.278 1037.73 87.428 1037.37 87.728C1037.02 88.028 1036.8 88.454 1036.72 89.006H1040.57ZM1051.47 84.848C1052.64 84.848 1053.58 85.232 1054.27 86C1054.98 86.756 1055.34 87.8 1055.34 89.132V95H1052.28V89.546C1052.28 88.874 1052.1 88.352 1051.75 87.98C1051.41 87.608 1050.94 87.422 1050.35 87.422C1049.76 87.422 1049.29 87.608 1048.95 87.98C1048.6 88.352 1048.42 88.874 1048.42 89.546V95H1045.35V84.956H1048.42V86.288C1048.74 85.844 1049.16 85.496 1049.68 85.244C1050.21 84.98 1050.81 84.848 1051.47 84.848ZM1056.86 89.978C1056.86 88.934 1057.07 88.022 1057.49 87.242C1057.92 86.462 1058.52 85.862 1059.27 85.442C1060.04 85.022 1060.92 84.812 1061.9 84.812C1063.16 84.812 1064.21 85.142 1065.05 85.802C1065.9 86.462 1066.46 87.392 1066.73 88.592H1063.45C1063.17 87.824 1062.64 87.44 1061.85 87.44C1061.28 87.44 1060.83 87.662 1060.5 88.106C1060.16 88.538 1059.99 89.162 1059.99 89.978C1059.99 90.794 1060.16 91.424 1060.5 91.868C1060.83 92.3 1061.28 92.516 1061.85 92.516C1062.64 92.516 1063.17 92.132 1063.45 91.364H1066.73C1066.46 92.54 1065.9 93.464 1065.05 94.136C1064.2 94.808 1063.15 95.144 1061.9 95.144C1060.92 95.144 1060.04 94.934 1059.27 94.514C1058.52 94.094 1057.92 93.494 1057.49 92.714C1057.07 91.934 1056.86 91.022 1056.86 89.978ZM1069.92 83.912C1069.38 83.912 1068.94 83.756 1068.59 83.444C1068.25 83.12 1068.08 82.724 1068.08 82.256C1068.08 81.776 1068.25 81.38 1068.59 81.068C1068.94 80.744 1069.38 80.582 1069.92 80.582C1070.45 80.582 1070.88 80.744 1071.22 81.068C1071.56 81.38 1071.74 81.776 1071.74 82.256C1071.74 82.724 1071.56 83.12 1071.22 83.444C1070.88 83.756 1070.45 83.912 1069.92 83.912ZM1071.45 84.956V95H1068.37V84.956H1071.45ZM1073.07 89.96C1073.07 88.928 1073.26 88.022 1073.65 87.242C1074.04 86.462 1074.58 85.862 1075.25 85.442C1075.92 85.022 1076.67 84.812 1077.5 84.812C1078.21 84.812 1078.82 84.956 1079.35 85.244C1079.89 85.532 1080.31 85.91 1080.59 86.378V84.956H1083.67V95H1080.59V93.578C1080.29 94.046 1079.87 94.424 1079.33 94.712C1078.81 95 1078.19 95.144 1077.48 95.144C1076.66 95.144 1075.92 94.934 1075.25 94.514C1074.58 94.082 1074.04 93.476 1073.65 92.696C1073.26 91.904 1073.07 90.992 1073.07 89.96ZM1080.59 89.978C1080.59 89.21 1080.38 88.604 1079.95 88.16C1079.53 87.716 1079.01 87.494 1078.4 87.494C1077.79 87.494 1077.26 87.716 1076.83 88.16C1076.41 88.592 1076.2 89.192 1076.2 89.96C1076.2 90.728 1076.41 91.34 1076.83 91.796C1077.26 92.24 1077.79 92.462 1078.4 92.462C1079.01 92.462 1079.53 92.24 1079.95 91.796C1080.38 91.352 1080.59 90.746 1080.59 89.978ZM1089.98 95.144C1089.11 95.144 1088.33 94.994 1087.64 94.694C1086.96 94.394 1086.42 93.986 1086.02 93.47C1085.63 92.942 1085.41 92.354 1085.36 91.706H1088.4C1088.44 92.054 1088.6 92.336 1088.89 92.552C1089.17 92.768 1089.53 92.876 1089.95 92.876C1090.33 92.876 1090.63 92.804 1090.83 92.66C1091.05 92.504 1091.15 92.306 1091.15 92.066C1091.15 91.778 1091 91.568 1090.7 91.436C1090.4 91.292 1089.92 91.136 1089.25 90.968C1088.53 90.8 1087.93 90.626 1087.45 90.446C1086.97 90.254 1086.55 89.96 1086.2 89.564C1085.86 89.156 1085.68 88.61 1085.68 87.926C1085.68 87.35 1085.84 86.828 1086.15 86.36C1086.47 85.88 1086.94 85.502 1087.55 85.226C1088.18 84.95 1088.92 84.812 1089.77 84.812C1091.03 84.812 1092.02 85.124 1092.74 85.748C1093.47 86.372 1093.89 87.2 1094 88.232H1091.15C1091.11 87.884 1090.95 87.608 1090.69 87.404C1090.43 87.2 1090.1 87.098 1089.68 87.098C1089.32 87.098 1089.04 87.17 1088.85 87.314C1088.66 87.446 1088.56 87.632 1088.56 87.872C1088.56 88.16 1088.71 88.376 1089.01 88.52C1089.32 88.664 1089.8 88.808 1090.45 88.952C1091.2 89.144 1091.8 89.336 1092.27 89.528C1092.74 89.708 1093.15 90.008 1093.49 90.428C1093.85 90.836 1094.04 91.388 1094.05 92.084C1094.05 92.672 1093.88 93.2 1093.55 93.668C1093.22 94.124 1092.75 94.484 1092.13 94.748C1091.51 95.012 1090.8 95.144 1089.98 95.144Z" fill="#3BC8D0"/>
<path d="M227 200H263" stroke="#3BC8D0" stroke-width="2"/>
<path d="M196 382H232" stroke="#3BC8D0" stroke-width="2"/>
<path d="M858 90H928" stroke="#3BC8D0" stroke-width="2"/>
<circle cx="263" cy="200" r="5" fill="#3BC8D0"/>
<circle cx="232" cy="382" r="5" fill="#3BC8D0"/>
<circle cx="858" cy="90" r="5" fill="#3BC8D0"/>
<g opacity="0.1">
<circle cx="579.5" cy="282.5" r="228.5" fill="#D9D9D9"/>
<circle cx="579.5" cy="282.5" r="228.5" fill="#02024A"/>
</g>
<g clip-path="url(#clip0_115_2)">
<g style="mix-blend-mode:lighten">
<path d="M555.165 374.079C554.123 374.104 553.093 373.86 552.172 373.372L484.99 334.525C484.597 334.345 484.261 334.061 484.017 333.705C483.773 333.348 483.63 332.931 483.604 332.5C483.659 331.962 483.855 331.448 484.171 331.009C484.487 330.571 484.913 330.224 485.406 330.002L608.282 258.927C609.312 258.348 610.465 258.023 611.645 257.977C612.825 257.931 614 258.166 615.072 258.663L682.254 297.51C682.648 297.684 682.987 297.964 683.231 298.319C683.476 298.675 683.617 299.091 683.64 299.522C683.586 300.06 683.392 300.574 683.079 301.015C682.765 301.455 682.342 301.806 681.852 302.033L558.962 373.108C557.798 373.747 556.492 374.081 555.165 374.079ZM552.699 372.47C553.61 372.873 554.601 373.06 555.596 373.017C556.591 372.974 557.563 372.701 558.436 372.22L681.325 301.131C682.129 300.673 682.6 300.077 682.6 299.535C682.571 299.294 682.479 299.064 682.333 298.869C682.187 298.674 681.993 298.521 681.769 298.426L614.587 259.579C613.674 259.181 612.682 258.998 611.688 259.043C610.693 259.089 609.722 259.362 608.85 259.843L485.96 330.96C485.17 331.431 484.685 332.028 484.685 332.555C484.712 332.799 484.803 333.032 484.949 333.23C485.095 333.427 485.291 333.582 485.517 333.679L552.699 372.47Z" fill="#3BC9D0"/>
</g>
<g style="mix-blend-mode:lighten">
<path d="M381.446 233.413L308 190.945L381.446 148.491L454.891 190.945L381.446 233.413ZM310.065 190.945L381.446 232.206L452.826 190.945L381.446 149.684L310.065 190.945Z" fill="#1A1AEA"/>
</g>
<path d="M449.348 175.157V161.436L381.446 198.95L313.543 161.436V175.157L381.446 214.406L449.348 175.157Z" fill="url(#paint0_linear_115_2)"/>
<path d="M381.446 200.685L313.543 161.436L381.446 122.2L449.348 161.436L381.446 200.685Z" fill="url(#paint1_linear_115_2)"/>
<path opacity="0.5" d="M381.446 199.561L314.527 160.881L313.543 161.436L381.446 200.685L449.348 161.436L448.364 160.881L381.446 199.561Z" fill="white"/>
<path d="M381.446 185.701L339.471 161.436L381.446 137.184L423.42 161.436L381.446 185.701Z" fill="#0F054C"/>
<path opacity="0.5" d="M381.446 185.701L339.471 161.436L381.446 137.184L423.42 161.436L381.446 185.701Z" fill="url(#paint2_linear_115_2)"/>
<path opacity="0.5" d="M381.446 103.235L423.42 127.5V161.436L381.446 137.184V103.235Z" fill="url(#paint3_linear_115_2)"/>
<path opacity="0.5" d="M381.446 137.184L339.471 161.436V127.5L381.446 103.235V137.184Z" fill="url(#paint4_linear_115_2)"/>
<path opacity="0.5" d="M381.446 151.766L339.471 127.5L381.446 103.235L423.42 127.5L381.446 151.766Z" fill="url(#paint5_linear_115_2)"/>
<path opacity="0.5" d="M381.446 151.766V185.701L423.42 161.436V127.5L381.446 151.766Z" fill="url(#paint6_linear_115_2)"/>
<path opacity="0.5" d="M339.471 127.5V161.436L381.446 185.701V151.766L339.471 127.5Z" fill="url(#paint7_linear_115_2)"/>
<path opacity="0.8" d="M444.941 227.322L403.964 203.64L402.967 204.222L444.941 228.488L486.916 204.222L485.918 203.64L444.941 227.322Z" fill="#3BC9D0"/>
<g style="mix-blend-mode:lighten">
<path d="M755.838 281.541L684.443 240.28L682.711 241.279L755.838 283.553L828.979 241.279L827.233 240.28L755.838 281.541Z" fill="#1A1AEA"/>
</g>
<path d="M555.858 109.936H541.709C543.802 105.163 545.105 102.222 545.105 102.222L686.286 47.0599V283.428C686.248 283.67 686.151 283.899 686.004 284.095C685.856 284.291 685.663 284.448 685.441 284.552L556.703 358.971C556.446 359.113 556.171 359.22 555.886 359.29L555.858 109.936Z" fill="#1515CC"/>
<path d="M472.975 76.1533L554.223 122.561V264.643V359.498C553.305 359.471 552.407 359.224 551.604 358.777L474.223 314.047C473.902 313.904 473.621 313.683 473.406 313.405C473.191 313.126 473.048 312.799 472.989 312.452L472.975 76.1533Z" fill="url(#paint8_linear_115_2)"/>
<path d="M560.043 51.5551V357.015L556.676 358.971C555.93 359.348 555.098 359.52 554.264 359.47C553.336 359.47 553.281 358.915 552.518 358.471L551.825 358.18L552.574 321.942V265.142L550.842 51.5551H560.043Z" fill="#1A1AEA"/>
<path d="M550.842 322.441V120.661L554.181 122.561V264.643V359.498H553.599H553.488C553.062 359.431 552.644 359.32 552.241 359.165H552.158C551.953 359.082 551.754 358.985 551.562 358.874L550.842 358.458V322.441Z" fill="#CAD0F9"/>
<g opacity="0.51">
<path d="M679.912 60.0459L566.459 125.627V346.526L679.912 280.945V60.0459Z" fill="#1A1AEA"/>
</g>
<g opacity="0.51">
<path d="M686.286 249.063L560.043 164.46V120.841L686.286 47.0599V249.063Z" fill="#1717C9"/>
</g>
<path d="M556.676 122.853L685.413 48.4473C686.702 47.6982 686.55 46.3801 685.039 45.52L607.658 0.763065C606.89 0.326464 606.029 0.079794 605.147 0.0435957C604.265 0.00739747 603.387 0.182716 602.586 0.554956L473.862 74.9602C472.56 75.7094 472.726 77.0274 474.223 77.8875L551.604 122.617C552.369 123.058 553.229 123.309 554.111 123.35C554.993 123.391 555.873 123.221 556.676 122.853Z" fill="#BCBEFF"/>
<path d="M685.413 47.3651L556.676 121.77C555.875 122.143 554.997 122.318 554.115 122.282C553.232 122.246 552.372 121.999 551.604 121.562L474.223 76.8331C473.739 76.5869 473.346 76.1934 473.1 75.7093C472.782 76.4169 473.17 77.2355 474.223 77.8459L551.604 122.575C552.372 123.012 553.232 123.258 554.115 123.295C554.997 123.331 555.875 123.155 556.676 122.783L685.413 48.3779C685.75 48.2368 686.018 47.9681 686.158 47.6303C686.298 47.2925 686.3 46.913 686.162 46.5743C686.002 46.9105 685.74 47.1873 685.413 47.3651Z" fill="white"/>
<path opacity="0.78" d="M603.861 3.84302H613.063L685.039 45.4644C686.55 46.3246 686.702 47.6426 685.413 48.3918L681.908 50.4174L570.09 115.055L555.401 114.889L603.861 3.84302Z" fill="url(#paint9_linear_115_2)"/>
<path d="M603.861 8.42139L665.708 44.1742L671.708 43.0643V47.6426L555.401 114.875L496.506 74.7937L603.861 8.42139Z" fill="url(#paint10_linear_115_2)"/>
<path d="M487.554 71.0756V75.6539L555.401 114.875V110.283L487.554 71.0756Z" fill="url(#paint11_linear_115_2)"/>
<path d="M555.401 110.283L671.708 43.0643L603.861 3.84302L487.554 71.0755L555.401 110.283Z" fill="url(#paint12_linear_115_2)"/>
<path d="M555.401 109.242L488.454 70.5483L487.554 71.0755L555.401 110.283L671.708 43.0643L670.807 42.5371L555.401 109.242Z" fill="white"/>
<path d="M628.292 38.1529L630.149 37.0847L629.997 36.2106L612.799 26.1937L610.416 27.3314L610.859 28.0806L628.292 38.1529Z" fill="#3F21D3"/>
<path d="M612.716 27.0123L610.859 28.0805L609.667 27.3869L612.716 25.6249L631.341 36.391L630.135 37.0846L612.716 27.0123Z" fill="url(#paint13_linear_115_2)"/>
<path d="M622.666 41.3994L624.523 40.3311L624.37 39.4571L607.173 29.4402L604.79 30.5778L605.233 31.327L622.666 41.3994Z" fill="#3F21D3"/>
<path d="M607.09 30.2448L605.233 31.327L604.041 30.6333L607.09 28.8713L625.715 39.6374L624.523 40.3311L607.09 30.2448Z" fill="url(#paint14_linear_115_2)"/>
<path d="M617.04 44.632L618.897 43.5637L618.744 42.6897L601.561 32.6866L599.163 33.8243L599.607 34.5596L617.04 44.632Z" fill="#3F21D3"/>
<path d="M601.464 33.4914L599.607 34.5597L598.415 33.866L601.464 32.1179L620.088 42.884L618.897 43.5638L601.464 33.4914Z" fill="url(#paint15_linear_115_2)"/>
<path d="M611.414 47.8785L613.27 46.8103L613.118 45.9362L595.934 35.9193L593.537 37.057L593.994 37.8061L611.414 47.8785Z" fill="#3F21D3"/>
<path d="M595.837 36.7378L593.994 37.8061L592.789 37.1124L595.837 35.3505L614.462 46.1165L613.27 46.8102L595.837 36.7378Z" fill="url(#paint16_linear_115_2)"/>
<path d="M594.965 57.4514L596.821 56.3693L596.669 55.5091L579.486 45.4922L577.088 46.6298L577.545 47.3651L594.965 57.4514Z" fill="#3F21D3"/>
<path d="M579.388 46.2968L577.545 47.3651L576.354 46.6853L579.388 44.9233L598.013 55.6894L596.821 56.3692L579.388 46.2968Z" fill="url(#paint17_linear_115_2)"/>
<path d="M589.338 60.684L591.195 59.6157L591.043 58.7417L573.859 48.7386L571.476 49.8763L571.919 50.6116L589.338 60.684Z" fill="#3F21D3"/>
<path d="M573.762 49.5434L571.919 50.6117L570.728 49.918L573.762 48.156L592.387 58.9221L591.195 59.6158L573.762 49.5434Z" fill="url(#paint18_linear_115_2)"/>
<path d="M583.726 63.9305L585.569 62.8623L585.417 61.9882L568.233 51.9713L565.85 53.109L566.293 53.8582L583.726 63.9305Z" fill="#3F21D3"/>
<path d="M568.136 52.7898L566.293 53.8581L565.101 53.1644L568.136 51.4025L586.761 62.1685L585.569 62.8622L568.136 52.7898Z" fill="url(#paint19_linear_115_2)"/>
<path d="M578.1 67.1631L579.957 66.0948L579.804 65.2347L562.607 55.2178L560.223 56.3554L560.667 57.0907L578.1 67.1631Z" fill="#3F21D3"/>
<path d="M562.524 56.0224L560.667 57.0907L559.475 56.4109L562.524 54.6489L581.148 65.415L579.943 66.0948L562.524 56.0224Z" fill="url(#paint20_linear_115_2)"/>
<path d="M561.651 76.7361L563.507 75.6678L563.355 74.7937L546.158 64.7769L543.774 65.9145L544.218 66.6637L561.651 76.7361Z" fill="#3F21D3"/>
<path d="M546.075 65.5954L544.218 66.6637L543.026 65.97L546.075 64.208L564.699 74.9741L563.494 75.6678L546.075 65.5954Z" fill="url(#paint21_linear_115_2)"/>
<path d="M556.024 79.9825L557.881 78.9004L557.729 78.0402L540.531 68.0233L538.148 69.161L538.591 69.8963L556.024 79.9825Z" fill="#3F21D3"/>
<path d="M540.448 68.828L538.591 69.8963L537.4 69.2164L540.448 67.4545L559.073 78.2205L557.867 78.9142L540.448 68.828Z" fill="url(#paint22_linear_115_2)"/>
<path d="M550.398 83.2151L552.255 82.1468L552.103 81.2728L534.905 71.2698L532.522 72.4074L532.965 73.1427L550.398 83.2151Z" fill="#3F21D3"/>
<path d="M534.822 72.0744L532.965 73.1427L531.773 72.449L534.822 70.687L553.447 81.4531L552.255 82.1468L534.822 72.0744Z" fill="url(#paint23_linear_115_2)"/>
<path d="M544.772 86.4615L546.629 85.3933L546.476 84.5192L529.279 74.5023L526.896 75.64L527.339 76.3892L544.772 86.4615Z" fill="#3F21D3"/>
<path d="M529.196 75.3209L527.339 76.3891L526.147 75.6954L529.196 73.9335L547.821 84.6995L546.629 85.3932L529.196 75.3209Z" fill="url(#paint24_linear_115_2)"/>
<path d="M484.713 232.067L541.876 265.101V186.894L484.713 153.86V232.067Z" fill="#BCBEFF"/>
<path d="M487.9 155.692V230.596L541.876 261.799V265.101L484.713 232.067V153.86L487.9 155.692Z" fill="url(#paint25_linear_115_2)"/>
<path d="M450.291 252.254L453.353 253.849L484.062 236.104C484.379 235.958 484.727 235.889 485.076 235.903C485.426 235.918 485.767 236.015 486.071 236.188L539.049 266.807C539.548 266.516 541.82 265.42 541.82 265.42L540.698 268.347C540.636 268.497 540.523 268.62 540.379 268.694L508.035 287.382C507.718 287.529 507.37 287.598 507.021 287.583C506.671 287.569 506.33 287.471 506.026 287.299L451.815 255.972C451.615 255.866 451.458 255.695 451.371 255.486L450.291 252.254Z" fill="url(#paint26_linear_115_2)"/>
<path d="M450.762 252.753L506.317 284.871C506.629 285.044 506.976 285.141 507.333 285.156C507.689 285.17 508.043 285.101 508.368 284.954L541.529 265.753C542.056 265.447 541.986 264.906 541.377 264.56L485.821 232.456C485.51 232.283 485.162 232.185 484.806 232.171C484.45 232.156 484.095 232.225 483.77 232.372L450.609 251.546C450.082 251.879 450.152 252.406 450.762 252.753Z" fill="url(#paint27_linear_115_2)"/>
<path d="M523.126 277.92V277.31C523.126 277.31 523.126 277.226 523.057 277.31L520.909 278.544C520.885 278.562 520.865 278.585 520.851 278.612C520.836 278.638 520.828 278.667 520.826 278.697V279.307C520.826 279.307 520.826 279.391 520.909 279.307L523.057 278.073C523.079 278.054 523.097 278.031 523.109 278.004C523.121 277.978 523.127 277.949 523.126 277.92Z" fill="#2842A2"/>
<path d="M519.87 279.779V279.169C519.87 279.169 519.87 279.085 519.787 279.169L517.639 280.403C517.615 280.421 517.595 280.444 517.58 280.471C517.566 280.497 517.557 280.526 517.555 280.556V281.167C517.555 281.167 517.555 281.25 517.639 281.167L519.787 279.932C519.811 279.914 519.83 279.891 519.845 279.865C519.859 279.838 519.868 279.809 519.87 279.779Z" fill="#2842A2"/>
<path d="M532.827 263.991L486.722 237.311C486.571 237.222 486.399 237.175 486.223 237.175C486.048 237.175 485.876 237.222 485.724 237.311L469.275 246.829C469.221 246.861 469.175 246.906 469.144 246.961C469.112 247.016 469.096 247.078 469.096 247.141C469.096 247.204 469.112 247.266 469.144 247.321C469.175 247.376 469.221 247.421 469.275 247.453L515.421 274.077C515.573 274.166 515.745 274.213 515.92 274.213C516.096 274.213 516.268 274.166 516.419 274.077L532.827 264.615C532.881 264.583 532.927 264.538 532.958 264.483C532.99 264.428 533.006 264.366 533.006 264.303C533.006 264.24 532.99 264.178 532.958 264.123C532.927 264.068 532.881 264.022 532.827 263.991Z" fill="#ADB1F2"/>
<path d="M532.827 264.615L532.66 264.712L486.667 238.116C486.516 238.027 486.343 237.98 486.168 237.98C485.993 237.98 485.82 238.027 485.669 238.116L469.386 247.536L469.22 247.453C469.165 247.421 469.12 247.376 469.088 247.321C469.057 247.266 469.04 247.204 469.04 247.141C469.04 247.078 469.057 247.016 469.088 246.961C469.12 246.906 469.165 246.861 469.22 246.829L485.711 237.311C485.862 237.222 486.034 237.175 486.21 237.175C486.385 237.175 486.557 237.222 486.708 237.311L532.827 263.991C532.881 264.022 532.927 264.068 532.958 264.123C532.99 264.178 533.006 264.24 533.006 264.303C533.006 264.366 532.99 264.428 532.958 264.483C532.927 264.538 532.881 264.583 532.827 264.615Z" fill="#9198DB"/>
<path d="M484.477 239.725L524.581 262.909L526.369 261.868L486.265 238.685L484.477 239.725Z" fill="#24126A"/>
<path d="M480.098 242.251L517.722 263.991L519.509 262.964L481.886 241.224L480.098 242.251Z" fill="#24126A"/>
<path d="M477.257 243.888L521.547 269.499L523.334 268.458L479.045 242.861L477.257 243.888Z" fill="#24126A"/>
<path d="M474.417 245.539L518.706 271.136L520.479 270.109L476.19 244.512L474.417 245.539Z" fill="#24126A"/>
<path d="M471.562 247.19L515.851 272.787L517.639 271.76L473.35 246.149L471.562 247.19Z" fill="#24126A"/>
<path d="M527.006 264.296L528.78 265.336L530.568 264.296L528.78 263.269L527.006 264.296Z" fill="#24126A"/>
<path d="M520.715 265.725L524.415 267.862L526.203 266.835L522.503 264.684L520.715 265.725Z" fill="#24126A"/>
<path d="M484.935 270.456L472.463 263.255C472.36 263.217 472.271 263.147 472.209 263.057C472.146 262.966 472.113 262.859 472.113 262.749C472.113 262.639 472.146 262.532 472.209 262.441C472.271 262.351 472.36 262.281 472.463 262.243L480.971 257.317C481.245 257.181 481.546 257.109 481.851 257.109C482.157 257.109 482.458 257.181 482.731 257.317L495.203 264.518C495.306 264.557 495.395 264.626 495.457 264.716C495.52 264.807 495.553 264.914 495.553 265.024C495.553 265.134 495.52 265.242 495.457 265.332C495.395 265.423 495.306 265.492 495.203 265.531L486.681 270.456C486.409 270.59 486.111 270.66 485.808 270.66C485.505 270.66 485.206 270.59 484.935 270.456Z" fill="url(#paint28_linear_115_2)"/>
<path d="M495.217 264.934L482.745 257.734C482.472 257.597 482.171 257.526 481.865 257.526C481.56 257.526 481.258 257.597 480.985 257.734L472.477 262.659C472.35 262.726 472.245 262.827 472.172 262.95C472.047 262.714 472.172 262.437 472.477 262.243L480.985 257.317C481.258 257.181 481.56 257.109 481.865 257.109C482.171 257.109 482.472 257.181 482.745 257.317L495.217 264.518C495.55 264.712 495.647 264.99 495.522 265.226C495.449 265.102 495.344 265.001 495.217 264.934Z" fill="#9198DB"/>
<path d="M487.9 155.692L541.876 186.894V261.799L487.9 230.597V155.692Z" fill="#24126A"/>
<path d="M487.9 155.692L541.876 186.894V261.799L487.9 230.597V155.692Z" fill="#1A1AEA"/>
<g opacity="0.51">
<path d="M490.907 232.331V160.867L541.876 190.321V261.799L490.907 232.331Z" fill="#453C9E"/>
</g>
<g opacity="0.11">
<mask id="mask0_115_2" style="mask-type:luminance" maskUnits="userSpaceOnUse" x="490" y="160" width="52" height="102">
<path d="M490.907 232.331V160.867L541.876 190.321V261.799L490.907 232.331Z" fill="white"/>
</mask>
<g mask="url(#mask0_115_2)">
<path d="M485.711 232.456L541.003 264.365C541.312 264.538 541.657 264.636 542.011 264.65C542.365 264.665 542.717 264.596 543.04 264.449L576.049 245.372C576.561 245.067 576.506 244.54 575.896 244.193L520.604 212.283C520.292 212.11 519.945 212.013 519.588 211.998C519.232 211.984 518.878 212.053 518.553 212.2L485.53 231.207C485.004 231.512 485.073 232.039 485.711 232.456Z" fill="url(#paint29_linear_115_2)"/>
<path d="M541.141 238.116L528.752 230.957C528.65 230.919 528.561 230.849 528.498 230.759C528.436 230.668 528.402 230.561 528.402 230.451C528.402 230.341 528.436 230.233 528.498 230.143C528.561 230.053 528.65 229.983 528.752 229.945L537.219 225.047C537.493 224.91 537.794 224.839 538.099 224.839C538.405 224.839 538.706 224.91 538.979 225.047L551.368 232.206C551.471 232.245 551.56 232.314 551.622 232.404C551.685 232.495 551.718 232.602 551.718 232.712C551.718 232.822 551.685 232.93 551.622 233.02C551.56 233.111 551.471 233.18 551.368 233.219L542.887 238.116C542.616 238.253 542.317 238.324 542.014 238.324C541.711 238.324 541.412 238.253 541.141 238.116Z" fill="url(#paint30_linear_115_2)"/>
<path d="M551.368 232.622L538.979 225.519C538.706 225.382 538.405 225.311 538.099 225.311C537.794 225.311 537.493 225.382 537.219 225.519L528.752 230.416C528.626 230.483 528.52 230.584 528.448 230.708C528.323 230.472 528.448 230.194 528.752 230L537.219 225.103C537.493 224.966 537.794 224.895 538.099 224.895C538.405 224.895 538.706 224.966 538.979 225.103L551.368 232.261C551.701 232.456 551.798 232.733 551.673 232.983C551.615 232.832 551.507 232.705 551.368 232.622Z" fill="#9198DB"/>
<path d="M556.814 249.312L510.862 222.744C510.712 222.659 510.543 222.614 510.37 222.614C510.198 222.614 510.028 222.659 509.878 222.744L493.512 232.22C493.458 232.25 493.412 232.294 493.38 232.347C493.348 232.401 493.331 232.462 493.331 232.525C493.331 232.588 493.348 232.649 493.38 232.703C493.412 232.756 493.458 232.801 493.512 232.83L539.437 259.371C539.586 259.459 539.756 259.505 539.929 259.505C540.102 259.505 540.272 259.459 540.421 259.371L556.814 249.909C556.866 249.878 556.909 249.835 556.939 249.782C556.968 249.73 556.984 249.671 556.984 249.611C556.984 249.55 556.968 249.491 556.939 249.439C556.909 249.387 556.866 249.343 556.814 249.312Z" fill="#ADB1F2"/>
<path d="M556.814 249.923L556.648 250.02L510.918 223.549C510.766 223.467 510.597 223.425 510.426 223.425C510.254 223.425 510.085 223.467 509.934 223.549L493.734 232.941L493.568 232.844C493.513 232.814 493.467 232.77 493.435 232.717C493.403 232.663 493.386 232.601 493.386 232.539C493.386 232.476 493.403 232.415 493.435 232.361C493.467 232.307 493.513 232.263 493.568 232.234L509.878 222.744C510.028 222.659 510.198 222.614 510.37 222.614C510.543 222.614 510.712 222.659 510.862 222.744L556.814 249.312C556.869 249.342 556.915 249.386 556.947 249.44C556.979 249.494 556.996 249.555 556.996 249.618C556.996 249.68 556.979 249.742 556.947 249.795C556.915 249.849 556.869 249.893 556.814 249.923Z" fill="#9198DB"/>
<path d="M497.794 231.582L537.815 254.723L536.235 255.639L496.201 232.497L497.794 231.582Z" fill="#24126A"/>
<path d="M502.007 229.14L540.06 251.13L538.467 252.059L500.427 230.056L502.007 229.14Z" fill="#24126A"/>
<path d="M542.887 252.781L546.449 254.834L544.869 255.75L541.307 253.697L542.887 252.781Z" fill="#24126A"/>
<path d="M539.755 255.847L542.236 257.276L540.642 258.192L538.176 256.749L539.755 255.847Z" fill="#24126A"/>
<path d="M504.654 227.614L549.095 253.308L547.502 254.224L503.06 228.529L504.654 227.614Z" fill="#24126A"/>
<path d="M507.287 226.088L551.728 251.782L550.149 252.698L505.707 227.003L507.287 226.088Z" fill="#24126A"/>
<path d="M509.934 224.562L554.375 250.256L552.796 251.171L508.354 225.477L509.934 224.562Z" fill="#24126A"/>
</g>
</g>
<path d="M527.159 196.189L530.388 198.049V195.884L527.159 194.025V196.189Z" fill="#42E8E0"/>
<path d="M527.159 210.826L530.388 212.699V200.019L527.159 198.16V210.826Z" fill="#42E8E0"/>
<path d="M527.159 217.833L530.388 219.692V214.669L527.159 212.796V217.833Z" fill="#42E8E0"/>
<path d="M527.159 225.089L530.388 226.948V221.925L527.159 220.066V225.089Z" fill="#42E8E0"/>
<path d="M522.35 200.407L525.565 202.266V197.244L522.35 195.371V200.407Z" fill="#42E8E0"/>
<path d="M522.35 210.022L525.565 211.881V204.5L522.35 202.641V210.022Z" fill="#42E8E0"/>
<path d="M522.35 218.873L525.565 220.732V214.406L522.35 212.533V218.873Z" fill="#42E8E0"/>
<path d="M527.159 232.345L530.388 234.218V229.181L527.159 227.322V232.345Z" fill="#42E8E0"/>
<path d="M522.35 193.401L525.565 195.274V193.11L522.35 191.237V193.401Z" fill="#42E8E0"/>
<path d="M524.748 237.991L530.388 241.252V239.157L524.748 235.896V237.991Z" fill="#42E8E0"/>
<path d="M563.023 122.853C563.065 122.056 563.295 121.281 563.695 120.591C564.095 119.901 564.653 119.316 565.323 118.885C565.554 118.715 565.826 118.61 566.111 118.58C566.396 118.551 566.684 118.599 566.944 118.718L568.579 119.675H567.568C567.583 119.842 567.583 120.009 567.568 120.175C567.525 120.972 567.296 121.747 566.898 122.439C566.501 123.13 565.947 123.719 565.281 124.157C565.123 124.248 564.956 124.322 564.782 124.379L565.254 125.253L563.66 124.323C563.435 124.155 563.257 123.931 563.145 123.673C563.033 123.415 562.991 123.132 563.023 122.853Z" fill="url(#paint31_linear_115_2)"/>
<path d="M564.699 123.865C564.699 125.336 565.725 125.933 567 125.253C567.666 124.815 568.22 124.226 568.617 123.535C569.014 122.843 569.243 122.068 569.286 121.271C569.286 119.884 568.261 119.218 567 119.953C566.337 120.379 565.784 120.955 565.384 121.635C564.985 122.314 564.75 123.078 564.699 123.865Z" fill="url(#paint32_linear_115_2)"/>
<path d="M565.642 123.31C565.642 124.143 566.224 124.49 567.027 124.073C567.424 123.83 567.756 123.495 567.997 123.097C568.238 122.699 568.381 122.249 568.413 121.784C568.413 120.938 567.831 120.591 567.027 121.021C566.629 121.262 566.295 121.597 566.053 121.995C565.812 122.394 565.671 122.845 565.642 123.31Z" fill="#3F21D3"/>
<path d="M676.489 57.6456C676.533 56.8492 676.763 56.0743 677.16 55.3828C677.557 54.6913 678.11 54.1026 678.776 53.6638C679.01 53.4949 679.285 53.3917 679.572 53.3649C679.86 53.3381 680.149 53.3886 680.411 53.5112L682.032 54.4685H681.034C681.049 54.6347 681.049 54.8018 681.034 54.968C681.01 55.777 680.792 56.5682 680.399 57.2755C680.006 57.9828 679.449 58.5855 678.776 59.033C678.621 59.1214 678.459 59.1957 678.291 59.255L678.762 60.129L677.168 59.1995C676.925 59.0262 676.734 58.7902 676.614 58.5165C676.495 58.2429 676.451 57.9419 676.489 57.6456Z" fill="url(#paint33_linear_115_2)"/>
<path d="M678.124 58.6585C678.124 60.1291 679.15 60.7257 680.411 60.0459C681.081 59.6111 681.639 59.0236 682.039 58.3316C682.438 57.6395 682.669 56.8625 682.711 56.0641C682.711 54.5935 681.686 54.0108 680.411 54.6767C679.746 55.1155 679.192 55.7042 678.795 56.3957C678.398 57.0871 678.168 57.8621 678.124 58.6585Z" fill="url(#paint34_linear_115_2)"/>
<path d="M679.094 58.1035C679.094 58.9359 679.69 59.2828 680.48 58.8666C680.875 58.6219 681.207 58.2869 681.448 57.889C681.689 57.491 681.832 57.0415 681.866 56.5774C681.866 55.7311 681.27 55.3842 680.48 55.8143C680.084 56.0581 679.751 56.3929 679.51 56.7911C679.269 57.1892 679.127 57.6391 679.094 58.1035Z" fill="#3F21D3"/>
<path d="M563.023 343.751C563.065 342.955 563.295 342.18 563.695 341.49C564.095 340.8 564.653 340.215 565.323 339.783C565.554 339.613 565.826 339.508 566.111 339.479C566.396 339.45 566.684 339.497 566.944 339.617L568.58 340.574C568.319 340.455 568.031 340.407 567.746 340.436C567.461 340.466 567.189 340.571 566.958 340.741C566.288 341.172 565.73 341.757 565.331 342.447C564.931 343.137 564.7 343.912 564.658 344.709C564.643 344.974 564.694 345.239 564.805 345.481C564.916 345.723 565.084 345.934 565.295 346.096L563.702 345.166C563.477 345.008 563.297 344.795 563.178 344.547C563.059 344.3 563.006 344.026 563.023 343.751Z" fill="url(#paint35_linear_115_2)"/>
<path d="M565.323 345.083C565.486 344.982 565.644 344.87 565.794 344.75C566.002 345.125 566.445 345.208 566.958 344.917C567.354 344.673 567.687 344.338 567.928 343.94C568.169 343.542 568.311 343.092 568.344 342.627C568.344 342.031 568.053 341.698 567.637 341.684C567.651 341.49 567.651 341.295 567.637 341.101C567.652 340.935 567.652 340.768 567.637 340.602H568.649C568.882 340.767 569.067 340.992 569.185 341.253C569.302 341.514 569.346 341.802 569.314 342.086C569.271 342.883 569.042 343.658 568.645 344.35C568.247 345.042 567.693 345.63 567.027 346.068C566.789 346.241 566.507 346.344 566.214 346.366C565.92 346.388 565.626 346.328 565.364 346.193L564.893 345.333C565.044 345.263 565.188 345.18 565.323 345.083Z" fill="url(#paint36_linear_115_2)"/>
<path d="M564.699 344.709C564.742 343.912 564.972 343.137 565.372 342.447C565.772 341.757 566.33 341.172 567 340.741C567.231 340.571 567.503 340.466 567.788 340.437C568.073 340.407 568.361 340.455 568.621 340.574H567.609C567.624 340.74 567.624 340.908 567.609 341.074C567.623 341.268 567.623 341.462 567.609 341.656C567.394 341.663 567.184 341.725 567 341.837C566.601 342.078 566.267 342.412 566.026 342.811C565.784 343.209 565.643 343.661 565.614 344.126C565.606 344.335 565.659 344.543 565.766 344.723C565.616 344.843 565.459 344.954 565.295 345.055C565.137 345.147 564.97 345.221 564.796 345.277L565.267 346.138C565.063 345.964 564.904 345.743 564.805 345.494C564.706 345.245 564.67 344.975 564.699 344.709Z" fill="url(#paint37_linear_115_2)"/>
<path d="M564.699 344.709C564.742 343.912 564.972 343.137 565.372 342.447C565.772 341.757 566.33 341.172 567 340.741C567.231 340.571 567.503 340.466 567.788 340.437C568.073 340.407 568.361 340.455 568.621 340.574H567.609C567.624 340.74 567.624 340.908 567.609 341.074C567.623 341.268 567.623 341.462 567.609 341.656C567.394 341.663 567.184 341.725 567 341.837C566.601 342.078 566.267 342.412 566.026 342.811C565.784 343.209 565.643 343.661 565.614 344.126C565.606 344.335 565.659 344.543 565.766 344.723C565.616 344.843 565.459 344.954 565.295 345.055C565.137 345.147 564.97 345.221 564.796 345.277L565.267 346.138C565.063 345.964 564.904 345.743 564.805 345.494C564.706 345.245 564.67 344.975 564.699 344.709Z" fill="url(#paint38_linear_115_2)"/>
<path d="M568.275 342.627C568.242 343.092 568.099 343.542 567.858 343.94C567.617 344.338 567.285 344.673 566.889 344.917C566.376 345.208 565.933 345.125 565.725 344.75C566.648 343.961 567.274 342.879 567.499 341.684C567.984 341.698 568.275 342.059 568.275 342.627Z" fill="#3F21D3"/>
<path d="M565.794 344.75C565.687 344.57 565.634 344.363 565.642 344.154C565.671 343.688 565.812 343.237 566.053 342.838C566.295 342.44 566.629 342.106 567.027 341.864C567.212 341.753 567.422 341.691 567.637 341.684C567.394 342.888 566.743 343.971 565.794 344.75Z" fill="#3F21D3"/>
<path d="M678.775 274.563C679.01 274.394 679.285 274.291 679.572 274.264C679.86 274.237 680.149 274.287 680.411 274.41L682.032 275.367C681.772 275.249 681.485 275.2 681.201 275.227C680.917 275.254 680.644 275.355 680.411 275.52C679.745 275.959 679.192 276.547 678.795 277.239C678.398 277.93 678.168 278.705 678.124 279.502C678.096 279.778 678.139 280.056 678.248 280.311C678.357 280.565 678.529 280.788 678.748 280.958L677.154 280.029C676.92 279.86 676.734 279.633 676.615 279.37C676.496 279.108 676.448 278.818 676.475 278.531C676.523 277.735 676.756 276.962 677.155 276.273C677.554 275.584 678.109 274.999 678.775 274.563Z" fill="url(#paint39_linear_115_2)"/>
<path d="M678.775 279.876C678.941 279.778 679.099 279.667 679.247 279.543C679.468 279.918 679.898 280.001 680.411 279.71C680.806 279.465 681.138 279.13 681.379 278.732C681.62 278.334 681.763 277.885 681.796 277.421C681.796 276.824 681.505 276.491 681.076 276.477C681.089 276.283 681.089 276.088 681.076 275.894C681.091 275.728 681.091 275.561 681.076 275.395H682.074C682.309 275.559 682.496 275.784 682.615 276.045C682.734 276.306 682.782 276.594 682.753 276.88C682.71 277.678 682.48 278.455 682.08 279.147C681.68 279.839 681.122 280.427 680.452 280.861C680.214 281.034 679.932 281.137 679.638 281.159C679.345 281.181 679.051 281.121 678.789 280.986L678.332 280.126C678.487 280.056 678.635 279.972 678.775 279.876Z" fill="url(#paint40_linear_115_2)"/>
<path d="M678.124 279.502C678.16 278.696 678.385 277.91 678.783 277.208C679.18 276.506 679.738 275.909 680.411 275.464C680.644 275.299 680.917 275.198 681.201 275.172C681.486 275.145 681.772 275.193 682.032 275.312H681.034C681.049 275.478 681.049 275.645 681.034 275.811C681.048 276.005 681.048 276.2 681.034 276.394C680.818 276.394 680.606 276.457 680.425 276.574C680.028 276.818 679.696 277.153 679.455 277.551C679.214 277.949 679.071 278.399 679.039 278.863C679.031 279.073 679.084 279.28 679.191 279.46C679.043 279.583 678.886 279.695 678.72 279.793C678.565 279.881 678.403 279.956 678.235 280.015L678.692 280.875C678.496 280.707 678.342 280.495 678.244 280.257C678.145 280.018 678.104 279.759 678.124 279.502Z" fill="url(#paint41_linear_115_2)"/>
<path d="M678.124 279.502C678.16 278.696 678.385 277.91 678.783 277.208C679.18 276.506 679.738 275.909 680.411 275.464C680.644 275.299 680.917 275.198 681.201 275.172C681.486 275.145 681.772 275.193 682.032 275.312H681.034C681.049 275.478 681.049 275.645 681.034 275.811C681.048 276.005 681.048 276.2 681.034 276.394C680.818 276.394 680.606 276.457 680.425 276.574C680.028 276.818 679.696 277.153 679.455 277.551C679.214 277.949 679.071 278.399 679.039 278.863C679.031 279.073 679.084 279.28 679.191 279.46C679.043 279.583 678.886 279.695 678.72 279.793C678.565 279.881 678.403 279.956 678.235 280.015L678.692 280.875C678.496 280.707 678.342 280.495 678.244 280.257C678.145 280.018 678.104 279.759 678.124 279.502Z" fill="url(#paint42_linear_115_2)"/>
<path d="M681.741 277.421C681.708 277.885 681.564 278.334 681.324 278.732C681.083 279.13 680.751 279.465 680.355 279.71C679.843 280.001 679.413 279.918 679.191 279.543C680.115 278.754 680.741 277.672 680.965 276.477C681.45 276.491 681.741 276.852 681.741 277.421Z" fill="#3F21D3"/>
<path d="M679.247 279.543C679.139 279.363 679.086 279.156 679.094 278.947C679.127 278.482 679.27 278.032 679.511 277.634C679.752 277.236 680.084 276.901 680.48 276.658C680.662 276.54 680.873 276.477 681.09 276.477C680.847 277.681 680.196 278.765 679.247 279.543Z" fill="#3F21D3"/>
<g style="mix-blend-mode:lighten">
<path d="M444.941 437.788L371.496 395.32L444.941 352.853L518.387 395.32L444.941 437.788ZM373.561 395.334L444.941 436.595L516.322 395.334L444.941 354.073L373.561 395.334Z" fill="#1A1AEA"/>
</g>
<path d="M512.83 379.546V365.824L444.941 403.339L377.039 365.824V379.546L444.941 418.795L512.83 379.546Z" fill="url(#paint43_linear_115_2)"/>
<path d="M444.941 405.073L377.039 365.824L444.941 326.575L512.83 365.824L444.941 405.073Z" fill="url(#paint44_linear_115_2)"/>
<path opacity="0.5" d="M444.941 403.936L378.023 365.256L377.039 365.824L444.941 405.073L512.83 365.824L511.86 365.256L444.941 403.936Z" fill="white"/>
<path d="M444.941 390.09L402.967 365.824L444.941 341.559L486.916 365.824L444.941 390.09Z" fill="#0F054C"/>
<path opacity="0.5" d="M444.941 390.09L402.967 365.824L444.941 341.559L486.916 365.824L444.941 390.09Z" fill="url(#paint45_linear_115_2)"/>
<path opacity="0.5" d="M444.941 307.624L486.916 331.889V365.825L444.941 341.559V307.624Z" fill="url(#paint46_linear_115_2)"/>
<path opacity="0.5" d="M444.941 341.559L402.967 365.825V331.889L444.941 307.624V341.559Z" fill="url(#paint47_linear_115_2)"/>
<path opacity="0.5" d="M444.941 356.141L402.967 331.889L444.941 307.624L486.916 331.889L444.941 356.141Z" fill="url(#paint48_linear_115_2)"/>
<path opacity="0.5" d="M444.941 356.141V390.09L486.916 365.824V331.889L444.941 356.141Z" fill="url(#paint49_linear_115_2)"/>
<path opacity="0.5" d="M402.967 331.889V365.824L444.941 390.09V356.141L402.967 331.889Z" fill="url(#paint50_linear_115_2)"/>
<g style="mix-blend-mode:lighten">
<path d="M780.879 480.589L707.433 438.121L780.879 395.667L854.324 438.135L780.879 480.589ZM709.498 438.121L780.879 479.409L852.26 438.162L780.879 396.874L709.498 438.121Z" fill="#3BC9D0"/>
</g>
<path d="M848.726 422.333V408.625L780.837 446.126L712.935 408.611V422.333L780.837 461.582L848.726 422.333Z" fill="url(#paint51_linear_115_2)"/>
<path d="M780.837 447.86L712.935 408.611L780.837 369.376L848.726 408.625L780.837 447.86Z" fill="url(#paint52_linear_115_2)"/>
<path opacity="0.5" d="M780.837 446.737L713.919 408.056L712.935 408.625L780.837 447.86L848.726 408.625L847.756 408.056L780.837 446.737Z" fill="white"/>
<path d="M780.837 432.877L738.862 408.625L780.837 384.36L822.812 408.625L780.837 432.877Z" fill="#0F054C"/>
<path opacity="0.5" d="M780.837 432.877L738.862 408.625L780.837 384.36L822.812 408.625L780.837 432.877Z" fill="url(#paint53_linear_115_2)"/>
<path opacity="0.5" d="M780.837 350.411L822.812 374.676V408.625L780.837 384.36V350.411Z" fill="url(#paint54_linear_115_2)"/>
<path opacity="0.5" d="M780.837 384.36L738.862 408.625V374.676L780.837 350.411V384.36Z" fill="url(#paint55_linear_115_2)"/>
<path opacity="0.5" d="M780.837 398.941L738.862 374.676L780.837 350.411L822.812 374.676L780.837 398.941Z" fill="url(#paint56_linear_115_2)"/>
<path opacity="0.5" d="M780.837 398.941V432.877L822.812 408.625V374.676L780.837 398.941Z" fill="url(#paint57_linear_115_2)"/>
<path opacity="0.5" d="M738.862 374.676V408.625L780.837 432.877V398.941L738.862 374.676Z" fill="url(#paint58_linear_115_2)"/>
<g style="mix-blend-mode:lighten">
<path d="M875.527 262.978L802.081 220.51L875.527 178.056L948.972 220.51L875.527 262.978ZM804.146 220.51L875.527 261.771L946.908 220.51L875.527 179.263L804.146 220.51Z" fill="#3BC9D0"/>
</g>
<path d="M943.429 204.666V190.959L875.527 228.46L807.624 190.945V204.666L875.527 243.915L943.429 204.666Z" fill="url(#paint59_linear_115_2)"/>
<path d="M875.527 230.194L807.624 190.945L875.527 151.71L943.429 190.959L875.527 230.194Z" fill="url(#paint60_linear_115_2)"/>
<path opacity="0.5" d="M875.527 229.07L808.608 190.39L807.624 190.945L875.527 230.194L943.429 190.959L942.445 190.39L875.527 229.07Z" fill="white"/>
<path d="M875.527 215.211L833.552 190.945L875.527 166.694L917.501 190.945L875.527 215.211Z" fill="#0F054C"/>
<path opacity="0.5" d="M875.527 215.211L833.552 190.945L875.527 166.694L917.501 190.959L875.527 215.211Z" fill="url(#paint61_linear_115_2)"/>
<path opacity="0.5" d="M875.527 132.745L917.501 157.01V190.959L875.527 166.694V132.745Z" fill="url(#paint62_linear_115_2)"/>
<path opacity="0.5" d="M875.527 166.694L833.552 190.945V157.01L875.527 132.745V166.694Z" fill="url(#paint63_linear_115_2)"/>
<path opacity="0.5" d="M875.527 181.275L833.552 157.01L875.527 132.745L917.501 157.01L875.527 181.275Z" fill="url(#paint64_linear_115_2)"/>
<path opacity="0.5" d="M875.527 181.275V215.21L917.501 190.959V157.01L875.527 181.275Z" fill="url(#paint65_linear_115_2)"/>
<path opacity="0.5" d="M833.552 157.01V190.945L875.527 215.21V181.275L833.552 157.01Z" fill="url(#paint66_linear_115_2)"/>
<g style="mix-blend-mode:lighten">
<path d="M652.474 511L652.224 510.861C627.281 496.405 488.468 413.62 487.221 413.079L487.526 412.163C488.344 412.399 639.752 502.495 652.432 509.89L732.807 461.512L733.292 462.358L652.474 511Z" fill="#1A1AEA"/>
</g>
<path d="M629.595 208.135L639.281 202.544V200.407L629.595 206.012V208.135Z" fill="#42E8E0"/>
<path opacity="0.3" d="M624.634 211.007L628.112 208.995V206.858L624.634 208.884V211.007Z" fill="#42E8E0"/>
<path d="M620.781 213.227L623.151 211.867V209.73L620.781 211.104V213.227Z" fill="#42E8E0"/>
<path d="M634.001 210.452L639.281 207.4V205.277L634.001 208.329V210.452Z" fill="#42E8E0"/>
<path d="M626.061 215.044L632.519 211.312V209.175L626.061 212.921V215.044Z" fill="#42E8E0"/>
<path d="M622.208 217.278L624.578 215.904V213.768L622.208 215.141V217.278Z" fill="#42E8E0"/>
<path d="M618.536 219.386L620.906 218.027V215.89L618.536 217.264V219.386Z" fill="#42E8E0"/>
<path d="M635.47 214.475L639.281 212.269V210.133L635.47 212.352V214.475Z" fill="#42E8E0"/>
<path d="M632.685 216.084L633.988 215.335V213.199L632.685 213.962V216.084Z" fill="#42E8E0"/>
<path d="M628.833 218.304L631.202 216.945V214.808L628.833 216.182V218.304Z" fill="#42E8E0"/>
<path opacity="0.3" d="M625.188 225.283L639.281 217.125V215.002L625.188 223.146V225.283Z" fill="#42E8E0"/>
<path d="M620.213 228.155L623.705 226.143V224.006L620.213 226.018V228.155Z" fill="#42E8E0"/>
<path d="M635.47 224.201L639.281 221.995V219.872L635.47 222.078V224.201Z" fill="#42E8E0"/>
<path d="M626.504 229.39L633.988 225.061V222.938L626.504 227.253V229.39Z" fill="#42E8E0"/>
<path d="M622.652 231.609L625.022 230.236V228.113L622.652 229.487V231.609Z" fill="#42E8E0"/>
<path opacity="0.3" d="M631.466 231.373L639.281 226.864V224.728L631.466 229.251V231.373Z" fill="#42E8E0"/>
<path opacity="0.3" d="M624.343 235.508L629.997 232.234V230.111L624.343 233.371V235.508Z" fill="#42E8E0"/>
<path d="M619.035 238.56L622.86 236.354V234.231L619.035 236.437V238.56Z" fill="#42E8E0"/>
<path d="M636.648 233.26L639.281 231.734V229.598L636.648 231.124V233.26Z" fill="#42E8E0"/>
<path d="M631.673 236.118L635.165 234.107V231.984L631.673 233.996V236.118Z" fill="#42E8E0"/>
<path d="M624.578 240.225L630.191 236.978V234.856L624.578 238.102V240.225Z" fill="#42E8E0"/>
<path d="M631.202 241.265L639.281 236.59V234.467L631.202 239.143V241.265Z" fill="#42E8E0"/>
<path opacity="0.3" d="M622.139 246.496L629.72 242.126V239.989L622.139 244.373V246.496Z" fill="#42E8E0"/>
<path d="M618.301 248.73L620.67 247.356V245.219L618.301 246.593V248.73Z" fill="#42E8E0"/>
<path d="M614.601 250.866L616.97 249.493V247.356L614.601 248.73V250.866Z" fill="#42E8E0"/>
<path d="M634.445 244.262L639.281 241.46V239.323L634.445 242.126V244.262Z" fill="#42E8E0"/>
<path d="M614.185 217.042L607.464 220.927V218.804L614.185 214.919V217.042Z" fill="#42E8E0"/>
<path opacity="0.3" d="M612.744 222.744L607.464 225.796V223.66L612.744 220.607V222.744Z" fill="#42E8E0"/>
<path d="M611.289 228.446L607.464 230.652V228.529L611.289 226.323V228.446Z" fill="#42E8E0"/>
<path d="M613.021 232.317L607.464 235.522V233.399L613.021 230.18V232.317Z" fill="#42E8E0"/>
<path d="M611.289 238.186L607.464 240.391V238.255L611.289 236.049V238.186Z" fill="#42E8E0"/>
<path d="M612.314 242.459L607.464 245.247V243.125L612.314 240.322V242.459Z" fill="#42E8E0"/>
<path d="M610.111 248.591L607.464 250.117V247.994L610.111 246.468V248.591Z" fill="#42E8E0"/>
<path d="M612.578 252.032L607.464 254.987V252.85L612.578 249.895V252.032Z" fill="#42E8E0"/>
<path d="M612.314 257.054L607.464 259.842V257.72L612.314 254.917V257.054Z" fill="#42E8E0"/>
<path d="M630.897 246.302L632.962 245.109V242.986L630.897 244.179V246.302Z" fill="#42E8E0"/>
<path opacity="0.3" d="M624.786 249.839L629.415 247.162V245.025L624.786 247.703V249.839Z" fill="#42E8E0"/>
<path d="M620.948 266.211L628.777 261.688V259.551L620.948 264.074V266.211Z" fill="#42E8E0"/>
<path d="M615.585 269.305L618.675 267.515V265.392L615.585 267.168V269.305Z" fill="#42E8E0"/>
<path d="M595.782 293.875C595.505 293.877 595.232 293.805 594.992 293.667C594.681 293.452 594.432 293.16 594.269 292.819C594.107 292.479 594.036 292.101 594.064 291.724V213.462C594.075 212.733 594.26 212.017 594.602 211.373C594.944 210.729 595.434 210.175 596.031 209.758L650.076 178.528C650.338 178.353 650.643 178.252 650.958 178.237C651.274 178.223 651.587 178.295 651.864 178.445C652.177 178.657 652.427 178.949 652.59 179.29C652.754 179.632 652.823 180.01 652.792 180.387V258.649C652.779 259.376 652.593 260.09 652.251 260.731C651.909 261.373 651.42 261.924 650.825 262.34L596.78 293.584C596.476 293.76 596.133 293.86 595.782 293.875ZM651.074 179.735C650.984 179.748 650.899 179.781 650.825 179.832L596.78 211.062C596.413 211.347 596.114 211.711 595.906 212.126C595.697 212.541 595.584 212.998 595.574 213.462V291.724C595.574 292.155 595.699 292.335 595.74 292.363C595.844 292.369 595.947 292.339 596.031 292.279L650.076 261.036C650.443 260.754 650.742 260.393 650.951 259.98C651.16 259.567 651.273 259.112 651.282 258.649V180.387C651.282 179.943 651.157 179.763 651.116 179.749L651.074 179.735Z" fill="#42E8E0"/>
<path opacity="0.8" d="M444.941 354.989L403.964 331.307L402.967 331.889L444.941 356.141L486.916 331.889L485.918 331.307L444.941 354.989Z" fill="#42E8E0"/>
<path d="M607.131 138.197V174.935L598.47 180.054V165.861L590.239 170.773V184.924L581.578 189.988V153.916L590.239 148.63V161.699L598.47 156.732V143.58L607.131 138.197Z" fill="#42E8E0"/>
<path d="M619.506 130.525V151.405C619.376 152.649 619.669 153.9 620.338 154.957C620.892 155.609 621.807 155.567 623.109 154.804C624.34 154.059 625.309 152.948 625.881 151.627C626.494 150.165 626.796 148.592 626.768 147.007V126.016L635.401 120.605V141.707C635.419 145.151 634.862 148.575 633.752 151.835C632.739 154.864 631.226 157.701 629.276 160.229C627.522 162.506 625.366 164.443 622.915 165.945C621.089 167.202 618.909 167.844 616.693 167.776C615.782 167.68 614.912 167.348 614.168 166.813C613.425 166.278 612.833 165.558 612.453 164.724C611.297 162.191 610.774 159.415 610.928 156.635V135.825L619.506 130.525Z" fill="#42E8E0"/>
<path d="M661.453 125.905C662.484 127.33 662.975 129.076 662.839 130.83C662.873 134.064 662.046 137.249 660.442 140.056C658.763 142.924 656.377 145.312 653.513 146.993L639.046 155.803V118.246L653.125 109.298C655.897 107.508 658.141 106.939 659.763 107.591C661.384 108.243 662.174 110.2 662.174 113.432C662.181 115.636 661.752 117.819 660.913 119.856C660.148 121.792 658.997 123.553 657.532 125.031C658.192 124.733 658.931 124.657 659.638 124.815C660.345 124.972 660.982 125.355 661.453 125.905ZM647.748 127.486L651.102 125.378C651.815 124.96 652.411 124.368 652.834 123.657C653.224 122.939 653.42 122.13 653.402 121.313C653.402 120.383 653.208 119.814 652.834 119.606C652.46 119.398 651.878 119.606 651.102 120.036L647.748 122.145V127.486ZM653.416 136.921C653.819 136.202 654.016 135.386 653.984 134.562C653.984 132.745 653.222 132.301 651.684 133.258L647.748 135.7V141.041L651.684 138.613C652.382 138.198 652.968 137.616 653.388 136.921H653.416Z" fill="#42E8E0"/>
</g>
<rect x="974.5" y="356.5" width="186" height="50" rx="25" stroke="#3BC8D0"/>
<path d="M1034.19 381.664C1034.19 380.416 1034.46 379.306 1035 378.334C1035.54 377.35 1036.29 376.588 1037.25 376.048C1038.23 375.496 1039.32 375.22 1040.55 375.22C1042.05 375.22 1043.33 375.616 1044.4 376.408C1045.47 377.2 1046.18 378.28 1046.54 379.648H1043.16C1042.91 379.12 1042.55 378.718 1042.08 378.442C1041.62 378.166 1041.1 378.028 1040.51 378.028C1039.56 378.028 1038.8 378.358 1038.21 379.018C1037.62 379.678 1037.33 380.56 1037.33 381.664C1037.33 382.768 1037.62 383.65 1038.21 384.31C1038.8 384.97 1039.56 385.3 1040.51 385.3C1041.1 385.3 1041.62 385.162 1042.08 384.886C1042.55 384.61 1042.91 384.208 1043.16 383.68H1046.54C1046.18 385.048 1045.47 386.128 1044.4 386.92C1043.33 387.7 1042.05 388.09 1040.55 388.09C1039.32 388.09 1038.23 387.82 1037.25 387.28C1036.29 386.728 1035.54 385.966 1035 384.994C1034.46 384.022 1034.19 382.912 1034.19 381.664ZM1051.5 379.63C1051.86 379.078 1052.31 378.646 1052.85 378.334C1053.39 378.01 1053.99 377.848 1054.65 377.848V381.106H1053.81C1053.04 381.106 1052.46 381.274 1052.08 381.61C1051.7 381.934 1051.5 382.51 1051.5 383.338V388H1048.43V377.956H1051.5V379.63ZM1065.59 382.816C1065.59 383.104 1065.58 383.404 1065.54 383.716H1058.57C1058.62 384.34 1058.82 384.82 1059.17 385.156C1059.53 385.48 1059.97 385.642 1060.48 385.642C1061.25 385.642 1061.78 385.318 1062.08 384.67H1065.36C1065.19 385.33 1064.89 385.924 1064.44 386.452C1064.01 386.98 1063.46 387.394 1062.8 387.694C1062.14 387.994 1061.41 388.144 1060.59 388.144C1059.61 388.144 1058.73 387.934 1057.96 387.514C1057.19 387.094 1056.59 386.494 1056.16 385.714C1055.73 384.934 1055.51 384.022 1055.51 382.978C1055.51 381.934 1055.72 381.022 1056.14 380.242C1056.58 379.462 1057.18 378.862 1057.94 378.442C1058.71 378.022 1059.59 377.812 1060.59 377.812C1061.56 377.812 1062.43 378.016 1063.18 378.424C1063.94 378.832 1064.53 379.414 1064.95 380.17C1065.38 380.926 1065.59 381.808 1065.59 382.816ZM1062.44 382.006C1062.44 381.478 1062.26 381.058 1061.9 380.746C1061.54 380.434 1061.09 380.278 1060.55 380.278C1060.04 380.278 1059.6 380.428 1059.24 380.728C1058.89 381.028 1058.68 381.454 1058.59 382.006H1062.44ZM1062.66 375.382L1058.32 377.2V375.076L1062.66 372.988V375.382ZM1066.61 382.96C1066.61 381.928 1066.8 381.022 1067.18 380.242C1067.58 379.462 1068.11 378.862 1068.78 378.442C1069.46 378.022 1070.21 377.812 1071.03 377.812C1071.69 377.812 1072.29 377.95 1072.83 378.226C1073.39 378.502 1073.82 378.874 1074.13 379.342V374.68H1077.21V388H1074.13V386.56C1073.84 387.04 1073.43 387.424 1072.89 387.712C1072.36 388 1071.74 388.144 1071.03 388.144C1070.21 388.144 1069.46 387.934 1068.78 387.514C1068.11 387.082 1067.58 386.476 1067.18 385.696C1066.8 384.904 1066.61 383.992 1066.61 382.96ZM1074.13 382.978C1074.13 382.21 1073.91 381.604 1073.48 381.16C1073.06 380.716 1072.55 380.494 1071.93 380.494C1071.32 380.494 1070.8 380.716 1070.37 381.16C1069.95 381.592 1069.74 382.192 1069.74 382.96C1069.74 383.728 1069.95 384.34 1070.37 384.796C1070.8 385.24 1071.32 385.462 1071.93 385.462C1072.55 385.462 1073.06 385.24 1073.48 384.796C1073.91 384.352 1074.13 383.746 1074.13 382.978ZM1080.98 376.912C1080.44 376.912 1080 376.756 1079.65 376.444C1079.31 376.12 1079.15 375.724 1079.15 375.256C1079.15 374.776 1079.31 374.38 1079.65 374.068C1080 373.744 1080.44 373.582 1080.98 373.582C1081.51 373.582 1081.94 373.744 1082.28 374.068C1082.63 374.38 1082.8 374.776 1082.8 375.256C1082.8 375.724 1082.63 376.12 1082.28 376.444C1081.94 376.756 1081.51 376.912 1080.98 376.912ZM1082.51 377.956V388H1079.43V377.956H1082.51ZM1090.34 385.39V388H1088.77C1087.66 388 1086.79 387.73 1086.16 387.19C1085.54 386.638 1085.23 385.744 1085.23 384.508V380.512H1084V377.956H1085.23V375.508H1088.31V377.956H1090.32V380.512H1088.31V384.544C1088.31 384.844 1088.38 385.06 1088.52 385.192C1088.67 385.324 1088.91 385.39 1089.24 385.39H1090.34ZM1096.63 388.144C1095.64 388.144 1094.76 387.934 1093.96 387.514C1093.18 387.094 1092.57 386.494 1092.11 385.714C1091.67 384.934 1091.44 384.022 1091.44 382.978C1091.44 381.946 1091.67 381.04 1092.13 380.26C1092.58 379.468 1093.21 378.862 1094 378.442C1094.79 378.022 1095.68 377.812 1096.66 377.812C1097.65 377.812 1098.54 378.022 1099.33 378.442C1100.12 378.862 1100.74 379.468 1101.2 380.26C1101.66 381.04 1101.88 381.946 1101.88 382.978C1101.88 384.01 1101.65 384.922 1101.18 385.714C1100.73 386.494 1100.1 387.094 1099.29 387.514C1098.5 387.934 1097.61 388.144 1096.63 388.144ZM1096.63 385.48C1097.22 385.48 1097.71 385.264 1098.12 384.832C1098.54 384.4 1098.75 383.782 1098.75 382.978C1098.75 382.174 1098.55 381.556 1098.14 381.124C1097.74 380.692 1097.25 380.476 1096.66 380.476C1096.06 380.476 1095.57 380.692 1095.17 381.124C1094.77 381.544 1094.58 382.162 1094.58 382.978C1094.58 383.782 1094.77 384.4 1095.15 384.832C1095.55 385.264 1096.04 385.48 1096.63 385.48Z" fill="#3BC8D0"/>
<path d="M846 382L962 382" stroke="#3BC8D0" stroke-width="2"/>
<circle cx="843" cy="382" r="5" fill="#3BC8D0"/>
<defs>
<linearGradient id="paint0_linear_115_2" x1="313.543" y1="187.921" x2="410.311" y2="187.921" gradientUnits="userSpaceOnUse">
<stop offset="0.25" stop-color="#5761D7"/>
<stop offset="0.44" stop-color="#6C74DF"/>
<stop offset="0.82" stop-color="#A2A6F5"/>
<stop offset="1" stop-color="#BCBEFF"/>
</linearGradient>
<linearGradient id="paint1_linear_115_2" x1="313.543" y1="161.436" x2="449.348" y2="161.436" gradientUnits="userSpaceOnUse">
<stop stop-color="#C0BFF6"/>
<stop offset="0.29" stop-color="#C5C4F7"/>
<stop offset="0.64" stop-color="#D3D2F9"/>
<stop offset="1" stop-color="#E9E9FD"/>
</linearGradient>
<linearGradient id="paint2_linear_115_2" x1="339.471" y1="161.449" x2="423.42" y2="161.449" gradientUnits="userSpaceOnUse">
<stop stop-color="#42E8E0"/>
<stop offset="0.15" stop-color="#43E3E0"/>
<stop offset="0.33" stop-color="#45D5DF"/>
<stop offset="0.52" stop-color="#49BDDD"/>
<stop offset="0.72" stop-color="#4E9CDB"/>
<stop offset="0.93" stop-color="#5472D8"/>
<stop offset="1" stop-color="#5761D7"/>
</linearGradient>
<linearGradient id="paint3_linear_115_2" x1="381.446" y1="132.342" x2="423.42" y2="132.342" gradientUnits="userSpaceOnUse">
<stop stop-color="#42E8E0"/>
<stop offset="0.15" stop-color="#43E3E0"/>
<stop offset="0.33" stop-color="#45D5DF"/>
<stop offset="0.52" stop-color="#49BDDD"/>
<stop offset="0.72" stop-color="#4E9CDB"/>
<stop offset="0.93" stop-color="#5472D8"/>
<stop offset="1" stop-color="#5761D7"/>
</linearGradient>
<linearGradient id="paint4_linear_115_2" x1="339.471" y1="132.342" x2="381.446" y2="132.342" gradientUnits="userSpaceOnUse">
<stop stop-color="#42E8E0"/>
<stop offset="0.15" stop-color="#43E3E0"/>
<stop offset="0.33" stop-color="#45D5DF"/>
<stop offset="0.52" stop-color="#49BDDD"/>
<stop offset="0.72" stop-color="#4E9CDB"/>
<stop offset="0.93" stop-color="#5472D8"/>
<stop offset="1" stop-color="#5761D7"/>
</linearGradient>
<linearGradient id="paint5_linear_115_2" x1="339.471" y1="127.5" x2="423.42" y2="127.5" gradientUnits="userSpaceOnUse">
<stop stop-color="#42E8E0"/>
<stop offset="0.15" stop-color="#43E3E0"/>
<stop offset="0.33" stop-color="#45D5DF"/>
<stop offset="0.52" stop-color="#49BDDD"/>
<stop offset="0.72" stop-color="#4E9CDB"/>
<stop offset="0.93" stop-color="#5472D8"/>
<stop offset="1" stop-color="#5761D7"/>
</linearGradient>
<linearGradient id="paint6_linear_115_2" x1="381.446" y1="156.607" x2="423.42" y2="156.607" gradientUnits="userSpaceOnUse">
<stop stop-color="#42E8E0"/>
<stop offset="0.15" stop-color="#43E3E0"/>
<stop offset="0.33" stop-color="#45D5DF"/>
<stop offset="0.52" stop-color="#49BDDD"/>
<stop offset="0.72" stop-color="#4E9CDB"/>
<stop offset="0.93" stop-color="#5472D8"/>
<stop offset="1" stop-color="#5761D7"/>
</linearGradient>
<linearGradient id="paint7_linear_115_2" x1="339.471" y1="156.607" x2="381.446" y2="156.607" gradientUnits="userSpaceOnUse">
<stop stop-color="#42E8E0"/>
<stop offset="0.15" stop-color="#43E3E0"/>
<stop offset="0.33" stop-color="#45D5DF"/>
<stop offset="0.52" stop-color="#49BDDD"/>
<stop offset="0.72" stop-color="#4E9CDB"/>
<stop offset="0.93" stop-color="#5472D8"/>
<stop offset="1" stop-color="#5761D7"/>
</linearGradient>
<linearGradient id="paint8_linear_115_2" x1="513.62" y1="359.47" x2="513.62" y2="76.1533" gradientUnits="userSpaceOnUse">
<stop stop-color="#C0BFF6"/>
<stop offset="0.29" stop-color="#C5C4F7"/>
<stop offset="0.64" stop-color="#D3D2F9"/>
<stop offset="1" stop-color="#E9E9FD"/>
</linearGradient>
<linearGradient id="paint9_linear_115_2" x1="665.93" y1="59.4354" x2="535.044" y2="59.4354" gradientUnits="userSpaceOnUse">
<stop stop-color="#E9E9FD"/>
<stop offset="0.04" stop-color="#D3D5F7"/>
<stop offset="0.11" stop-color="#B2B6EF"/>
<stop offset="0.18" stop-color="#969BE7"/>
<stop offset="0.27" stop-color="#7F86E1"/>
<stop offset="0.36" stop-color="#6D75DD"/>
<stop offset="0.48" stop-color="#606AD9"/>
<stop offset="0.64" stop-color="#5963D8"/>
<stop offset="1" stop-color="#5761D7"/>
</linearGradient>
<linearGradient id="paint10_linear_115_2" x1="671.708" y1="61.6552" x2="496.506" y2="61.6552" gradientUnits="userSpaceOnUse">
<stop stop-color="#5761D7"/>
<stop offset="0.18" stop-color="#5C66D9"/>
<stop offset="0.39" stop-color="#6A73DF"/>
<stop offset="0.61" stop-color="#8289E8"/>
<stop offset="0.85" stop-color="#A3A7F5"/>
<stop offset="1" stop-color="#BCBEFF"/>
</linearGradient>
<linearGradient id="paint11_linear_115_2" x1="555.401" y1="92.9684" x2="487.554" y2="92.9684" gradientUnits="userSpaceOnUse">
<stop stop-color="#C0BFF6"/>
<stop offset="0.29" stop-color="#C5C4F7"/>
<stop offset="0.64" stop-color="#D3D2F9"/>
<stop offset="1" stop-color="#E9E9FD"/>
</linearGradient>
<linearGradient id="paint12_linear_115_2" x1="671.708" y1="57.0629" x2="487.554" y2="57.0629" gradientUnits="userSpaceOnUse">
<stop stop-color="#C0BFF6"/>
<stop offset="0.29" stop-color="#C5C4F7"/>
<stop offset="0.64" stop-color="#D3D2F9"/>
<stop offset="1" stop-color="#E9E9FD"/>
</linearGradient>
<linearGradient id="paint13_linear_115_2" x1="631.341" y1="31.3548" x2="609.667" y2="31.3548" gradientUnits="userSpaceOnUse">
<stop stop-color="#5761D7"/>
<stop offset="0.18" stop-color="#5C66D9"/>
<stop offset="0.39" stop-color="#6A73DF"/>
<stop offset="0.61" stop-color="#8289E8"/>
<stop offset="0.85" stop-color="#A3A7F5"/>
<stop offset="1" stop-color="#BCBEFF"/>
</linearGradient>
<linearGradient id="paint14_linear_115_2" x1="625.715" y1="34.6012" x2="604.041" y2="34.6012" gradientUnits="userSpaceOnUse">
<stop stop-color="#5761D7"/>
<stop offset="0.18" stop-color="#5C66D9"/>
<stop offset="0.39" stop-color="#6A73DF"/>
<stop offset="0.61" stop-color="#8289E8"/>
<stop offset="0.85" stop-color="#A3A7F5"/>
<stop offset="1" stop-color="#BCBEFF"/>
</linearGradient>
<linearGradient id="paint15_linear_115_2" x1="620.088" y1="37.8478" x2="598.415" y2="37.8478" gradientUnits="userSpaceOnUse">
<stop stop-color="#5761D7"/>
<stop offset="0.18" stop-color="#5C66D9"/>
<stop offset="0.39" stop-color="#6A73DF"/>
<stop offset="0.61" stop-color="#8289E8"/>
<stop offset="0.85" stop-color="#A3A7F5"/>
<stop offset="1" stop-color="#BCBEFF"/>
</linearGradient>
<linearGradient id="paint16_linear_115_2" x1="614.462" y1="41.0803" x2="592.803" y2="41.0803" gradientUnits="userSpaceOnUse">
<stop stop-color="#5761D7"/>
<stop offset="0.18" stop-color="#5C66D9"/>
<stop offset="0.39" stop-color="#6A73DF"/>
<stop offset="0.61" stop-color="#8289E8"/>
<stop offset="0.85" stop-color="#A3A7F5"/>
<stop offset="1" stop-color="#BCBEFF"/>
</linearGradient>
<linearGradient id="paint17_linear_115_2" x1="598.013" y1="50.6532" x2="576.354" y2="50.6532" gradientUnits="userSpaceOnUse">
<stop stop-color="#5761D7"/>
<stop offset="0.18" stop-color="#5C66D9"/>
<stop offset="0.39" stop-color="#6A73DF"/>
<stop offset="0.61" stop-color="#8289E8"/>
<stop offset="0.85" stop-color="#A3A7F5"/>
<stop offset="1" stop-color="#BCBEFF"/>
</linearGradient>
<linearGradient id="paint18_linear_115_2" x1="592.387" y1="53.8859" x2="570.728" y2="53.8859" gradientUnits="userSpaceOnUse">
<stop stop-color="#5761D7"/>
<stop offset="0.18" stop-color="#5C66D9"/>
<stop offset="0.39" stop-color="#6A73DF"/>
<stop offset="0.61" stop-color="#8289E8"/>
<stop offset="0.85" stop-color="#A3A7F5"/>
<stop offset="1" stop-color="#BCBEFF"/>
</linearGradient>
<linearGradient id="paint19_linear_115_2" x1="586.774" y1="57.1323" x2="565.101" y2="57.1323" gradientUnits="userSpaceOnUse">
<stop stop-color="#5761D7"/>
<stop offset="0.18" stop-color="#5C66D9"/>
<stop offset="0.39" stop-color="#6A73DF"/>
<stop offset="0.61" stop-color="#8289E8"/>
<stop offset="0.85" stop-color="#A3A7F5"/>
<stop offset="1" stop-color="#BCBEFF"/>
</linearGradient>
<linearGradient id="paint20_linear_115_2" x1="581.148" y1="60.3788" x2="559.475" y2="60.3788" gradientUnits="userSpaceOnUse">
<stop stop-color="#5761D7"/>
<stop offset="0.18" stop-color="#5C66D9"/>
<stop offset="0.39" stop-color="#6A73DF"/>
<stop offset="0.61" stop-color="#8289E8"/>
<stop offset="0.85" stop-color="#A3A7F5"/>
<stop offset="1" stop-color="#BCBEFF"/>
</linearGradient>
<linearGradient id="paint21_linear_115_2" x1="564.699" y1="69.9379" x2="543.026" y2="69.9379" gradientUnits="userSpaceOnUse">
<stop stop-color="#5761D7"/>
<stop offset="0.18" stop-color="#5C66D9"/>
<stop offset="0.39" stop-color="#6A73DF"/>
<stop offset="0.61" stop-color="#8289E8"/>
<stop offset="0.85" stop-color="#A3A7F5"/>
<stop offset="1" stop-color="#BCBEFF"/>
</linearGradient>
<linearGradient id="paint22_linear_115_2" x1="559.073" y1="73.1844" x2="537.4" y2="73.1844" gradientUnits="userSpaceOnUse">
<stop stop-color="#5761D7"/>
<stop offset="0.18" stop-color="#5C66D9"/>
<stop offset="0.39" stop-color="#6A73DF"/>
<stop offset="0.61" stop-color="#8289E8"/>
<stop offset="0.85" stop-color="#A3A7F5"/>
<stop offset="1" stop-color="#BCBEFF"/>
</linearGradient>
<linearGradient id="paint23_linear_115_2" x1="553.447" y1="76.4169" x2="531.773" y2="76.4169" gradientUnits="userSpaceOnUse">
<stop stop-color="#5761D7"/>
<stop offset="0.18" stop-color="#5C66D9"/>
<stop offset="0.39" stop-color="#6A73DF"/>
<stop offset="0.61" stop-color="#8289E8"/>
<stop offset="0.85" stop-color="#A3A7F5"/>
<stop offset="1" stop-color="#BCBEFF"/>
</linearGradient>
<linearGradient id="paint24_linear_115_2" x1="547.821" y1="79.6634" x2="526.147" y2="79.6634" gradientUnits="userSpaceOnUse">
<stop stop-color="#5761D7"/>
<stop offset="0.18" stop-color="#5C66D9"/>
<stop offset="0.39" stop-color="#6A73DF"/>
<stop offset="0.61" stop-color="#8289E8"/>
<stop offset="0.85" stop-color="#A3A7F5"/>
<stop offset="1" stop-color="#BCBEFF"/>
</linearGradient>
<linearGradient id="paint25_linear_115_2" x1="485.711" y1="230" x2="531.645" y2="195.922" gradientUnits="userSpaceOnUse">
<stop stop-color="#5761D7"/>
<stop offset="0.18" stop-color="#5C66D9"/>
<stop offset="0.39" stop-color="#6A73DF"/>
<stop offset="0.61" stop-color="#8289E8"/>
<stop offset="0.85" stop-color="#A3A7F5"/>
<stop offset="1" stop-color="#BCBEFF"/>
</linearGradient>
<linearGradient id="paint26_linear_115_2" x1="541.862" y1="261.729" x2="450.291" y2="261.729" gradientUnits="userSpaceOnUse">
<stop stop-color="#5761D7"/>
<stop offset="0.18" stop-color="#5C66D9"/>
<stop offset="0.39" stop-color="#6A73DF"/>
<stop offset="0.61" stop-color="#8289E8"/>
<stop offset="0.85" stop-color="#A3A7F5"/>
<stop offset="1" stop-color="#BCBEFF"/>
</linearGradient>
<linearGradient id="paint27_linear_115_2" x1="511.098" y1="258.677" x2="419.471" y2="258.677" gradientUnits="userSpaceOnUse">
<stop stop-color="#C0BFF6"/>
<stop offset="0.29" stop-color="#C5C4F7"/>
<stop offset="0.64" stop-color="#D3D2F9"/>
<stop offset="1" stop-color="#E9E9FD"/>
</linearGradient>
<linearGradient id="paint28_linear_115_2" x1="495.577" y1="263.88" x2="472.13" y2="263.88" gradientUnits="userSpaceOnUse">
<stop stop-color="#C0BFF6"/>
<stop offset="0.29" stop-color="#C5C4F7"/>
<stop offset="0.64" stop-color="#D3D2F9"/>
<stop offset="1" stop-color="#E9E9FD"/>
</linearGradient>
<linearGradient id="paint29_linear_115_2" x1="545.728" y1="238.283" x2="454.531" y2="238.283" gradientUnits="userSpaceOnUse">
<stop stop-color="#C0BFF6"/>
<stop offset="0.29" stop-color="#C5C4F7"/>
<stop offset="0.64" stop-color="#D3D2F9"/>
<stop offset="1" stop-color="#E9E9FD"/>
</linearGradient>
<linearGradient id="paint30_linear_115_2" x1="551.728" y1="231.582" x2="528.378" y2="231.582" gradientUnits="userSpaceOnUse">
<stop stop-color="#C0BFF6"/>
<stop offset="0.29" stop-color="#C5C4F7"/>
<stop offset="0.64" stop-color="#D3D2F9"/>
<stop offset="1" stop-color="#E9E9FD"/>
</linearGradient>
<linearGradient id="paint31_linear_115_2" x1="568.579" y1="121.978" x2="563.023" y2="121.978" gradientUnits="userSpaceOnUse">
<stop stop-color="#C0BFF6"/>
<stop offset="0.29" stop-color="#C5C4F7"/>
<stop offset="0.64" stop-color="#D3D2F9"/>
<stop offset="1" stop-color="#E9E9FD"/>
</linearGradient>
<linearGradient id="paint32_linear_115_2" x1="569.245" y1="122.547" x2="564.658" y2="122.547" gradientUnits="userSpaceOnUse">
<stop stop-color="#5761D7"/>
<stop offset="0.18" stop-color="#5C66D9"/>
<stop offset="0.39" stop-color="#6A73DF"/>
<stop offset="0.61" stop-color="#8289E8"/>
<stop offset="0.85" stop-color="#A3A7F5"/>
<stop offset="1" stop-color="#BCBEFF"/>
</linearGradient>
<linearGradient id="paint33_linear_115_2" x1="682.032" y1="56.7716" x2="676.489" y2="56.7716" gradientUnits="userSpaceOnUse">
<stop stop-color="#C0BFF6"/>
<stop offset="0.29" stop-color="#C5C4F7"/>
<stop offset="0.64" stop-color="#D3D2F9"/>
<stop offset="1" stop-color="#E9E9FD"/>
</linearGradient>
<linearGradient id="paint34_linear_115_2" x1="682.711" y1="57.3405" x2="678.124" y2="57.3405" gradientUnits="userSpaceOnUse">
<stop stop-color="#5761D7"/>
<stop offset="0.18" stop-color="#5C66D9"/>
<stop offset="0.39" stop-color="#6A73DF"/>
<stop offset="0.61" stop-color="#8289E8"/>
<stop offset="0.85" stop-color="#A3A7F5"/>
<stop offset="1" stop-color="#BCBEFF"/>
</linearGradient>
<linearGradient id="paint35_linear_115_2" x1="568.58" y1="342.822" x2="563.023" y2="342.822" gradientUnits="userSpaceOnUse">
<stop stop-color="#C0BFF6"/>
<stop offset="0.29" stop-color="#C5C4F7"/>
<stop offset="0.64" stop-color="#D3D2F9"/>
<stop offset="1" stop-color="#E9E9FD"/>
</linearGradient>
<linearGradient id="paint36_linear_115_2" x1="569.245" y1="343.46" x2="564.658" y2="343.46" gradientUnits="userSpaceOnUse">
<stop stop-color="#5761D7"/>
<stop offset="0.18" stop-color="#5C66D9"/>
<stop offset="0.39" stop-color="#6A73DF"/>
<stop offset="0.61" stop-color="#8289E8"/>
<stop offset="0.85" stop-color="#A3A7F5"/>
<stop offset="1" stop-color="#BCBEFF"/>
</linearGradient>
<linearGradient id="paint37_linear_115_2" x1="568.58" y1="343.294" x2="563.023" y2="343.294" gradientUnits="userSpaceOnUse">
<stop stop-color="#C0BFF6"/>
<stop offset="0.29" stop-color="#C5C4F7"/>
<stop offset="0.64" stop-color="#D3D2F9"/>
<stop offset="1" stop-color="#E9E9FD"/>
</linearGradient>
<linearGradient id="paint38_linear_115_2" x1="569.245" y1="343.294" x2="564.658" y2="343.294" gradientUnits="userSpaceOnUse">
<stop stop-color="#5761D7"/>
<stop offset="0.18" stop-color="#5C66D9"/>
<stop offset="0.39" stop-color="#6A73DF"/>
<stop offset="0.61" stop-color="#8289E8"/>
<stop offset="0.85" stop-color="#A3A7F5"/>
<stop offset="1" stop-color="#BCBEFF"/>
</linearGradient>
<linearGradient id="paint39_linear_115_2" x1="682.032" y1="277.615" x2="676.489" y2="277.615" gradientUnits="userSpaceOnUse">
<stop stop-color="#C0BFF6"/>
<stop offset="0.29" stop-color="#C5C4F7"/>
<stop offset="0.64" stop-color="#D3D2F9"/>
<stop offset="1" stop-color="#E9E9FD"/>
</linearGradient>
<linearGradient id="paint40_linear_115_2" x1="682.711" y1="278.253" x2="678.124" y2="278.253" gradientUnits="userSpaceOnUse">
<stop stop-color="#5761D7"/>
<stop offset="0.18" stop-color="#5C66D9"/>
<stop offset="0.39" stop-color="#6A73DF"/>
<stop offset="0.61" stop-color="#8289E8"/>
<stop offset="0.85" stop-color="#A3A7F5"/>
<stop offset="1" stop-color="#BCBEFF"/>
</linearGradient>
<linearGradient id="paint41_linear_115_2" x1="682.032" y1="278.087" x2="676.475" y2="278.087" gradientUnits="userSpaceOnUse">
<stop stop-color="#C0BFF6"/>
<stop offset="0.29" stop-color="#C5C4F7"/>
<stop offset="0.64" stop-color="#D3D2F9"/>
<stop offset="1" stop-color="#E9E9FD"/>
</linearGradient>
<linearGradient id="paint42_linear_115_2" x1="682.711" y1="278.087" x2="678.124" y2="278.087" gradientUnits="userSpaceOnUse">
<stop stop-color="#5761D7"/>
<stop offset="0.18" stop-color="#5C66D9"/>
<stop offset="0.39" stop-color="#6A73DF"/>
<stop offset="0.61" stop-color="#8289E8"/>
<stop offset="0.85" stop-color="#A3A7F5"/>
<stop offset="1" stop-color="#BCBEFF"/>
</linearGradient>
<linearGradient id="paint43_linear_115_2" x1="377.039" y1="392.31" x2="473.807" y2="392.31" gradientUnits="userSpaceOnUse">
<stop offset="0.25" stop-color="#5761D7"/>
<stop offset="0.44" stop-color="#6C74DF"/>
<stop offset="0.82" stop-color="#A2A6F5"/>
<stop offset="1" stop-color="#BCBEFF"/>
</linearGradient>
<linearGradient id="paint44_linear_115_2" x1="377.039" y1="365.824" x2="512.83" y2="365.824" gradientUnits="userSpaceOnUse">
<stop stop-color="#C0BFF6"/>
<stop offset="0.29" stop-color="#C5C4F7"/>
<stop offset="0.64" stop-color="#D3D2F9"/>
<stop offset="1" stop-color="#E9E9FD"/>
</linearGradient>
<linearGradient id="paint45_linear_115_2" x1="402.967" y1="365.824" x2="486.916" y2="365.824" gradientUnits="userSpaceOnUse">
<stop stop-color="#42E8E0"/>
<stop offset="0.15" stop-color="#43E3E0"/>
<stop offset="0.33" stop-color="#45D5DF"/>
<stop offset="0.52" stop-color="#49BDDD"/>
<stop offset="0.72" stop-color="#4E9CDB"/>
<stop offset="0.93" stop-color="#5472D8"/>
<stop offset="1" stop-color="#5761D7"/>
</linearGradient>
<linearGradient id="paint46_linear_115_2" x1="444.941" y1="336.717" x2="486.916" y2="336.717" gradientUnits="userSpaceOnUse">
<stop stop-color="#42E8E0"/>
<stop offset="0.15" stop-color="#43E3E0"/>
<stop offset="0.33" stop-color="#45D5DF"/>
<stop offset="0.52" stop-color="#49BDDD"/>
<stop offset="0.72" stop-color="#4E9CDB"/>
<stop offset="0.93" stop-color="#5472D8"/>
<stop offset="1" stop-color="#5761D7"/>
</linearGradient>
<linearGradient id="paint47_linear_115_2" x1="402.967" y1="336.717" x2="444.941" y2="336.717" gradientUnits="userSpaceOnUse">
<stop stop-color="#42E8E0"/>
<stop offset="0.15" stop-color="#43E3E0"/>
<stop offset="0.33" stop-color="#45D5DF"/>
<stop offset="0.52" stop-color="#49BDDD"/>
<stop offset="0.72" stop-color="#4E9CDB"/>
<stop offset="0.93" stop-color="#5472D8"/>
<stop offset="1" stop-color="#5761D7"/>
</linearGradient>
<linearGradient id="paint48_linear_115_2" x1="402.967" y1="331.889" x2="486.916" y2="331.889" gradientUnits="userSpaceOnUse">
<stop stop-color="#42E8E0"/>
<stop offset="0.15" stop-color="#43E3E0"/>
<stop offset="0.33" stop-color="#45D5DF"/>
<stop offset="0.52" stop-color="#49BDDD"/>
<stop offset="0.72" stop-color="#4E9CDB"/>
<stop offset="0.93" stop-color="#5472D8"/>
<stop offset="1" stop-color="#5761D7"/>
</linearGradient>
<linearGradient id="paint49_linear_115_2" x1="444.941" y1="360.983" x2="486.916" y2="360.983" gradientUnits="userSpaceOnUse">
<stop stop-color="#42E8E0"/>
<stop offset="0.15" stop-color="#43E3E0"/>
<stop offset="0.33" stop-color="#45D5DF"/>
<stop offset="0.52" stop-color="#49BDDD"/>
<stop offset="0.72" stop-color="#4E9CDB"/>
<stop offset="0.93" stop-color="#5472D8"/>
<stop offset="1" stop-color="#5761D7"/>
</linearGradient>
<linearGradient id="paint50_linear_115_2" x1="402.967" y1="360.983" x2="444.941" y2="360.983" gradientUnits="userSpaceOnUse">
<stop stop-color="#42E8E0"/>
<stop offset="0.15" stop-color="#43E3E0"/>
<stop offset="0.33" stop-color="#45D5DF"/>
<stop offset="0.52" stop-color="#49BDDD"/>
<stop offset="0.72" stop-color="#4E9CDB"/>
<stop offset="0.93" stop-color="#5472D8"/>
<stop offset="1" stop-color="#5761D7"/>
</linearGradient>
<linearGradient id="paint51_linear_115_2" x1="712.935" y1="435.096" x2="809.703" y2="435.096" gradientUnits="userSpaceOnUse">
<stop offset="0.25" stop-color="#5761D7"/>
<stop offset="0.44" stop-color="#6C74DF"/>
<stop offset="0.82" stop-color="#A2A6F5"/>
<stop offset="1" stop-color="#BCBEFF"/>
</linearGradient>
<linearGradient id="paint52_linear_115_2" x1="712.935" y1="408.625" x2="848.726" y2="408.625" gradientUnits="userSpaceOnUse">
<stop stop-color="#C0BFF6"/>
<stop offset="0.29" stop-color="#C5C4F7"/>
<stop offset="0.64" stop-color="#D3D2F9"/>
<stop offset="1" stop-color="#E9E9FD"/>
</linearGradient>
<linearGradient id="paint53_linear_115_2" x1="738.862" y1="408.625" x2="822.812" y2="408.625" gradientUnits="userSpaceOnUse">
<stop stop-color="#42E8E0"/>
<stop offset="0.15" stop-color="#43E3E0"/>
<stop offset="0.33" stop-color="#45D5DF"/>
<stop offset="0.52" stop-color="#49BDDD"/>
<stop offset="0.72" stop-color="#4E9CDB"/>
<stop offset="0.93" stop-color="#5472D8"/>
<stop offset="1" stop-color="#5761D7"/>
</linearGradient>
<linearGradient id="paint54_linear_115_2" x1="780.837" y1="379.518" x2="822.812" y2="379.518" gradientUnits="userSpaceOnUse">
<stop stop-color="#42E8E0"/>
<stop offset="0.15" stop-color="#43E3E0"/>
<stop offset="0.33" stop-color="#45D5DF"/>
<stop offset="0.52" stop-color="#49BDDD"/>
<stop offset="0.72" stop-color="#4E9CDB"/>
<stop offset="0.93" stop-color="#5472D8"/>
<stop offset="1" stop-color="#5761D7"/>
</linearGradient>
<linearGradient id="paint55_linear_115_2" x1="738.862" y1="379.518" x2="780.837" y2="379.518" gradientUnits="userSpaceOnUse">
<stop stop-color="#42E8E0"/>
<stop offset="0.15" stop-color="#43E3E0"/>
<stop offset="0.33" stop-color="#45D5DF"/>
<stop offset="0.52" stop-color="#49BDDD"/>
<stop offset="0.72" stop-color="#4E9CDB"/>
<stop offset="0.93" stop-color="#5472D8"/>
<stop offset="1" stop-color="#5761D7"/>
</linearGradient>
<linearGradient id="paint56_linear_115_2" x1="738.862" y1="374.676" x2="822.812" y2="374.676" gradientUnits="userSpaceOnUse">
<stop stop-color="#42E8E0"/>
<stop offset="0.15" stop-color="#43E3E0"/>
<stop offset="0.33" stop-color="#45D5DF"/>
<stop offset="0.52" stop-color="#49BDDD"/>
<stop offset="0.72" stop-color="#4E9CDB"/>
<stop offset="0.93" stop-color="#5472D8"/>
<stop offset="1" stop-color="#5761D7"/>
</linearGradient>
<linearGradient id="paint57_linear_115_2" x1="780.837" y1="403.783" x2="822.812" y2="403.783" gradientUnits="userSpaceOnUse">
<stop stop-color="#42E8E0"/>
<stop offset="0.15" stop-color="#43E3E0"/>
<stop offset="0.33" stop-color="#45D5DF"/>
<stop offset="0.52" stop-color="#49BDDD"/>
<stop offset="0.72" stop-color="#4E9CDB"/>
<stop offset="0.93" stop-color="#5472D8"/>
<stop offset="1" stop-color="#5761D7"/>
</linearGradient>
<linearGradient id="paint58_linear_115_2" x1="738.862" y1="403.783" x2="780.837" y2="403.783" gradientUnits="userSpaceOnUse">
<stop stop-color="#42E8E0"/>
<stop offset="0.15" stop-color="#43E3E0"/>
<stop offset="0.33" stop-color="#45D5DF"/>
<stop offset="0.52" stop-color="#49BDDD"/>
<stop offset="0.72" stop-color="#4E9CDB"/>
<stop offset="0.93" stop-color="#5472D8"/>
<stop offset="1" stop-color="#5761D7"/>
</linearGradient>
<linearGradient id="paint59_linear_115_2" x1="807.624" y1="217.43" x2="904.392" y2="217.43" gradientUnits="userSpaceOnUse">
<stop offset="0.25" stop-color="#5761D7"/>
<stop offset="0.44" stop-color="#6C74DF"/>
<stop offset="0.82" stop-color="#A2A6F5"/>
<stop offset="1" stop-color="#BCBEFF"/>
</linearGradient>
<linearGradient id="paint60_linear_115_2" x1="807.624" y1="190.959" x2="943.429" y2="190.959" gradientUnits="userSpaceOnUse">
<stop stop-color="#C0BFF6"/>
<stop offset="0.29" stop-color="#C5C4F7"/>
<stop offset="0.64" stop-color="#D3D2F9"/>
<stop offset="1" stop-color="#E9E9FD"/>
</linearGradient>
<linearGradient id="paint61_linear_115_2" x1="833.552" y1="190.959" x2="917.501" y2="190.959" gradientUnits="userSpaceOnUse">
<stop stop-color="#42E8E0"/>
<stop offset="0.15" stop-color="#43E3E0"/>
<stop offset="0.33" stop-color="#45D5DF"/>
<stop offset="0.52" stop-color="#49BDDD"/>
<stop offset="0.72" stop-color="#4E9CDB"/>
<stop offset="0.93" stop-color="#5472D8"/>
<stop offset="1" stop-color="#5761D7"/>
</linearGradient>
<linearGradient id="paint62_linear_115_2" x1="875.527" y1="161.852" x2="917.501" y2="161.852" gradientUnits="userSpaceOnUse">
<stop stop-color="#42E8E0"/>
<stop offset="0.15" stop-color="#43E3E0"/>
<stop offset="0.33" stop-color="#45D5DF"/>
<stop offset="0.52" stop-color="#49BDDD"/>
<stop offset="0.72" stop-color="#4E9CDB"/>
<stop offset="0.93" stop-color="#5472D8"/>
<stop offset="1" stop-color="#5761D7"/>
</linearGradient>
<linearGradient id="paint63_linear_115_2" x1="833.552" y1="161.852" x2="875.527" y2="161.852" gradientUnits="userSpaceOnUse">
<stop stop-color="#42E8E0"/>
<stop offset="0.15" stop-color="#43E3E0"/>
<stop offset="0.33" stop-color="#45D5DF"/>
<stop offset="0.52" stop-color="#49BDDD"/>
<stop offset="0.72" stop-color="#4E9CDB"/>
<stop offset="0.93" stop-color="#5472D8"/>
<stop offset="1" stop-color="#5761D7"/>
</linearGradient>
<linearGradient id="paint64_linear_115_2" x1="833.552" y1="157.01" x2="917.501" y2="157.01" gradientUnits="userSpaceOnUse">
<stop stop-color="#42E8E0"/>
<stop offset="0.15" stop-color="#43E3E0"/>
<stop offset="0.33" stop-color="#45D5DF"/>
<stop offset="0.52" stop-color="#49BDDD"/>
<stop offset="0.72" stop-color="#4E9CDB"/>
<stop offset="0.93" stop-color="#5472D8"/>
<stop offset="1" stop-color="#5761D7"/>
</linearGradient>
<linearGradient id="paint65_linear_115_2" x1="875.527" y1="186.117" x2="917.501" y2="186.117" gradientUnits="userSpaceOnUse">
<stop stop-color="#42E8E0"/>
<stop offset="0.15" stop-color="#43E3E0"/>
<stop offset="0.33" stop-color="#45D5DF"/>
<stop offset="0.52" stop-color="#49BDDD"/>
<stop offset="0.72" stop-color="#4E9CDB"/>
<stop offset="0.93" stop-color="#5472D8"/>
<stop offset="1" stop-color="#5761D7"/>
</linearGradient>
<linearGradient id="paint66_linear_115_2" x1="833.552" y1="186.117" x2="875.527" y2="186.117" gradientUnits="userSpaceOnUse">
<stop stop-color="#42E8E0"/>
<stop offset="0.15" stop-color="#43E3E0"/>
<stop offset="0.33" stop-color="#45D5DF"/>
<stop offset="0.52" stop-color="#49BDDD"/>
<stop offset="0.72" stop-color="#4E9CDB"/>
<stop offset="0.93" stop-color="#5472D8"/>
<stop offset="1" stop-color="#5761D7"/>
</linearGradient>
<clipPath id="clip0_115_2">
<rect width="641" height="511" fill="white" transform="translate(307)"/>
</clipPath>
</defs>
</svg>
