<svg width="343" height="211" viewBox="0 0 343 211" fill="none" xmlns="http://www.w3.org/2000/svg">
<path d="M130.124 124.746C129.822 88.6913 100.794 59.5523 65.0744 59.5523C29.3552 59.5523 0.981021 88.0557 0.0503087 123.551H0V190.195H18.6394V125.331C18.6394 99.396 39.4421 78.3935 65.0744 78.3935C90.7067 78.3935 111.509 99.4214 111.509 125.331V190.195H130.149V124.746H130.124Z" fill="white"/>
<path d="M145.469 124.873C145.469 74.0702 163.983 60.7211 187.779 60.7211C211.575 60.7211 230.088 74.0956 230.088 124.873C230.088 175.65 211.575 189.024 187.779 189.024C163.983 189.024 145.469 175.65 145.469 124.873ZM122.528 124.873C122.528 182.566 152.437 210.052 187.779 210.052C223.121 210.052 253.029 182.566 253.029 124.873C253.029 67.1795 223.121 39.6932 187.779 39.6932C152.437 39.6932 122.528 67.1795 122.528 124.873Z" fill="white"/>
<path d="M242.185 59.4504C242.185 38.0666 260.699 19.3525 281.854 19.3525C303.008 19.3525 321.522 38.0666 321.522 59.4504C321.522 86.1739 303.008 104.888 281.854 104.888C260.699 104.888 242.185 86.1739 242.185 59.4504ZM221.03 62.1202C221.03 96.8785 247.468 123.602 281.854 123.602H287.136L252.75 163.7H279.187C279.187 163.7 308.266 131.637 324.138 110.253C342.652 88.8691 342.652 75.4947 342.652 62.1457C342.652 27.3874 316.214 0.663879 281.828 0.663879C247.442 0.663879 221.005 27.3874 221.005 62.1457" fill="white"/>
</svg>
