<svg xmlns="http://www.w3.org/2000/svg" xmlns:xlink="http://www.w3.org/1999/xlink" viewBox="0 0 96.85 239.42"><defs><style>.cls-1{isolation:isolate;}.cls-2{fill:url(#linear-gradient);}.cls-3{mix-blend-mode:color-burn;}.cls-4{fill:gray;}.cls-5{fill:#3bc8d0;}</style><linearGradient id="linear-gradient" y1="163.36" x2="96.85" y2="163.36" gradientUnits="userSpaceOnUse"><stop offset="0" stop-color="#353d8e"/><stop offset="0.5" stop-color="#559698"/><stop offset="1" stop-color="#468059"/></linearGradient></defs><g class="cls-1"><g id="Layer_2" data-name="Layer 2"><g id="Layer_1-2" data-name="Layer 1"><path class="cls-2" d="M47.24,87.31C24.54,87.6.07,102,0,132.94,0,150.49,7,161.4,13.19,171a69.47,69.47,0,0,0,5.92,7.68c3.3,3.85,6.16,7.17,7.67,13.4a41.2,41.2,0,0,1,1,6.71,23.69,23.69,0,0,1-.94,5.81c-.67,2.67-1.25,5,.15,6.77a3.83,3.83,0,0,0,.85.8,1,1,0,0,0,.25.51l2.84,6a4.76,4.76,0,0,0,1,1.45,3.74,3.74,0,0,0-.22,5.75,3.55,3.55,0,0,0-.46,1.76,3.33,3.33,0,0,0,3.18,3.46c2.29,5.65,8.39,8.27,14,8.27s11.66-2.62,13.95-8.27a3.33,3.33,0,0,0,3.18-3.46,3.54,3.54,0,0,0-.45-1.76,3.65,3.65,0,0,0,1.24-2.78,3.57,3.57,0,0,0-1.48-3,5,5,0,0,0,1-1.46l2.84-6a.82.82,0,0,0,.3-.53h0a3.91,3.91,0,0,0,.8-.77c1.4-1.79.81-4.1.15-6.77a23.67,23.67,0,0,1-.94-5.71,41.7,41.7,0,0,1,1-6.94c1.53-6.14,4.36-9.46,7.65-13.28A68.36,68.36,0,0,0,83.66,171c6.18-9.62,13.19-20.52,13.19-38.12C96,101.14,70.43,87,47.24,87.31ZM62.37,228.52H34.47c-.25,0-.54-.35-.54-.83s.29-.82.54-.82h27.9c.26,0,.55.35.55.82S62.63,228.52,62.37,228.52Zm.68-4.45H33.78c-.3,0-.63-.38-.63-.92s.33-.93.63-.93H63.05c.32,0,.65.38.65.93S63.37,224.07,63.05,224.07ZM56,234.72a14.38,14.38,0,0,1-7.55,2.07c-4.24,0-8.85-1.79-11-5.64h22A10.06,10.06,0,0,1,56,234.72Zm9.52-21.28-2,4.17a3,3,0,0,1-2.8,1.61H36.13a3.1,3.1,0,0,1-2.81-1.61l-2-4.16.76,0h0c.75.07,1.58.1,2.5.1h.47c3.48.12,8.16.17,13.17.17h.08l.08,0,.07,0h.06c6.78,0,11.32,0,14.35-.18l.68,0,.84,0ZM47.26,194.38a19.13,19.13,0,0,1-2.44-2A15.65,15.65,0,0,1,47.3,190h0l0,4.39Zm.15-17.32a30,30,0,0,1-3.56-2.1,21,21,0,0,1,3.59-2h0l0,4.07Zm.12-14.12a13,13,0,0,1-2.67-1.59,11.55,11.55,0,0,1,2.7-2.24h0l0,3.83Zm1.68-12.53c.19.42.39.81.56,1.17a7.32,7.32,0,0,1,.83,2,5.05,5.05,0,0,1-1.36,1.22Zm.14,16.32h0a16,16,0,0,1,1.88,1,6.42,6.42,0,0,1-1.86,1.32Zm.3,34.79,0-2.19h0a20.62,20.62,0,0,1,1.7,1.4c-.43.23-1,.52-1.68.79Zm-.15-16.67,0-3.64h0a7.13,7.13,0,0,1,2.11,1.63,12.87,12.87,0,0,1-2.07,2Zm-2.36,23.79h0a6.65,6.65,0,0,1-2.24-1.91,8.65,8.65,0,0,1,2.26-1.29h0Zm34.31-39A66.64,66.64,0,0,1,75.76,177c-3.36,3.9-6.53,7.6-8.22,14.35a44.49,44.49,0,0,0-1.13,7.48,26.26,26.26,0,0,0,1,6.46c.5,2,.94,3.73.33,4.5-.31.4-1.1.86-3.06,1.07l-.41,0h-.1l-2,.08H52a14.13,14.13,0,0,1-2.26-.9l0-5.69h0c2.87-1.19,4.59-2,4.59-3.45s-1.52-2.6-4.66-4.86l-.07-7.84c3.11-2.48,4.73-3.9,4.73-5.34,0-1.7-1.78-3-4.81-4.71h0l-.06-6.09h0c2.54-1.26,4.58-2.59,4.58-4.56,0-1.48-1.75-2.34-4.65-3.71l0-5.8h0c2.25-1.49,3.93-2.71,3.93-4.26a7.32,7.32,0,0,0-1.07-3.32c-1-2-2.39-4.78-2.39-10.67a1.32,1.32,0,1,0-2.63,0,27.76,27.76,0,0,0,.58,6l-.09,10.18-.34.22c-2.72,1.79-5.09,3.34-5.09,5.33,0,1.69,2,2.79,5.34,4.37h0l0,4.22h0l-1,.47C43.44,172,41,173.11,41,175c0,1.54,1.71,2.53,5.31,4.44l1,.56h0l-.06,6.56h0c-3.35,2.67-5.23,4.26-5.23,5.81s1.66,2.71,5.13,5.18h0l-.05,5c-3,1.27-4.8,2.26-4.95,3.87s1.62,3.25,3.66,4.54H34.64l-2-.08h-.1l-.4,0c-2-.21-2.75-.67-3.07-1.07-.6-.77-.16-2.5.34-4.5a25.9,25.9,0,0,0,1-6.56,43.77,43.77,0,0,0-1.09-7.23c-1.66-6.85-4.85-10.56-8.24-14.5a63.69,63.69,0,0,1-5.69-7.39c-6-9.32-12.78-19.88-12.78-36.65.07-29.16,23.19-42.74,44.64-43H48c21.83,0,45.41,13.38,46.24,43C94.21,149.74,87.43,160.29,81.45,169.6Z"/><g class="cls-3"><path class="cls-4" d="M59,17.71A116.34,116.34,0,0,0,48.25,0,116.34,116.34,0,0,0,37.48,17.71a32.11,32.11,0,0,1,21.54,0Z"/><path class="cls-4" d="M31.86,128.8c-2.76-.09-5.15-2.73-5.78-6.45-1-6-2-12.07-2.75-18.1l-10,9v15.54h18.5Z"/><path class="cls-4" d="M72.86,104c-.8,6.1-1.74,12.28-2.78,18.33-.62,3.59-2.85,6.18-5.49,6.44v0h18.5V113.27Z"/><path class="cls-4" d="M30.34,122.35c.64,3.72,3,6.36,5.78,6.45H60.18l.44,0c2.64-.26,4.87-2.85,5.49-6.44,1-6,2-12.23,2.78-18.33a300.4,300.4,0,0,0,2.82-36.84c0-17.17-5-32.83-10.43-44.71a30.29,30.29,0,0,0-26.1,0C29.77,34.35,24.74,50,24.74,67.18a300.58,300.58,0,0,0,2.85,37.07C28.38,110.28,29.31,116.38,30.34,122.35Z"/><rect class="cls-4" x="27.56" y="132.5" width="41.36" height="4" rx="1.21"/><path class="cls-4" d="M63.51,137.88H33a1.11,1.11,0,0,0-.95,1.21v1.59a1.11,1.11,0,0,0,.95,1.21H63.51a1.11,1.11,0,0,0,.95-1.21v-1.59A1.11,1.11,0,0,0,63.51,137.88Z"/></g><path class="cls-5" d="M48.25,15.85a32.41,32.41,0,0,0-10.77,1.86A116.34,116.34,0,0,1,48.25,0,116.34,116.34,0,0,1,59,17.71,32.41,32.41,0,0,0,48.25,15.85Z"/><path class="cls-5" d="M26.08,122.35c-1-6-2-12.07-2.75-18.1l-10,9v15.54h18.5C29.1,128.71,26.71,126.07,26.08,122.35Z"/><path class="cls-5" d="M72.86,104c-.8,6.1-1.74,12.28-2.78,18.33-.62,3.59-2.85,6.18-5.49,6.44v0h18.5V113.27Z"/><rect class="cls-5" x="27.56" y="132.5" width="41.36" height="4" rx="1.21"/><path class="cls-5" d="M64.46,140.68a1.11,1.11,0,0,1-.95,1.21H33a1.11,1.11,0,0,1-.95-1.21v-1.59a1.11,1.11,0,0,1,.95-1.21H63.51a1.11,1.11,0,0,1,.95,1.21Z"/><path class="cls-5" d="M61.28,22.47a30.29,30.29,0,0,0-26.1,0C29.77,34.35,24.74,50,24.74,67.18a300.58,300.58,0,0,0,2.85,37.07c.79,6,1.72,12.13,2.75,18.1.64,3.72,3,6.36,5.78,6.45H60.18l.44,0c2.64-.26,4.87-2.85,5.49-6.44,1-6,2-12.23,2.78-18.33a300.4,300.4,0,0,0,2.82-36.84C71.71,50,66.68,34.35,61.28,22.47ZM48.23,65a11.51,11.51,0,1,1,11.5-11.5A11.5,11.5,0,0,1,48.23,65Z"/></g></g></g></svg>