<?xml version="1.0" encoding="utf-8"?>
<!-- Generator: Adobe Illustrator 25.4.1, SVG Export Plug-In . SVG Version: 6.00 Build 0)  -->
<svg version="1.1" id="Layer_1" xmlns="http://www.w3.org/2000/svg" xmlns:xlink="http://www.w3.org/1999/xlink" x="0px" y="0px"
	 viewBox="0 0 32 32" style="enable-background:new 0 0 32 32;" xml:space="preserve">
<style type="text/css">
	.st0{fill:#3BC8D0;}
</style>
<path class="st0" d="M16,0.8c8.4,0,15.2,6.8,15.2,15.2S24.4,31.2,16,31.2S0.8,24.4,0.8,16S7.6,0.8,16,0.8z M16,0C7.2,0,0,7.2,0,16
	c0,8.8,7.2,16,16,16s16-7.2,16-16S24.8,0,16,0z"/>
<path class="st0" d="M20.3,13.7h-2.7v-1.8c0-0.7,0.4-0.8,0.8-0.8c0.3,0,1.9,0,1.9,0V8.2l-2.6,0c-2.9,0-3.6,2.2-3.6,3.6v1.9h-1.7v3
	H14c0,3.9,0,8.5,0,8.5h3.5c0,0,0-4.7,0-8.5H20L20.3,13.7z"/>
</svg>
