<?xml version="1.0" encoding="utf-8"?>
<!-- Generator: Adobe Illustrator 25.4.1, SVG Export Plug-In . SVG Version: 6.00 Build 0)  -->
<svg version="1.1" id="Layer_1" xmlns="http://www.w3.org/2000/svg" xmlns:xlink="http://www.w3.org/1999/xlink" x="0px" y="0px"
	 viewBox="0 0 32 32" style="enable-background:new 0 0 32 32;" xml:space="preserve">
<style type="text/css">
	.st0{clip-path:url(#SVGID_00000057149224585093515160000012762017243681125001_);}
	.st1{fill:#3BC8D0;}
</style>
<g>
	<defs>
		<rect id="SVGID_1_" width="32" height="32"/>
	</defs>
	<clipPath id="SVGID_00000045618756184562762290000016800666197383444867_">
		<use xlink:href="#SVGID_1_"  style="overflow:visible;"/>
	</clipPath>
	<g style="clip-path:url(#SVGID_00000045618756184562762290000016800666197383444867_);">
		<path class="st1" d="M16,0.7c8.4,0,15.2,6.8,15.2,15.2c0,8.4-6.8,15.2-15.2,15.2C7.6,31.2,0.8,24.4,0.8,16C0.8,7.6,7.6,0.7,16,0.7
			z M16,0C7.2,0,0,7.2,0,16c0,8.8,7.2,16,16,16c8.8,0,16-7.2,16-16C32,7.2,24.8,0,16,0z"/>
		<path class="st1" d="M24.3,22.9v-6.1c0-3.3-1.8-4.8-4.1-4.8c-1.9,0-2.7,1-3.2,1.8v-1.5h-3.6c0,1,0,10.7,0,10.7H17v-6
			c0-0.3,0-0.6,0.1-0.9c0.3-0.6,0.8-1.3,1.8-1.3c1.3,0,1.8,1,1.8,2.4v5.7L24.3,22.9z M9.7,10.8c1.2,0,2-0.8,2-1.9
			c0-1.1-0.8-1.8-2-1.8c-1.2,0-2,0.8-2,1.8C7.7,9.9,8.5,10.8,9.7,10.8L9.7,10.8L9.7,10.8z M11.5,22.9V12.2H7.9v10.7H11.5z"/>
	</g>
</g>
</svg>
