<svg width="19" height="19" viewBox="0 0 19 19" fill="none" xmlns="http://www.w3.org/2000/svg">
<path d="M0 7.43904C0.0946311 7.22289 0.0918097 6.98662 0.143353 6.76122C0.370871 5.76101 0.924969 4.9713 1.70658 4.33615C1.99314 4.10543 2.3537 3.98643 2.72137 4.00123C3.08903 4.01604 3.43885 4.16364 3.70591 4.41665C4.3784 5.06065 5.038 5.71955 5.68471 6.39334C6.26095 6.99468 6.23437 7.93089 5.64444 8.54914C5.31907 8.89086 4.98122 9.22172 4.64175 9.55016C4.55397 9.63549 4.54793 9.69305 4.61195 9.7977C5.75401 11.6809 7.33531 13.2597 9.22069 14.3991C9.32418 14.4623 9.37774 14.4418 9.45384 14.3637C9.7619 14.0477 10.0756 13.7374 10.3881 13.4258C11.0855 12.7303 12.025 12.7255 12.7237 13.4174C13.3143 14.0042 13.9032 14.593 14.4906 15.1836C15.1752 15.8731 15.1607 16.8 14.4987 17.5076C13.7521 18.3054 12.8598 18.8021 11.7757 18.9462C10.8439 19.0697 9.92942 18.9647 9.02821 18.7171C7.47223 18.2893 6.09303 17.5209 4.84028 16.5195C3.17759 15.1912 1.83906 13.5945 0.914497 11.6673C0.464954 10.7462 0.170529 9.75725 0.0430852 8.74032C0.0386556 8.70007 0.0604007 8.64936 0.00281664 8.63085L0 7.43904ZM10.9683 17.8807C12.0516 17.894 12.9757 17.5422 13.7042 16.7187C13.9386 16.4539 13.9458 16.2261 13.6929 15.9713C13.1093 15.3858 12.5247 14.8013 11.9392 14.218C11.6779 13.958 11.4427 13.9592 11.1802 14.218C10.7485 14.6478 10.3192 15.0797 9.88713 15.5092C9.64794 15.7471 9.4164 15.7849 9.12928 15.6259C6.67048 14.2668 4.75853 12.3596 3.39343 9.90436C3.21302 9.57954 3.24685 9.36863 3.51142 9.10298C3.94591 8.66747 4.38323 8.23478 4.81571 7.79726C5.02712 7.58313 5.03921 7.32594 4.83585 7.11985C4.22001 6.49598 3.60014 5.87653 2.97625 5.2615C2.78618 5.07434 2.54296 5.08521 2.3396 5.25869C1.53906 5.93972 1.15007 6.81355 1.1247 7.85522C1.09933 8.90455 1.34336 9.90315 1.77302 10.849C3.05477 13.669 5.11088 15.7487 7.88861 17.1087C8.85545 17.5821 9.88231 17.8614 10.9683 17.8807Z" fill="#3BC8D0"/>
<path d="M14.5136 11.4875C14.5068 11.626 14.5297 11.7447 14.4967 11.8611C14.4226 12.1223 14.1604 12.3038 13.9059 12.2752C13.7649 12.2614 13.6343 12.195 13.54 12.0892C13.4458 11.9835 13.3949 11.8461 13.3974 11.7045C13.3921 11.1048 13.3237 10.5123 13.1292 9.94556C12.3141 7.5708 10.6728 6.15238 8.19184 5.71929C7.91572 5.67555 7.63664 5.65307 7.35707 5.65207C7.01479 5.64483 6.76714 5.40333 6.77318 5.08374C6.77922 4.76415 7.03211 4.53271 7.37721 4.53271C10.8125 4.53271 13.825 7.07814 14.4077 10.4728C14.465 10.8084 14.5003 11.1474 14.5136 11.4875Z" fill="#3BC8D0"/>
<path d="M7.57857 6.90057C8.71056 6.96164 9.7851 7.41831 10.6145 8.1908C11.4438 8.96329 11.9753 10.0025 12.116 11.1268C12.1378 11.2987 12.1474 11.473 12.1523 11.6465C12.1615 12.0039 11.934 12.2647 11.6098 12.2784C11.2857 12.2921 11.0481 12.0397 11.0348 11.6807C10.968 9.8811 9.81186 8.47798 8.08152 8.09439C7.84992 8.04957 7.61505 8.02372 7.37924 8.01711C6.99749 7.99659 6.75749 7.76273 6.77521 7.43188C6.79293 7.10102 7.05185 6.88769 7.43118 6.90098C7.4791 6.90178 7.52904 6.90057 7.57857 6.90057Z" fill="#3BC8D0"/>
</svg>
