<svg width="16" height="11" viewBox="0 0 16 11" fill="none" xmlns="http://www.w3.org/2000/svg">
<path d="M14.5731 10.5192C14.5991 10.4558 14.6636 10.466 14.7117 10.4525C15.4597 10.2427 15.9917 9.57689 15.995 8.80251C16.0034 7.23872 15.999 5.67493 15.9975 4.10931C15.9975 3.76539 15.7467 3.50946 15.4204 3.50616C15.0879 3.50249 14.8297 3.76282 14.8294 4.11408C14.8272 5.62959 14.8272 7.1451 14.8294 8.66062C14.8294 9.1303 14.6094 9.34957 14.1349 9.34957H2.65857C2.17532 9.34957 1.96192 9.13324 1.96192 8.64595C1.96192 7.13679 1.96192 5.62776 1.96192 4.11884C1.96192 3.65209 1.51387 3.37013 1.11164 3.57106C0.949216 3.65209 0.87772 3.80205 0.793022 3.94505V9.09511C0.856088 9.12114 0.84509 9.18604 0.859389 9.2337C1.03758 9.83025 1.42477 10.2237 2.00812 10.4345C2.10162 10.4682 2.20795 10.4561 2.29191 10.5192H14.5731Z" fill="#3BC8D0"/>
<path d="M8.39236 0.0018553C6.4613 0.0018553 4.53024 0.0018553 2.59919 0.0018553C1.92527 0.0018553 1.40169 0.282715 1.042 0.853233C0.804403 1.23016 0.863066 1.51945 1.21762 1.78491L5.7297 5.16402C6.46986 5.7184 7.20965 6.27303 7.94908 6.8279C8.2842 7.0787 8.50126 7.07833 8.83895 6.82534C11.0878 5.14018 13.3366 3.45491 15.5854 1.76951C15.9154 1.52091 15.98 1.23566 15.7633 0.881099C15.4087 0.300682 14.8833 0.0036901 14.2028 0.00112351C12.2663 -0.000587559 10.3295 -0.000344643 8.39236 0.0018553ZM14.3898 1.17516C14.3403 1.21586 14.3142 1.23859 14.2871 1.25912C12.3575 2.71255 10.4285 4.16695 8.50016 5.62234C8.40043 5.69787 8.34873 5.66633 8.2699 5.60694C6.7055 4.42703 5.1411 3.24823 3.57669 2.07053C3.19061 1.77978 2.80488 1.48828 2.39092 1.17589L14.3898 1.17516Z" fill="#3BC8D0"/>
</svg>
