<?xml version="1.0" encoding="utf-8"?>
<!-- Generator: Adobe Illustrator 25.4.1, SVG Export Plug-In . SVG Version: 6.00 Build 0)  -->
<svg version="1.1" id="Layer_1" xmlns="http://www.w3.org/2000/svg" xmlns:xlink="http://www.w3.org/1999/xlink" x="0px" y="0px"
	 viewBox="0 0 142 40" style="enable-background:new 0 0 142 40;" xml:space="preserve">
<style type="text/css">
	.st0{clip-path:url(#SVGID_00000150095988515997066040000009996851226214969261_);}
	.st1{fill:#3BC8D0;}
</style>
<g>
	<defs>
		<rect id="SVGID_1_" width="142" height="40"/>
	</defs>
	<clipPath id="SVGID_00000091700614409389026310000016064723208661780149_">
		<use xlink:href="#SVGID_1_"  style="overflow:visible;"/>
	</clipPath>
	<g style="clip-path:url(#SVGID_00000091700614409389026310000016064723208661780149_);">
		<path class="st1" d="M141.9,3.3c-0.5-2-2.3-3.3-4.5-3.3H71C48.9,0,26.8,0,4.6,0C2,0,0,1.9,0,4.5c0,10.3,0,20.7,0,31
			C0,38.1,2,40,4.6,40c44.3,0,88.5,0,132.8,0c0.3,0,0.6,0,0.9-0.1c2.2-0.4,3.7-2.2,3.7-4.4c0-10.3,0-20.7,0-31
			C142,4.1,142,3.7,141.9,3.3z M88.3,6.3c1.1,0,2.2,0,3.4,0c0.2,0,0.3,0.1,0.3,0.3c0,0.7,0,0.7-0.7,0.7c-0.6,0-1.3,0-1.9,0
			c-0.2,0-0.3,0-0.3,0.2c0,0.4,0,0.9,0,1.3c0,0.2,0.1,0.3,0.3,0.3c0.7,0,1.4,0,2.1,0c0.2,0,0.3,0.1,0.3,0.3c0,0.7,0,0.7-0.7,0.7
			c-0.6,0-1.1,0-1.7,0c-0.2,0-0.2,0.1-0.2,0.2c0,0.4,0,0.9,0,1.3c0,0.2,0.1,0.2,0.2,0.2c0.8,0,1.6,0,2.4,0c0.2,0,0.3,0.1,0.3,0.3
			c0,0.7,0,0.7-0.7,0.7c-1,0-1.9,0-2.9,0c-0.2,0-0.3-0.1-0.3-0.3c0-1,0-2,0-2.9l0,0c0-1,0-2,0-2.9C88,6.4,88.1,6.3,88.3,6.3z
			 M77.9,6.6c0-0.2,0-0.2,0.2-0.2c0.7,0,1.5,0,2.2,0c1.3,0,2.2,1.1,1.9,2.2c-0.1,0.4-0.3,0.7-0.7,0.9h0c0.5,0.3,0.9,0.7,0.9,1.4
			c0.1,1.1-0.8,2-2,2c-0.8,0-1.6,0-2.4,0c-0.2,0-0.2,0-0.2-0.2C77.9,10.6,77.9,8.6,77.9,6.6z M69.6,6.3c0.6-0.1,1,0.2,1.3,0.7
			c0.7,1.2,1.5,2.4,2.2,3.6c0.1,0.1,0.1,0.2,0.2,0.4l0-0.8c0-1.2,0-2.3,0-3.5c0-0.2,0.1-0.3,0.3-0.3c0.7,0,0.7,0,0.7,0.7
			c0,1.8,0,3.6,0,5.5c0,0.2-0.1,0.3-0.3,0.3c-0.5,0.1-0.8-0.1-1.1-0.6c-0.9-1.4-1.8-2.8-2.7-4.2c-0.1,0.1-0.1,0.2-0.1,0.2
			c0,1.4,0,2.8,0,4.3c0,0.2,0,0.3-0.3,0.3c-0.7,0-0.7,0-0.7-0.7c0-1.8,0-3.6,0-5.4C69.2,6.4,69.3,6.4,69.6,6.3z M64.9,6.2
			c1.9,0,3.4,1.5,3.4,3.4c0,1.9-1.5,3.4-3.4,3.4c-1.9,0-3.4-1.5-3.4-3.4h0C61.5,7.7,63,6.2,64.9,6.2z M51.4,11
			C51.4,11,51.4,11,51.4,11c0.2-0.1,0.4-0.2,0.6-0.2c0.3,0,0.2,0.3,0.3,0.5c0.4,0.7,1.2,0.9,1.9,0.5c0.1-0.1,0.3-0.2,0.3-0.3
			c0.1-0.1,0.1-0.3,0.1-0.4c0-0.2,0-0.3-0.1-0.4c-0.1-0.1-0.2-0.2-0.3-0.3C53.9,10,53.5,9.9,53,9.8c-0.2-0.1-0.5-0.2-0.7-0.3
			c-0.7-0.4-1-0.9-0.9-1.6c0.1-0.7,0.5-1.2,1.2-1.4c1-0.4,2.3,0,2.8,0.9c0.2,0.4,0.2,0.4-0.2,0.6c-0.1,0-0.1,0-0.2,0.1
			C54.8,8,54.7,8,54.5,7.7c-0.3-0.6-1.3-0.7-1.8-0.2c-0.3,0.3-0.3,0.7,0.1,1c0.3,0.2,0.6,0.3,1,0.4c0.4,0.1,0.8,0.3,1.2,0.5
			c0.6,0.4,0.8,0.9,0.8,1.5c0,1.1-0.8,1.8-2.1,1.9c-1,0.1-2.2-0.7-2.5-1.6C51.2,11.2,51.2,11,51.4,11z M49.6,6.3
			c0.7,0,0.7,0,0.7,0.7c0,1.8,0,3.6,0,5.4c0,0.3-0.1,0.3-0.3,0.3c-0.7,0-0.7,0-0.7-0.7V9.6c0-1,0-2,0-2.9
			C49.3,6.4,49.4,6.3,49.6,6.3z M43.3,6.3c0.8,0,1.7-0.1,2.5,0.1c1.6,0.3,2.7,1.6,2.6,3.3c-0.1,1.9-1.3,3.1-3.3,3.1
			c-0.6,0-1.3,0-1.9,0c-0.2,0-0.3-0.1-0.3-0.3c0-1,0-2,0-3h0c0-1,0-2,0-2.9C43,6.4,43,6.3,43.3,6.3z M32.9,21.1L32.9,21.1L20,28.3
			l-6.3,3.5l0,0l-1.4,0.8l0,0c-0.3,0.2-0.7,0.3-1,0.3c0,0,0,0,0,0l1-1c0.8-0.8,1.6-1.6,2.4-2.4c1.1-1.1,2.3-2.3,3.4-3.4l2.8-2.7
			c0.7-0.7,1.4-1.4,2.1-2.1l1-1l0.2-0.3c1.1-1.1,2.2-2.1,3.3-3.2l0,0l0.5-0.5c0.4,0.2,0.7,0.4,1.1,0.6l0,0l0.1-0.2h0l-0.1,0.2
			c1.1,0.6,2.3,1.3,3.4,1.9c0.1,0.1,0.2,0.1,0.3,0.2l0,0c0.2,0.1,0.4,0.2,0.6,0.3c0,0,0,0,0,0.1l0,0c0,0,0,0,0.1,0c0,0,0,0,0,0l0,0
			l0,0l0,0l0,0c0,0,0.1,0.1,0.1,0.1c0,0,0,0.1,0.1,0.1c0,0,0,0,0,0c0,0,0,0.1,0.1,0.1c0,0,0,0.1,0,0.1c0,0,0,0,0,0.1
			c0.1,0.2,0,0.4-0.3,0.8l0,0l0.2,0.1l0,0l-0.2-0.1C33.4,20.8,33.2,21,32.9,21.1l0.1,0.2l0,0L32.9,21.1z M22.1,20.6
			c-0.7,0.7-1.4,1.3-2,2l-6.2,6.1c-0.8,0.8-1.6,1.6-2.5,2.4L10.4,32c0-0.1,0-0.2,0-0.3c0-0.1,0-0.2,0-0.2l0-22.8c0-0.3,0-0.5,0-0.6
			l12.2,12L22.1,20.6z M12,6.7c0.9,0.3,1.7,0.8,2.5,1.3C15,8.4,15.5,8.7,16.1,9c3.8,2.1,7.7,4.2,11.5,6.4l-0.7,0.7l0,0
			c-1.1,1.1-2.2,2.1-3.2,3.2L11,6.9c-0.1-0.1-0.1-0.1-0.2-0.2C11.1,6.6,11.5,6.6,12,6.7z M50.6,30.7c-3.3,0.2-6-1.6-7.1-4
			c-1.9-3.9,0.5-8.6,4.8-9.5c2.3-0.5,4.4-0.1,6.2,1.4c0.1,0.1,0.2,0.2,0.3,0.3c-0.4,0.4-0.8,0.7-1.2,1.1c-0.2,0.2-0.3,0.2-0.4,0
			c-0.8-0.6-1.7-1-2.7-1.1c-1-0.1-2,0.1-2.9,0.5c-2,1-3,3.2-2.6,5.4c0.4,2.1,2.1,3.7,4.2,4c1.4,0.2,2.7-0.1,3.9-1
			c0.8-0.6,1.2-1.5,1.4-2.4c0-0.2,0-0.3-0.2-0.3c-1.3,0-2.6,0-4,0C50,25.1,50,25,50,24.7c0-0.4,0-0.9,0-1.3c0-0.2,0.1-0.2,0.2-0.2
			c2,0,4,0,6,0c0.2,0,0.2,0.1,0.3,0.2C57,27.8,54.1,30.4,50.6,30.7z M56.7,12.1V9.6c0-1,0-2,0-2.9c0-0.2,0.1-0.3,0.3-0.3
			c0.8,0,1.5-0.1,2.3,0c1.1,0.1,1.8,1,1.8,2c-0.1,1-0.9,1.8-2,1.9c-0.4,0-0.7,0-1.1,0c-0.2,0-0.3,0-0.3,0.3c0,0.7,0,1.3,0,2
			c0,0.2,0,0.3-0.3,0.3C56.7,12.8,56.7,12.8,56.7,12.1z M61.8,30.7c-2.6,0-4.5-1.9-4.5-4.5c0-2.5,2-4.4,4.5-4.4
			c2.6,0,4.5,1.9,4.5,4.5C66.3,28.8,64.3,30.7,61.8,30.7z M71.6,30.7L71.6,30.7c-2.6,0-4.6-2-4.5-4.5c0-2.5,2-4.4,4.6-4.4
			c2.6,0,4.5,2,4.5,4.5C76.2,28.8,74.2,30.7,71.6,30.7z M76.3,12.8c-0.7,0-0.7,0-0.7-0.7V9.6c0-1,0-2,0-2.9c0-0.2,0.1-0.3,0.3-0.3
			c0.7,0,0.7,0,0.7,0.7c0,1.8,0,3.6,0,5.4C76.7,12.8,76.6,12.8,76.3,12.8z M85.7,30c0,0.5,0,1.1-0.2,1.6c-0.6,2.4-2.6,3.2-4.6,3
			c-1.6-0.1-2.7-1-3.5-2.3c-0.1-0.2-0.1-0.3,0.1-0.4c0.4-0.1,0.8-0.3,1.2-0.5c0.2-0.1,0.3-0.1,0.4,0.1c0.6,1,1.5,1.5,2.7,1.3
			c0.9-0.1,1.5-0.7,1.8-1.5c0.2-0.5,0.2-1.1,0.1-1.6c0,0-0.1,0-0.1,0c-1.2,1.3-3.3,1.2-4.7,0.2c-1.5-1.1-2.2-2.6-1.9-4.4
			c0.3-1.9,1.5-3.1,3.4-3.6c1.2-0.3,2.2,0,3.1,0.8c0,0,0,0,0.1,0c0,0,0.1,0,0.1,0v0c0-0.7,0-0.7,0.7-0.7c0.3,0,0.6,0,0.9,0
			c0.3,0,0.3,0.1,0.3,0.3C85.7,24.9,85.7,27.5,85.7,30z M83.7,12.8c-0.2,0-0.3-0.1-0.3-0.3c0-1,0-2,0-3h0c0-1,0-1.9,0-2.9
			c0-0.2,0-0.3,0.3-0.3c0.7,0,0.7,0,0.7,0.7c0,1.5,0,2.9,0,4.4c0,0.3,0,0.4,0.3,0.4c0.7,0,1.4,0,2.2,0c0.2,0,0.3,0.1,0.3,0.3
			c0,0.7,0,0.7-0.7,0.7C85.5,12.8,84.6,12.8,83.7,12.8z M89.1,30.2c0,0.2-0.1,0.3-0.2,0.2c-0.5,0-1,0-1.4,0c-0.3,0-0.3-0.1-0.3-0.3
			c0-2.1,0-4.1,0-6.2c0-2.1,0-4.1,0-6.2c0-0.3,0.1-0.4,0.4-0.3c0.5,0,0.9,0,1.4,0c0.2,0,0.2,0.1,0.2,0.2
			C89.1,21.8,89.1,26,89.1,30.2z M92.5,27.8c0.8,1.4,2.8,1.5,4,0.3c0.4-0.4,0.4-0.4,0.8-0.1c0.3,0.2,0.6,0.4,0.9,0.6
			c0.1,0.1,0.2,0.2,0.1,0.3c-1.2,1.5-2.8,2.1-4.7,1.7c-1.8-0.4-2.9-1.5-3.4-3.3c0-0.1-0.1-0.3-0.1-0.4c0-0.2,0-0.4,0-0.5
			c0-2.1,1.1-3.7,2.9-4.3c2.1-0.7,4.1,0.3,5.1,2.3c0.4,0.8,0.4,0.8-0.4,1.1c-1.7,0.7-3.4,1.4-5,2C92.4,27.6,92.4,27.6,92.5,27.8z
			 M96.5,9.1c0.7,0,1.4,0,2.1,0c0.2,0,0.3,0,0.3,0.3c0,0.7,0,0.7-0.7,0.7c-0.5,0-1.1,0-1.6,0c-0.2,0-0.3,0-0.3,0.3
			c0,0.4,0,0.8,0,1.3c0,0.2,0.1,0.2,0.2,0.2c0.8,0,1.6,0,2.4,0c0.2,0,0.3,0,0.3,0.3c0,0.7,0,0.7-0.7,0.7c-1,0-2,0-2.9,0
			c-0.2,0-0.3-0.1-0.3-0.3c0-1,0-2,0-2.9h0c0-1,0-2,0-2.9c0-0.2,0.1-0.3,0.3-0.3c1.1,0,2.2,0,3.4,0c0.2,0,0.3,0.1,0.3,0.3
			c0,0.7,0,0.7-0.7,0.7c-0.6,0-1.3,0-1.9,0c-0.2,0-0.3,0-0.3,0.3c0,0.4,0,0.8,0,1.2C96.2,9,96.2,9.1,96.5,9.1z M101.2,12.5
			c0,0.2,0,0.3-0.3,0.3c-0.7,0-0.7,0-0.7-0.7c0-1.8,0-3.6,0-5.5c0-0.3,0.1-0.3,0.3-0.3c0.6-0.1,1,0.2,1.3,0.7
			c0.7,1.2,1.5,2.4,2.2,3.6c0.1,0.1,0.1,0.2,0.2,0.3c0.1-0.1,0.1-0.1,0.1-0.2c0-1.3,0-2.7,0-4c0-0.3,0.1-0.3,0.3-0.3
			c0.7,0,0.7,0,0.7,0.7c0,1.8,0,3.6,0,5.5c0,0.3-0.1,0.3-0.3,0.3c-0.5,0.1-0.8-0.1-1.1-0.6c-0.8-1.3-1.7-2.6-2.5-3.9
			c-0.1-0.1-0.1-0.2-0.2-0.3C101.2,9.5,101.2,11,101.2,12.5z M108.6,25.4c-0.8,0.2-1.6,0.1-2.5,0.1c-0.4,0-0.8,0-1.1,0
			c-0.2,0-0.3,0.1-0.3,0.3c0,1.5,0,2.9,0,4.4c0,0.3-0.1,0.3-0.3,0.3c-0.4,0-0.9,0-1.3,0c-0.3,0-0.3-0.1-0.3-0.4c0-2.1,0-4.1,0-6.2v0
			c0-2.1,0-4.1,0-6.2c0-0.3,0-0.3,0.3-0.3c1.5,0,3,0,4.4,0c1.9,0,3.5,1.1,4.1,2.7C112.5,22.4,111.1,24.8,108.6,25.4z M114.6,30.4
			c-0.4,0-0.9,0-1.3,0c-0.3,0-0.3-0.1-0.3-0.3c0-2.1,0-4.2,0-6.2c0-2,0-4.1,0-6.1c0-0.3,0-0.4,0.4-0.4c0.4,0,0.9,0,1.3,0
			c0.2,0,0.3,0.1,0.3,0.3c0,1.3,0,2.6,0,3.9c0,2.8,0,5.7,0,8.5C115,30.4,114.9,30.4,114.6,30.4z M123.9,30.2c0,0.2,0,0.2-0.2,0.2
			c-0.5,0-1,0-1.5,0c-0.2,0-0.2,0-0.2-0.2c0-0.2,0-0.5,0-0.8v0c-0.2,0-0.2,0.1-0.2,0.2c-1.2,1.7-4.5,1.3-5.4-0.7
			c-0.6-1.3-0.1-2.8,1.3-3.5c1.3-0.7,2.7-0.7,4.1-0.2c0.1,0,0.2,0.1,0.2,0.1c0,0,0,0,0,0c0.1-0.8-0.5-1.5-1.5-1.7
			c-0.9-0.2-1.8-0.1-2.3,0.8c-0.1,0.1-0.2,0.1-0.3,0c-0.5-0.2-0.9-0.4-1.4-0.5c-0.2-0.1-0.2-0.1-0.1-0.3c0.3-0.6,0.9-1.1,1.5-1.4
			c1.4-0.6,2.8-0.6,4.2,0.1c1.2,0.6,1.8,1.6,1.8,2.9C123.9,26.9,123.9,28.5,123.9,30.2z M132.9,22.4c-1.7,3.9-3.5,7.8-5.2,11.7
			c-0.1,0.2-0.2,0.3-0.4,0.3c-0.5,0-1,0-1.5,0c-0.3,0-0.3-0.1-0.2-0.3c0.6-1.3,1.2-2.5,1.7-3.8c0.1-0.1,0.1-0.2,0.1-0.3
			c0-0.1,0-0.2-0.1-0.3c-1.1-2.4-2.2-4.8-3.2-7.2c0-0.1-0.1-0.2-0.2-0.4c0.7,0,1.3,0,1.9,0c0.2,0,0.3,0.2,0.3,0.3
			c0.7,1.7,1.4,3.3,2.1,5c0,0.1,0.1,0.2,0.2,0.4c0.1,0,0.1-0.2,0.2-0.2c0.7-1.7,1.4-3.4,2-5.1c0.1-0.2,0.2-0.3,0.5-0.3
			c0.6,0,1.2,0,1.8,0C133.1,22.2,133,22.3,132.9,22.4z"/>
		<path class="st1" d="M33.9,19.1c-0.1,0-0.1,0-0.1-0.1C33.8,18.9,33.9,18.9,33.9,19.1C33.9,19,33.9,19,33.9,19.1z"/>
		<path class="st1" d="M34,19.2c-0.1,0-0.1-0.1-0.1-0.1C34,19.1,34,19.1,34,19.2z"/>
		<path class="st1" d="M34.2,19.5c-0.1,0-0.1-0.1-0.1-0.1C34.2,19.4,34.2,19.4,34.2,19.5z"/>
		<path class="st1" d="M34.3,19.6C34.2,19.6,34.2,19.6,34.3,19.6c-0.1-0.1-0.1-0.1-0.1-0.1C34.3,19.5,34.3,19.6,34.3,19.6z"/>
		<path class="st1" d="M34.1,19.3C34,19.3,34,19.3,34.1,19.3C34,19.2,34,19.2,34.1,19.3C34,19.2,34,19.2,34.1,19.3
			C34,19.2,34,19.2,34.1,19.3C34.1,19.2,34.1,19.2,34.1,19.3z"/>
		<path class="st1" d="M34.1,19.3L34.1,19.3C34.1,19.2,34.1,19.3,34.1,19.3z"/>
		<path class="st1" d="M79,26.2c0-1,0.4-1.8,1.3-2.3c1.5-0.9,3.3,0,3.6,1.8c0.1,0.5,0.1,0.9-0.1,1.4c-0.3,1.1-1.2,1.9-2.3,1.9
			c-1.1,0-2.1-0.8-2.4-1.9C79.1,26.8,79.1,26.5,79,26.2z"/>
		<path class="st1" d="M104.7,21.4c0-0.7,0-1.3,0-2c0-0.1,0-0.2,0.1-0.2c1,0,2-0.1,3,0c0.6,0.1,1.1,0.3,1.4,0.8
			c0.4,0.4,0.6,1,0.5,1.5c0,0.6-0.3,1.1-0.7,1.5c-0.4,0.4-0.9,0.6-1.5,0.6c-0.9,0-1.8,0-2.8,0c-0.2,0-0.2-0.1-0.2-0.2
			C104.7,22.8,104.7,22.1,104.7,21.4z"/>
		<path class="st1" d="M119.6,28.9c-0.3,0-0.6-0.1-0.9-0.2c-0.7-0.4-0.9-1.2-0.3-1.7c0.4-0.4,0.9-0.5,1.4-0.5c0.6-0.1,1.3,0,1.9,0.3
			c0.2,0.1,0.2,0.2,0.2,0.4c-0.1,0.5-0.4,0.9-0.8,1.3S120.1,28.9,119.6,28.9z"/>
		<path class="st1" d="M69.1,26.3c0-0.9,0.3-1.7,1.1-2.2c1.1-0.8,2.6-0.6,3.5,0.5c0.8,1,0.8,2.5,0,3.5c-0.3,0.4-0.7,0.7-1.2,0.8
			c-0.5,0.1-1,0.2-1.5,0c-1-0.3-1.7-1.2-1.8-2.2C69.1,26.5,69.1,26.4,69.1,26.3z"/>
		<path class="st1" d="M64.3,26.2c0,1.7-1.3,2.8-2.9,2.7c-1.1-0.1-1.9-0.9-2.2-2.1c-0.3-1.4,0.4-2.8,1.7-3.2
			C62.7,23.2,64.3,24.4,64.3,26.2z"/>
		<path class="st1" d="M92,26.1c0-1.7,1.4-2.9,3-2.5c0.4,0.1,0.8,0.3,1,0.7c0.1,0.1,0.1,0.2-0.1,0.3C94.6,25.1,93.3,25.6,92,26.1z"
			/>
		<path class="st1" d="M78.9,10.8c0-0.2-0.1-0.6,0.1-0.8c0.2-0.2,0.6,0,0.9-0.1c0.2,0,0.5,0,0.7,0c0.5,0,0.9,0.5,0.9,0.9
			c0,0.2-0.1,0.5-0.3,0.6c-0.2,0.2-0.4,0.3-0.6,0.3c-0.5,0-0.9,0-1.4,0c-0.2,0-0.2-0.1-0.2-0.2C79,11.4,78.9,11.1,78.9,10.8z"/>
		<path class="st1" d="M78.9,8.1c0-0.2-0.1-0.6,0.1-0.7c0.2-0.1,0.5,0,0.8,0c0.2,0,0.4,0,0.6,0c0.2,0,0.4,0.1,0.6,0.3
			c0.2,0.2,0.2,0.4,0.3,0.6c0,0.2-0.1,0.4-0.2,0.6C80.9,8.9,80.7,9,80.4,9c-0.4,0-0.9,0-1.3,0C79,9,78.9,9,78.9,8.8
			C79,8.6,78.9,8.4,78.9,8.1z"/>
		<path class="st1" d="M67.2,9.6c0,1.4-1,2.4-2.4,2.4c-1.3,0-2.3-1-2.3-2.4c0-1.4,1-2.4,2.3-2.3C66.3,7.2,67.3,8.2,67.2,9.6z"/>
		<path class="st1" d="M44,9.6c0-0.6,0-1.3,0-1.9c0-0.2,0.1-0.3,0.3-0.3c0.4,0,0.8,0,1.3,0c1,0.2,1.5,0.7,1.7,1.7
			c0.1,0.5,0.1,1-0.1,1.5c-0.3,0.8-1,1.3-1.9,1.3c-0.3,0-0.7,0-1,0c-0.2,0-0.2-0.1-0.2-0.2C44,10.9,44,10.2,44,9.6z"/>
		<path class="st1" d="M58.5,9.3c-0.8,0-0.8,0-0.8-0.7c0-0.3,0-0.7,0-1c0-0.2,0-0.2,0.2-0.2c0.4,0,0.8,0,1.2,0
			c0.3,0,0.5,0.1,0.7,0.3C60,7.8,60,8.1,60.1,8.3c0,0.2-0.1,0.5-0.3,0.7c-0.2,0.2-0.4,0.3-0.7,0.3C58.9,9.3,58.7,9.3,58.5,9.3z"/>
	</g>
</g>
</svg>
