<svg width="125" height="41" viewBox="0 0 125 41" fill="none" xmlns="http://www.w3.org/2000/svg">
<path d="M62.4661 40.6174H5.61073C2.42378 40.6174 0.00252068 38.2158 0.00158691 35.0517C0.00158691 25.2078 0.00158691 15.3633 0.00158691 5.51816C0.00158691 2.42084 2.44433 0.00439453 5.56872 0.00439453H119.372C122.559 0.00439453 124.98 2.40414 124.98 5.57011C124.98 15.4307 124.98 25.2907 124.98 35.15C124.985 36.3096 124.618 37.4406 123.931 38.3779C123.243 39.3152 122.273 40.0099 121.16 40.3605C120.597 40.5397 120.009 40.6289 119.418 40.6249C100.433 40.6193 81.4496 40.6168 62.4661 40.6174ZM50.8173 20.8174C49.2 20.6671 47.8516 21.1968 46.7442 22.501C46.719 22.053 46.6854 21.7042 46.6854 21.3545C46.6854 21.1217 46.6163 21.0243 46.3651 21.0326C45.8527 21.0493 45.3398 21.0493 44.8262 21.0326C44.5825 21.0252 44.5134 21.0948 44.5274 21.3443C44.6862 24.3071 44.6152 27.2727 44.6264 30.2374C44.6326 32.2163 44.6308 34.1927 44.6208 36.1667C44.6208 36.4682 44.7011 36.5582 45.0055 36.5378C45.5178 36.5118 46.0311 36.5118 46.5434 36.5378C46.8544 36.5526 46.9767 36.4858 46.9655 36.1435C46.9384 35.3569 46.9562 34.5666 46.9562 33.7818V31.1149C47.2288 31.3273 47.4305 31.5101 47.6565 31.6576C49.8499 33.0963 52.9687 32.383 54.304 30.0621C55.5412 27.9118 55.6029 25.6429 54.5608 23.4027C53.8576 21.8925 52.6409 20.9779 50.9191 20.835L50.8173 20.8174ZM9.18987 20.323C9.18987 24.0013 9.18987 27.6787 9.18987 31.3552C9.18987 32.8495 10.0956 33.7512 11.5934 33.7512C14.8448 33.7512 18.0962 33.7512 21.3475 33.7512C22.9153 33.7512 23.7996 32.87 23.8006 31.3088C23.8006 24.0004 23.8006 16.692 23.8006 9.38355C23.8006 7.82701 22.9181 6.94855 21.3429 6.9467C18.0915 6.9467 14.8401 6.9467 11.5887 6.9467C10.0807 6.9467 9.18707 7.83721 9.18614 9.3381C9.18676 12.9997 9.188 16.6613 9.18987 20.323ZM58.773 22.514L58.7413 22.0641C58.6712 21.0094 58.6712 21.0103 57.6133 21.0345C57.2724 21.0419 56.8242 20.9092 56.616 21.0762C56.3527 21.2858 56.602 21.7339 56.602 22.0799C56.602 25.2607 56.6169 28.4415 56.6235 31.6223C56.6235 33.1353 56.6328 34.6491 56.6169 36.1621C56.6169 36.4691 56.6972 36.56 57.0063 36.5452C57.5488 36.5192 58.0942 36.5257 58.6376 36.5452C58.8944 36.5535 58.9934 36.4905 58.9794 36.2168C58.9551 35.7697 58.9728 35.3217 58.9728 34.8736V31.1335C59.0466 31.1501 59.0858 31.1474 59.1017 31.165C60.6405 32.8764 64.0637 32.8904 65.8192 30.7476C67.5224 28.6697 67.6597 26.2857 66.7819 23.8442C65.4719 20.2042 60.8553 19.8666 58.7711 22.514H58.773ZM42.4236 32.1501C42.4853 32.1501 42.5478 32.1501 42.6104 32.1501C42.9456 32.1251 43.4032 32.2976 43.5815 32.0768C43.7459 31.8737 43.4424 31.4878 43.3397 31.1863C41.7398 26.5049 40.1372 21.8245 38.5317 17.1449C38.4383 16.8759 38.3216 16.7841 38.0405 16.7943C37.4345 16.8147 36.8266 16.8249 36.2215 16.7943C35.8723 16.7748 35.7463 16.9112 35.6435 17.221C34.9759 19.2247 34.2887 21.2218 33.6051 23.2199C32.6321 26.0646 31.6563 28.9093 30.6778 31.754C30.5844 32.0379 30.5442 32.1909 30.9457 32.1659C31.4895 32.1376 32.0343 32.1376 32.578 32.1659C32.8833 32.1798 32.9982 32.0574 33.086 31.7828C33.508 30.4554 33.9628 29.1409 34.3867 27.82C34.4735 27.551 34.5734 27.4295 34.8919 27.4341C36.3373 27.4545 37.7866 27.4517 39.2311 27.4341C39.5168 27.4341 39.6317 27.5269 39.7166 27.7857C40.0724 28.8701 40.4515 29.9461 40.8222 31.0258C41.2079 32.1501 41.2079 32.1501 42.4236 32.1501ZM72.6059 29.3311C72.4284 29.8821 72.2865 30.4155 72.082 30.9247C71.9522 31.2485 72.0456 31.3969 72.3332 31.5305C74.3754 32.4822 76.4791 32.716 78.6212 31.9516C80.231 31.3774 81.1928 30.1891 81.4291 28.5027C81.6653 26.8163 81.1302 25.4258 79.7025 24.4212C79.0096 23.9522 78.2622 23.5681 77.4764 23.2774C76.8414 23.0298 76.2111 22.77 75.6471 22.3767C74.9095 21.8619 74.5406 21.1764 74.7003 20.2775C74.8693 19.3211 75.5267 18.8221 76.4343 18.6347C77.6324 18.3832 78.8817 18.5735 79.949 19.1699C80.2291 19.323 80.2992 19.2627 80.3776 18.9955C80.5056 18.5521 80.6503 18.1115 80.8221 17.683C80.9155 17.4622 80.8818 17.3444 80.6652 17.2526C78.5259 16.3472 76.397 16.2322 74.2932 17.3453C72.3472 18.3815 71.3826 21.6253 73.4817 23.5687C74.3063 24.3321 75.2802 24.821 76.3185 25.2078C77.0478 25.4796 77.7677 25.7644 78.3644 26.282C78.6529 26.5303 78.8743 26.8465 79.0082 27.2015C79.1422 27.5566 79.1846 27.9394 79.1315 28.3149C79.0784 28.6905 78.9315 29.0468 78.7043 29.3515C78.477 29.6562 78.1765 29.8995 77.8303 30.0593C77.1188 30.3876 76.3662 30.4479 75.5967 30.3691C74.53 30.2683 73.5037 29.9121 72.6059 29.3311ZM99.6422 26.5083C99.6422 26.2616 99.6525 26.0139 99.6422 25.7662C99.6285 25.566 99.6008 25.3671 99.5591 25.1707C99.1324 23.0585 97.9717 21.5382 95.8287 20.9964C93.6017 20.4278 91.5856 20.886 90.058 22.7042C88.8366 24.1578 88.5537 25.8896 88.817 27.7133C89.1084 29.7374 90.1159 31.2874 92.0964 32.0193C94.077 32.7512 95.9604 32.4831 97.6309 31.1761C99.1398 29.9916 99.6413 28.3469 99.6422 26.5083ZM112.84 27.1011V27.1196C113.961 27.1196 115.081 27.1048 116.202 27.128C116.543 27.1354 116.645 27.0417 116.676 26.7031C116.724 26.1649 116.712 25.6231 116.642 25.0872C116.486 23.8971 116.096 22.7969 115.205 21.9472C113.26 20.092 109.804 20.4306 108.095 22.6448C106.862 24.2403 106.593 26.0696 106.897 28C107.136 29.5194 107.847 30.7912 109.222 31.5685C111.418 32.8106 113.675 32.4961 115.927 31.6984C116.128 31.6279 116.105 31.4776 116.063 31.319C115.961 30.9312 115.848 30.5463 115.764 30.1548C115.711 29.9071 115.614 29.8765 115.386 29.9693C114.452 30.3626 113.469 30.473 112.468 30.4563C110.555 30.4229 109.368 29.3895 109.097 27.5436C109.049 27.2226 109.097 27.0798 109.48 27.09C110.6 27.1159 111.721 27.1011 112.84 27.1011ZM88.239 30.2235C88.1625 30.2411 88.1036 30.2522 88.0457 30.268C86.4051 30.7253 85.7066 30.2364 85.6796 28.55C85.6516 26.7746 85.6796 24.9982 85.6665 23.2227C85.6665 22.9528 85.7514 22.8841 86.0101 22.8897C86.7403 22.9045 87.4715 22.8897 88.2017 22.898C88.4146 22.898 88.5126 22.8563 88.5052 22.6198C88.4911 22.1875 88.4939 21.7552 88.5052 21.3211C88.5136 21.0957 88.4323 21.0224 88.2101 21.0298C87.7908 21.0428 87.3697 21.0447 86.9514 21.0298C86.533 21.015 85.9924 21.2079 85.7421 20.9538C85.4919 20.6996 85.6861 20.1616 85.6693 19.7478C85.6506 19.3184 85.645 18.8879 85.6329 18.4575C85.1763 18.4575 84.7747 18.6662 84.3527 18.7924C83.3769 19.0846 83.3797 19.0929 83.3806 20.1068C83.3806 21.0345 83.3806 21.0345 82.4338 21.0345C81.7064 21.0345 81.6989 21.0345 81.7092 21.7497C81.7148 22.1207 81.5514 22.5938 81.7773 22.8192C82.0033 23.0446 82.4861 22.9018 82.8521 22.8804C83.2602 22.8563 83.3974 22.9556 83.3928 23.398C83.3704 25.346 83.3517 27.294 83.4152 29.2337C83.4572 30.5416 83.8578 31.7188 85.2827 32.1937C86.2445 32.5147 87.2109 32.4182 88.1671 32.1334C88.2913 32.0963 88.3903 32.049 88.3735 31.882C88.3259 31.3385 88.366 30.781 88.239 30.2235ZM103.179 22.5966C103.152 22.0901 103.118 21.7051 103.116 21.3202C103.116 21.1022 103.053 21.0261 102.824 21.0345C102.358 21.0512 101.891 21.0595 101.424 21.0345C101.106 21.0159 101.007 21.0873 101.021 21.4287C101.072 22.6037 101.098 23.7771 101.1 24.949C101.104 27.2198 101.093 29.4906 101.069 31.7614C101.069 32.062 101.136 32.1715 101.45 32.1594C101.993 32.1371 102.539 32.1381 103.082 32.1594C103.362 32.1705 103.422 32.0731 103.414 31.818C103.397 31.2939 103.404 30.768 103.414 30.2411C103.437 28.6641 103.344 27.0872 103.466 25.5167C103.559 24.296 104.377 23.3062 105.449 23.052C105.801 22.9815 106.163 22.9752 106.517 23.0335C106.77 23.065 106.842 22.9871 106.828 22.7394C106.806 22.3851 106.822 22.0289 106.822 21.6736C106.822 20.8081 106.702 20.7042 105.811 20.7942C105.749 20.7998 105.687 20.8118 105.624 20.822C104.567 20.9936 103.809 21.6003 103.184 22.5966H103.179ZM53.4459 12.1015C53.8194 12.6339 54.2349 12.8714 54.769 12.8927C55.7541 12.9308 56.5114 12.326 56.7589 11.3019C57.0334 10.1665 56.5871 8.98282 55.7411 8.61178C55.6707 8.57912 55.598 8.55183 55.5235 8.53014C54.7662 8.31865 54.1228 8.51901 53.5411 9.17948C53.5411 8.33442 53.5262 7.58583 53.5486 6.83817C53.5588 6.48753 53.3357 6.57379 53.1517 6.57287C52.9678 6.57194 52.753 6.49217 52.7549 6.83909C52.7651 8.75277 52.7549 10.6674 52.7455 12.5811C52.7455 12.7332 52.7754 12.7824 52.9379 12.8157C53.4888 12.9234 53.4337 12.5365 53.4459 12.1015ZM35.693 12.7582C35.0413 10.8591 34.3904 8.96365 33.7405 7.07193C33.6182 6.71201 33.3241 6.91794 33.1093 6.88084C32.9123 6.84652 32.7302 6.85301 32.6424 7.1248C32.4127 7.8604 32.1466 8.58488 31.8954 9.31491C31.5032 10.4633 31.112 11.6151 30.7217 12.7703C31.4986 12.8464 31.4976 12.8464 31.7198 12.1711C31.7684 12.0245 31.8132 11.8779 31.8655 11.7314C32.1251 10.9382 32.1251 10.9382 32.9496 10.9382C34.2625 10.9382 34.2625 10.9382 34.6594 12.172C34.8909 12.8742 34.8909 12.8742 35.693 12.7582ZM81.1582 9.15351C81.1582 8.31865 81.1386 7.5849 81.1667 6.85023C81.1797 6.50793 80.9799 6.56081 80.7829 6.57194C80.5858 6.58307 80.344 6.47918 80.3468 6.85765C80.3611 8.74195 80.3611 10.6259 80.3468 12.5096C80.3468 12.9215 80.6139 12.7786 80.8137 12.8093C81.0686 12.8473 81.1676 12.7675 81.161 12.4911C81.1414 11.7657 81.1508 11.0394 81.1554 10.314C81.1554 9.62474 81.6111 9.1164 82.2246 9.0997C82.8381 9.08301 83.2069 9.50322 83.2191 10.2861C83.2303 11.0125 83.2471 11.7397 83.2116 12.4633C83.1939 12.8343 83.3843 12.8065 83.6318 12.8111C83.8792 12.8157 84.0427 12.8213 84.0315 12.4864C84.0072 11.7443 84.0389 11.0023 84.0193 10.2602C84.0053 9.76481 83.9362 9.2741 83.5599 8.89099C82.9203 8.23423 81.9921 8.3103 81.1582 9.15351ZM98.8746 9.17762C98.8746 8.35575 98.856 7.64612 98.8821 6.93928C98.8943 6.61554 98.7738 6.55153 98.4834 6.55895C98.2163 6.56545 98.066 6.57472 98.0697 6.92258C98.0903 8.76112 98.0903 10.5994 98.0697 12.4373C98.0697 12.7601 98.1734 12.8195 98.4657 12.8083C98.7346 12.8018 98.8924 12.7926 98.8793 12.4466C98.8513 11.7045 98.8793 10.9624 98.8793 10.2203C98.8745 10.0418 98.9139 9.86491 98.994 9.7051C99.0741 9.5453 99.1925 9.40749 99.3387 9.30378C99.6571 9.06909 100.02 9.00416 100.393 9.18133C100.811 9.38077 100.935 9.76852 100.948 10.1804C100.971 10.9679 100.969 11.7573 100.948 12.544C100.94 12.8547 101.13 12.8139 101.308 12.7953C101.486 12.7768 101.738 12.9271 101.73 12.5597C101.712 11.6646 101.749 10.7666 101.694 9.86963C101.639 8.97262 100.982 8.39378 100.174 8.44017C99.6786 8.4782 99.264 8.69897 98.8746 9.17762ZM93.4887 9.86963C93.4887 10.749 93.5027 11.6321 93.4803 12.5068C93.4728 12.8185 93.6306 12.8195 93.8538 12.8055C94.0545 12.7926 94.2954 12.8881 94.2777 12.5152C94.2506 11.9586 94.2777 11.4021 94.2637 10.8501C94.2544 10.5718 94.3029 10.4392 94.6372 10.4707C95.2311 10.5264 95.8128 10.4448 96.3385 10.1247C96.6408 9.94659 96.8819 9.68202 97.0303 9.36558C97.1787 9.04915 97.2276 8.69558 97.1705 8.35112C97.0613 7.59325 96.628 7.12758 95.8903 6.94391C95.2012 6.77138 94.5046 6.84373 93.808 6.9031C93.5587 6.92444 93.4784 7.02369 93.484 7.27415C93.5008 8.14147 93.4896 9.00601 93.4887 9.86963ZM87.1671 10.8223C87.5714 10.8223 87.9757 10.8223 88.381 10.8223C88.5145 10.8223 88.6555 10.8538 88.7143 10.659C88.9272 9.95497 88.2913 8.76112 87.5583 8.54128C86.7973 8.31308 86.0904 8.4346 85.5488 9.0292C84.8606 9.78521 84.7645 10.6906 85.0819 11.6265C85.3471 12.415 85.9681 12.7907 86.7721 12.877C87.2531 12.9154 87.7372 12.8619 88.1979 12.7193C88.4519 12.6497 88.4557 12.5458 88.3987 12.3213C88.3361 12.0755 88.2241 12.0913 88.0401 12.1534C87.6534 12.2762 87.2433 12.3079 86.8421 12.2462C86.5697 12.2168 86.3141 12.1004 86.1138 11.9146C85.9135 11.7289 85.7792 11.4836 85.7309 11.2156C85.674 10.9373 85.687 10.7787 86.0493 10.8112C86.4116 10.8436 86.7935 10.8214 87.1671 10.8223ZM61.7116 10.8223C62.1308 10.8223 62.552 10.8223 62.9694 10.8223C63.1225 10.8223 63.2336 10.8047 63.2439 10.6052C63.3186 9.13124 62.3549 8.14704 60.9515 8.51623C59.7918 8.82142 59.153 10.2286 59.5826 11.5375C59.9738 12.7267 61.8106 13.364 62.8629 12.6812C63.0571 12.5551 62.9357 12.4122 62.9171 12.2731C62.8881 12.0634 62.7546 12.0978 62.6136 12.1451C62.2135 12.2744 61.7886 12.3093 61.3726 12.2471C61.0929 12.2135 60.832 12.0898 60.6296 11.895C60.4273 11.7002 60.2947 11.445 60.2521 11.1683C60.2129 10.9271 60.2465 10.7972 60.5453 10.8139C60.9338 10.8399 61.3222 10.8214 61.7116 10.8214V10.8223ZM114.549 10.8223H115.807C115.951 10.8223 116.061 10.8223 116.087 10.6164C116.191 9.83438 115.762 8.92253 115.117 8.61456C114.748 8.44714 114.336 8.39853 113.938 8.47556C113.541 8.55259 113.177 8.75138 112.899 9.04405C112.189 9.81861 112.112 11.3121 112.739 12.1423C113.305 12.89 114.7 13.1469 115.65 12.6989C115.897 12.5838 115.791 12.4373 115.766 12.2824C115.735 12.0885 115.628 12.0876 115.466 12.1414C115.08 12.2638 114.672 12.3011 114.27 12.2508C113.981 12.2249 113.71 12.1046 113.498 11.9089C113.286 11.7131 113.145 11.453 113.098 11.1692C113.051 10.9271 113.08 10.7982 113.383 10.8112C113.771 10.839 114.16 10.8214 114.547 10.8223H114.549ZM69.868 10.6164C69.8587 9.31769 69.0052 8.43274 67.7764 8.44666C66.5289 8.45965 65.6717 9.3919 65.6773 10.7286C65.6829 12.0198 66.5354 12.9029 67.7671 12.8918C69.0239 12.8798 69.8774 11.954 69.868 10.6164ZM102.638 10.6832C102.638 11.9929 103.468 12.8909 104.684 12.8927C105.954 12.8927 106.826 11.9892 106.831 10.6609C106.837 9.33254 105.985 8.4346 104.736 8.4448C103.508 8.45315 102.64 9.37984 102.638 10.6832ZM42.5861 12.2824C42.5944 12.4097 42.6141 12.536 42.6449 12.6599C42.7467 12.9382 42.9904 12.7592 43.1669 12.8009C43.306 12.8334 43.3537 12.7517 43.3453 12.6154C43.3126 11.6442 43.3107 10.672 43.2519 9.70266C43.2445 9.45234 43.1599 9.21032 43.0096 9.00927C42.8593 8.80822 42.6506 8.65782 42.4115 8.57838C41.7495 8.34091 41.1042 8.44202 40.4637 8.70547C40.1835 8.82142 40.3096 8.98375 40.3581 9.15258C40.4291 9.40025 40.5636 9.25369 40.6784 9.20638C41.0059 9.06127 41.3651 9.00126 41.7224 9.03199C42.0959 9.06816 42.3583 9.25925 42.4694 9.62566C42.5572 9.9123 42.5787 10.1127 42.1482 10.1127C41.5058 10.1127 40.8773 10.2342 40.374 10.6859C40.1794 10.8655 40.0428 11.0985 39.9814 11.3552C39.9201 11.612 39.9368 11.8811 40.0295 12.1284C40.205 12.5922 40.6457 12.8705 41.1967 12.8937C41.7233 12.9122 42.1603 12.7211 42.5861 12.2824ZM50.8593 12.2824C50.8845 12.4679 50.878 12.5811 50.9163 12.6747C51.0255 12.9447 51.2646 12.7675 51.442 12.8009C51.5876 12.8324 51.6073 12.7258 51.6045 12.5978C51.5867 11.7351 51.5933 10.8705 51.5606 10.0078C51.5251 9.10527 51.0797 8.59044 50.2533 8.46892C49.7351 8.39378 49.2402 8.5051 48.7537 8.69062C48.4941 8.78895 48.5398 8.93273 48.6033 9.12197C48.6836 9.35944 48.8106 9.26575 48.961 9.20081C49.2461 9.07571 49.5562 9.01671 49.8676 9.02828C50.3859 9.04868 50.652 9.27873 50.7613 9.73605C50.8322 10.031 50.7491 10.1071 50.4494 10.1071C49.8705 10.1071 49.3065 10.2119 48.8125 10.5459C48.569 10.7008 48.3839 10.9313 48.2858 11.2015C48.1877 11.4718 48.1821 11.7666 48.27 12.0403C48.438 12.5838 48.876 12.8751 49.5091 12.8965C50.0236 12.9094 50.4354 12.6989 50.864 12.2805L50.8593 12.2824ZM108.436 9.25833C108.436 9.03292 108.428 8.94479 108.436 8.85852C108.479 8.46799 108.199 8.56447 107.98 8.54406C107.647 8.51252 107.751 8.72958 107.752 8.90212C107.757 10.0746 107.763 11.2471 107.752 12.4197C107.752 12.6887 107.769 12.838 108.112 12.8176C108.393 12.8009 108.556 12.7972 108.54 12.4354C108.509 11.6933 108.516 10.9512 108.54 10.2138C108.56 9.57835 109.035 9.10063 109.616 9.08857C110.197 9.07651 110.55 9.44571 110.605 10.1368C110.619 10.3056 110.614 10.4754 110.614 10.6451C110.614 11.2778 110.626 11.9104 110.614 12.543C110.607 12.8389 110.79 12.8343 110.975 12.8C111.134 12.7712 111.42 12.9614 111.416 12.5857C111.41 11.7063 111.449 10.8232 111.388 9.94847C111.323 8.99488 110.669 8.40863 109.831 8.45037C109.285 8.47542 108.851 8.70918 108.436 9.25647V9.25833ZM71.4909 9.18226C71.4745 9.0627 71.467 8.94208 71.4685 8.82142C71.5124 8.47727 71.2659 8.56725 71.0782 8.54313C70.8158 8.50974 70.7794 8.62754 70.7822 8.85759C70.7953 10.0635 70.8112 11.2694 70.7822 12.4753C70.7738 12.8593 70.9764 12.8 71.2108 12.813C71.4657 12.826 71.5993 12.7963 71.5843 12.4772C71.5554 11.7351 71.5656 10.993 71.5768 10.2509C71.5862 9.60989 72.0325 9.12382 72.6143 9.09043C73.196 9.05703 73.548 9.39376 73.6414 10.1025C73.6616 10.2873 73.67 10.4732 73.6666 10.659C73.6666 11.2926 73.6788 11.9262 73.6666 12.5588C73.6573 12.9206 73.9103 12.7944 74.0821 12.8046C74.254 12.8148 74.4557 12.877 74.4482 12.5588C74.4277 11.6943 74.4725 10.8269 74.4267 9.96146C74.3632 8.76112 73.266 8.1155 72.2025 8.60806C71.9457 8.72587 71.7543 8.92253 71.4909 9.18041V9.18226ZM35.6744 8.56354C36.1702 9.86221 36.653 11.1312 37.131 12.3965C37.2244 12.6293 37.2702 12.8278 37.6231 12.8213C37.9761 12.8148 38.1236 12.7035 38.2086 12.3918C38.2821 12.1729 38.3671 11.958 38.4635 11.7481C38.8781 10.6924 39.2909 9.63587 39.7101 8.56818C38.9089 8.5153 38.9136 8.51716 38.6727 9.21195C38.3599 10.1145 38.0387 11.0143 37.7034 11.9651L36.7314 9.2036C36.4923 8.52551 36.4923 8.52643 35.6744 8.56354ZM77.6781 10.6043H77.6837C77.6837 10.9902 77.6641 11.3779 77.6837 11.762C77.7379 12.6599 78.3373 13.0764 79.2244 12.8751C79.4653 12.8195 79.4905 12.6989 79.4877 12.4846C79.4877 12.223 79.3551 12.2443 79.1647 12.2508C78.6418 12.2685 78.4569 12.0941 78.4447 11.5764C78.4317 11.0199 78.4447 10.4633 78.4447 9.90673C78.4447 9.16464 78.4447 9.16464 79.1833 9.15536C79.5092 9.1498 79.6754 8.92438 79.5307 8.65908C79.4158 8.44944 79.188 8.53757 79.0292 8.5589C78.5456 8.62383 78.3541 8.4513 78.441 7.97079C78.449 7.8782 78.449 7.7851 78.441 7.6925C78.4434 7.67796 78.4426 7.66309 78.4389 7.64884C78.4351 7.63459 78.4285 7.62127 78.4192 7.60975C78.41 7.59822 78.3984 7.58873 78.3853 7.5819C78.3722 7.57506 78.3577 7.57103 78.3429 7.57006C78.088 7.51626 77.6641 7.82144 77.6781 8.07932C77.6949 8.39471 77.6669 8.63589 77.2495 8.54963C77.0319 8.50696 76.9824 8.64239 76.9974 8.82327C77.0095 8.96984 76.9554 9.18133 77.2038 9.14237C77.7267 9.05889 77.694 9.3817 77.6781 9.72306C77.6631 10.0116 77.6781 10.3056 77.6781 10.6043ZM57.7403 9.63308C57.7403 10.5746 57.758 11.5152 57.7309 12.4558C57.7207 12.8018 57.8738 12.812 58.1418 12.8157C58.4098 12.8195 58.5526 12.7851 58.5489 12.4503C58.5321 10.595 58.5293 8.74813 58.5489 6.89753C58.5545 6.50515 58.3341 6.584 58.11 6.56823C57.8579 6.55153 57.7188 6.58214 57.7281 6.90403C57.7571 7.80846 57.7403 8.71845 57.7403 9.62845V9.63308ZM46.5192 9.64978C46.5192 10.5932 46.5416 11.5366 46.5089 12.4781C46.4949 12.864 46.7078 12.7935 46.9384 12.812C47.2185 12.8352 47.3119 12.7694 47.3119 12.467C47.297 10.6117 47.2914 8.75648 47.3119 6.90125C47.3119 6.51536 47.1093 6.58493 46.8787 6.56452C46.5985 6.5404 46.5051 6.61183 46.5051 6.91238C46.5332 7.82144 46.5192 8.73422 46.5192 9.64514V9.64978ZM92.2384 10.7147C92.2384 10.0969 92.2187 9.47817 92.2467 8.85945C92.2626 8.50695 92.06 8.5487 91.8359 8.54499C91.6118 8.54128 91.4232 8.50695 91.4297 8.85852C91.4521 10.078 91.4521 11.2982 91.4297 12.5189C91.4241 12.8965 91.6622 12.7972 91.8583 12.8065C92.0544 12.8157 92.2589 12.8482 92.2458 12.5198C92.2234 11.915 92.2393 11.3121 92.2384 10.7101V10.7147ZM45.2903 10.6971C45.2903 10.0811 45.2698 9.46426 45.2987 8.85017C45.3155 8.49118 45.1017 8.54499 44.8888 8.54313C44.6759 8.54128 44.4695 8.49861 44.4761 8.85388C44.4979 10.0697 44.4979 11.2858 44.4761 12.5022C44.4695 12.8593 44.675 12.8046 44.8897 12.8065C45.1045 12.8083 45.3137 12.8482 45.2978 12.4976C45.2707 11.8974 45.2903 11.2963 45.2903 10.6971ZM91.3251 7.26487C91.3494 7.56728 91.5025 7.76022 91.8126 7.76857C92.1487 7.77692 92.3336 7.57006 92.328 7.25467C92.328 6.95968 92.1412 6.76674 91.8256 6.77509C91.51 6.78344 91.3559 6.95968 91.3279 7.26487H91.3251ZM44.8879 6.76674C44.5993 6.79828 44.392 6.93278 44.3836 7.24725C44.3762 7.54687 44.5321 7.75002 44.843 7.76764C45.1764 7.78619 45.3734 7.59047 45.38 7.27322C45.3884 6.97638 45.2044 6.80106 44.8879 6.76674Z" fill="#3BC8D0"/>
<path d="M22.0524 20.2656C22.0524 22.863 22.0468 25.4603 22.0599 28.0511C22.0599 28.3832 21.9955 28.4964 21.6304 28.4955C18.2065 28.4788 14.7849 28.4788 11.3654 28.4955C11.0237 28.4955 10.9266 28.425 10.9275 28.0697C10.9406 22.8639 10.9406 17.6578 10.9275 12.4514C10.9275 12.0144 11.0666 11.9616 11.4495 11.9634C14.8241 11.9783 18.1991 11.9783 21.5743 11.9634C21.9534 11.9634 22.0683 12.0404 22.0655 12.4356C22.044 15.044 22.0533 17.6544 22.0524 20.2656Z" fill="#3BC8D0"/>
<path d="M16.4388 32.1252C16.2443 32.1204 16.0529 32.0765 15.876 31.9961C15.699 31.9158 15.5403 31.8007 15.4094 31.6577C15.2785 31.5148 15.1781 31.3469 15.1143 31.1644C15.0505 30.9818 15.0246 30.7883 15.0382 30.5955C15.0552 30.2135 15.2236 29.8537 15.5066 29.5946C15.7897 29.3355 16.1644 29.1981 16.549 29.2124C16.7432 29.2214 16.9337 29.2683 17.1096 29.3504C17.2855 29.4326 17.4434 29.5484 17.5742 29.6913C17.705 29.8341 17.8062 30.0012 17.8719 30.183C17.9376 30.3647 17.9666 30.5576 17.9571 30.7504C17.9383 31.1324 17.768 31.4914 17.4835 31.749C17.199 32.0066 16.8234 32.1418 16.4388 32.1252Z" fill="#3BC8D0"/>
<path d="M64.9098 26.5667C64.8724 27.4341 64.766 28.3292 64.2636 29.1363C63.5876 30.2169 62.3961 30.7002 61.1233 30.4062C60.5603 30.2708 60.0538 29.9641 59.6748 29.5288C59.2958 29.0936 59.0631 28.5516 59.0093 27.9786C58.9161 27.0714 58.9251 26.1566 59.0364 25.2514C59.121 24.611 59.4165 24.0165 59.8767 23.5603C60.3369 23.1041 60.9361 22.8119 61.5809 22.7292C62.9096 22.5706 64.0302 23.2913 64.554 24.6169C64.7872 25.241 64.9077 25.9011 64.9098 26.5667Z" fill="#3BC8D0"/>
<path d="M46.972 26.7168C46.972 26.1602 46.9215 25.6037 47.0467 25.0564C47.3268 23.8069 48.3904 22.8208 49.5678 22.7271C50.9629 22.6167 52.0274 23.2837 52.526 24.6315C53.0928 26.1704 53.0564 27.7001 52.2244 29.1407C51.5801 30.2538 50.2952 30.7269 49.044 30.3958C48.4704 30.2395 47.9613 29.907 47.5896 29.4458C47.2179 28.9845 47.0027 28.4183 46.9748 27.8281C46.9551 27.4589 46.972 27.0879 46.972 26.7168Z" fill="#3BC8D0"/>
<path d="M37.0442 19.5093C37.5904 21.5565 38.386 23.5147 39.0518 25.5472H35.0674C35.7033 23.5175 36.4905 21.5575 37.0442 19.5093Z" fill="#3BC8D0"/>
<path d="M97.2547 26.5174C97.2547 27.5925 97.0287 28.5368 96.4143 29.3698C95.2648 30.9347 93.0854 30.9523 91.9238 29.4032C90.7743 27.8689 90.8089 25.1668 91.9985 23.6603C93.3412 21.9591 95.911 22.3811 96.8457 24.4618C97.1337 25.1084 97.2734 25.8105 97.2547 26.5174Z" fill="#3BC8D0"/>
<path d="M111.753 25.3265H109.425C109.272 25.3265 109.103 25.371 109.158 25.1029C109.461 23.6187 110.549 22.2273 112.482 22.5844C113.59 22.7904 114.452 23.9564 114.418 25.1001C114.411 25.3376 114.296 25.3283 114.129 25.3274C113.333 25.3237 112.545 25.3256 111.753 25.3265Z" fill="#3BC8D0"/>
<path d="M53.5419 10.6451C53.512 10.2843 53.554 9.87798 53.8304 9.52734C54.3431 8.878 55.3301 8.9049 55.7549 9.6201C56.1667 10.3084 56.149 11.0329 55.7549 11.7267C55.4963 12.185 54.9463 12.3761 54.4271 12.2406C54.1876 12.1739 53.9744 12.0361 53.816 11.8456C53.6576 11.6551 53.5616 11.421 53.541 11.1748C53.5335 11.0162 53.5419 10.8622 53.5419 10.6451Z" fill="#3BC8D0"/>
<path d="M33.1988 7.58838C33.4032 8.39887 33.658 9.19598 33.9617 9.97514C34.0756 10.285 33.9944 10.3462 33.6928 10.3341C33.2474 10.3147 32.8001 10.3295 32.3164 10.3295C32.6096 9.42043 32.8851 8.56331 33.1988 7.58838Z" fill="#3BC8D0"/>
<path d="M94.2693 8.65621C94.2693 8.44008 94.3019 8.21838 94.2627 8.00688C94.1693 7.52452 94.4439 7.44381 94.8314 7.42712C95.8436 7.38352 96.4188 7.85104 96.3861 8.69703C96.36 9.27215 96.036 9.65526 95.4393 9.79997C95.3022 9.82854 95.1628 9.84499 95.0228 9.84913C94.2674 9.89644 94.2674 9.89458 94.2674 9.16455V8.65621H94.2693Z" fill="#3BC8D0"/>
<path d="M86.8141 10.2332C86.5666 10.2332 86.3164 10.2127 86.0671 10.2332C85.6581 10.2749 85.6758 10.0922 85.7944 9.80459C86.04 9.20906 86.4863 8.915 87.0494 8.99756C87.5163 9.0662 87.8478 9.44096 87.9206 9.9493C87.9496 10.1478 87.9141 10.2396 87.6937 10.2276C87.4042 10.2332 87.1092 10.2332 86.8141 10.2332Z" fill="#3BC8D0"/>
<path d="M61.322 10.239H60.7618C60.166 10.239 60.1315 10.1741 60.4219 9.62773C60.6674 9.16392 61.1175 8.92923 61.604 9.00901C62.0709 9.086 62.394 9.45148 62.4687 9.9626C62.4967 10.1481 62.4687 10.2511 62.2446 10.2409C61.9364 10.226 61.6264 10.2409 61.3173 10.2409L61.322 10.239Z" fill="#3BC8D0"/>
<path d="M114.182 10.2385H113.528C113.026 10.2385 113.002 10.1958 113.22 9.7246C113.46 9.20699 113.879 8.94725 114.388 8.9992C114.844 9.04651 115.157 9.35541 115.291 9.8591C115.362 10.1225 115.34 10.2673 115.011 10.2413C114.731 10.2199 114.451 10.2366 114.177 10.2366L114.182 10.2385Z" fill="#3BC8D0"/>
<path d="M66.4812 10.7164C66.4756 9.69599 67.0163 9.01233 67.7885 9.0281C68.5421 9.04294 69.0519 9.7099 69.0435 10.6783C69.0459 10.8339 69.0324 10.9893 69.0034 11.1421C68.854 11.8629 68.3217 12.348 67.7129 12.323C67.1041 12.298 66.5765 11.7405 66.499 11.0067C66.4896 10.8963 66.4859 10.7896 66.4812 10.7164Z" fill="#3BC8D0"/>
<path d="M106.009 10.6692C106.015 10.8751 105.986 11.0806 105.923 11.2768C105.718 11.9335 105.222 12.35 104.667 12.3194C104.08 12.286 103.594 11.8065 103.477 11.1367C103.391 10.7104 103.427 10.2685 103.584 9.86217C103.803 9.31951 104.237 9.0069 104.753 9.02731C105.313 9.05143 105.666 9.36589 105.866 9.86866C105.974 10.1212 106.023 10.395 106.009 10.6692Z" fill="#3BC8D0"/>
<path d="M42.5254 11.1218C42.5254 11.7971 42.2453 12.1932 41.6953 12.3027C41.3218 12.3769 40.9828 12.3129 40.8026 11.9196C40.7202 11.7444 40.7046 11.5454 40.7587 11.3596C40.8128 11.1738 40.9329 11.0139 41.0967 10.9094C41.4768 10.6654 41.9147 10.6209 42.3443 10.6441C42.7066 10.6636 42.4274 10.9929 42.5254 11.1218Z" fill="#3BC8D0"/>
<path d="M50.8098 11.0799C50.8051 11.784 50.5026 12.2061 49.9395 12.309C49.5772 12.3758 49.2411 12.309 49.0748 11.938C48.9086 11.5669 48.9665 11.2079 49.3111 10.9482C49.7042 10.6514 50.1795 10.6208 50.6426 10.6421C50.9872 10.6597 50.7005 10.9798 50.8098 11.0799Z" fill="#3BC8D0"/>
</svg>
