<?xml version="1.0" encoding="utf-8"?>
<!-- Generator: Adobe Illustrator 25.4.1, SVG Export Plug-In . SVG Version: 6.00 Build 0)  -->
<svg version="1.1" id="Layer_1" xmlns="http://www.w3.org/2000/svg" xmlns:xlink="http://www.w3.org/1999/xlink" x="0px" y="0px"
	 viewBox="0 0 535 445" style="enable-background:new 0 0 535 445;" xml:space="preserve">
<style type="text/css">
	.st0{fill:#42E8E0;}
	.st1{fill:url(#SVGID_1_);}
	.st2{fill:#24126A;}
	.st3{fill:#FFFFFF;}
	.st4{opacity:0.51;fill:#453C9E;enable-background:new    ;}
	.st5{opacity:0.8;fill:url(#SVGID_00000091712331583913569250000017530757797647611275_);enable-background:new    ;}
	.st6{opacity:0.3;}
	.st7{opacity:0.5;fill:url(#SVGID_00000173145284680670717190000006447443521551951278_);enable-background:new    ;}
	.st8{fill:#9FFFF8;}
	.st9{opacity:0.4;fill:#24126A;enable-background:new    ;}
	.st10{fill:url(#SVGID_00000132772371393379756290000003824912307995611049_);}
	.st11{opacity:0.3;fill:#FFFFFF;enable-background:new    ;}
	.st12{fill:url(#SVGID_00000145041864141173995030000003530249276040339637_);}
	.st13{opacity:0.4;fill:#42E8E0;enable-background:new    ;}
	.st14{fill:url(#SVGID_00000022543995191062190610000014381623892558132915_);}
	.st15{fill:url(#SVGID_00000051357345207082591300000006622867828838456738_);}
	.st16{fill:#5351AF;}
	.st17{fill:url(#SVGID_00000032643008787920672060000013559779749802409887_);}
	.st18{fill:url(#SVGID_00000053536988216196248120000005973198991560019898_);}
	.st19{fill:url(#SVGID_00000112631853171403983860000013143080589750752653_);}
	.st20{fill:url(#SVGID_00000012472660676582986840000012162592729169300890_);}
	.st21{opacity:0.1;}
	.st22{opacity:0.2;fill:#42E8E0;enable-background:new    ;}
</style>
<path class="st0" d="M216.8,377.2c-3.8,0.1-7.5-0.8-10.8-2.5L64,292.5c-2.9-1.7-4.4-3.9-4.4-6.5c0-3,2.3-6,6.2-8.3l270.7-156.6
	c7.4-4.3,18.5-4.6,24.9-1l141.9,82.1c2.8,1.7,4.4,3.9,4.4,6.5c0,3.1-2.3,6.1-6.2,8.3L230.9,373.7C226.6,376,221.7,377.2,216.8,377.2
	z M206.3,374.1c6.2,3.6,17.1,3.1,24.3-1l270.7-156.6c3.7-2.1,5.9-5,5.9-7.7c-0.1-1.3-0.5-2.5-1.2-3.5s-1.7-1.9-2.9-2.4l-141.9-82.2
	c-6.2-3.6-17.1-3.1-24.3,1L66.1,278.3c-3.7,2.2-5.9,5-5.9,7.7c0,2.3,1.5,4.4,4.1,5.9L206.3,374.1z"/>
<linearGradient id="SVGID_1_" gradientUnits="userSpaceOnUse" x1="60" y1="471.2703" x2="507.5" y2="471.2703" gradientTransform="matrix(1 0 0 1 0 -246)">
	<stop  offset="0" style="stop-color:#BCBEFF"/>
	<stop  offset="0.15" style="stop-color:#A3A7F5"/>
	<stop  offset="0.39" style="stop-color:#8289E8"/>
	<stop  offset="0.61" style="stop-color:#6A73DF"/>
	<stop  offset="0.82" style="stop-color:#5C66D9"/>
	<stop  offset="1" style="stop-color:#5761D7"/>
</linearGradient>
<path class="st1" d="M507.4,170.7l-20.4,3.5l-125.8-72.8c-6.3-3.6-17.3-3.2-24.7,1L96,241.8L60,248v12.8c0,2.3,1.4,4.6,4.2,6.2
	l141.9,82.1c6.3,3.7,17.3,3.2,24.7-1l270.7-156.7c3.9-2.3,6-5.2,6-7.9L507.4,170.7z"/>
<path class="st2" d="M206.1,336.3L64.2,254.1c-6.3-3.7-5.5-10,1.8-14.2L336.6,83.2c7.3-4.2,18.3-4.6,24.7-1l141.9,82.1
	c6.3,3.7,5.5,10-1.8,14.3L230.7,335.3C223.4,339.5,212.4,339.9,206.1,336.3z"/>
<path class="st3" d="M501.4,178.6L230.7,335.3c-7.3,4.2-18.3,4.6-24.7,1L64.1,254.1c-1.1-0.5-2-1.3-2.7-2.2s-1.2-2-1.5-3.2
	c-0.4,2.6,1,5.2,4.2,7.1L206,337.9c6.3,3.7,17.3,3.2,24.7-1l270.7-156.7c4.4-2.5,6.4-5.8,6-8.9C507,173.9,505,176.6,501.4,178.6z"/>
<path class="st4" d="M206.4,333.1L69.5,253.9c-6.2-3.5-5.3-9.7,1.7-13.8L336.9,86.3c7-4.1,17.7-4.5,23.8-1l136.8,79.2
	c6.2,3.5,5.3,9.7-1.7,13.8L230.2,332.1C223.2,336.2,212.5,336.6,206.4,333.1z"/>
<linearGradient id="SVGID_00000139986936955493763420000017245484419482347701_" gradientUnits="userSpaceOnUse" x1="346.2391" y1="534.6159" x2="220.9405" y2="368.7572" gradientTransform="matrix(1 0 0 1 0 -246)">
	<stop  offset="0" style="stop-color:#42E8E0"/>
	<stop  offset="0.11" style="stop-color:#37B6BF"/>
	<stop  offset="0.22" style="stop-color:#2C87A1"/>
	<stop  offset="0.34" style="stop-color:#235F87"/>
	<stop  offset="0.46" style="stop-color:#1C3F72"/>
	<stop  offset="0.58" style="stop-color:#162561"/>
	<stop  offset="0.71" style="stop-color:#121355"/>
	<stop  offset="0.85" style="stop-color:#10084E"/>
	<stop  offset="1" style="stop-color:#0F054C"/>
</linearGradient>
<path style="opacity:0.8;fill:url(#SVGID_00000139986936955493763420000017245484419482347701_);enable-background:new    ;" d="
	M216.7,332.4c-3.7,0.1-7.3-0.7-10.6-2.4L69.3,250.8c-1.2-0.6-2.3-1.5-3-2.6c-0.8-1.1-1.2-2.4-1.3-3.8c0-3,2.2-6,6-8.2L336.7,82.4
	c7.2-4.1,18.1-4.6,24.3-1l136.9,79.2c1.2,0.6,2.3,1.5,3,2.6c0.8,1.1,1.2,2.4,1.3,3.8c0,3-2.2,6-6.1,8.2L230.4,328.9
	C226.2,331.2,221.5,332.4,216.7,332.4z M206.6,329.2c6,3.5,16.5,3,23.4-1l265.6-153.7c3.6-2.1,5.6-4.8,5.6-7.4
	c-0.1-1.2-0.5-2.4-1.2-3.3c-0.7-1-1.6-1.8-2.7-2.3L360.5,82.2c-6-3.5-16.5-3.1-23.4,1L71.5,236.9c-3.6,2.1-5.6,4.8-5.6,7.4
	c0.1,1.2,0.5,2.4,1.2,3.3c0.7,1,1.6,1.8,2.7,2.3L206.6,329.2z"/>
<g class="st6">
	
		<radialGradient id="SVGID_00000111899742132138433870000006875406640747857326_" cx="-75.7915" cy="-49.0033" r="0.9603" gradientTransform="matrix(364.711 0 0 365.662 27903.2617 18120.4648)" gradientUnits="userSpaceOnUse">
		<stop  offset="0" style="stop-color:#42E8E0"/>
		<stop  offset="0.11" style="stop-color:#37B6BF"/>
		<stop  offset="0.22" style="stop-color:#2C87A1"/>
		<stop  offset="0.34" style="stop-color:#235F87"/>
		<stop  offset="0.46" style="stop-color:#1C3F72"/>
		<stop  offset="0.58" style="stop-color:#162561"/>
		<stop  offset="0.71" style="stop-color:#121355"/>
		<stop  offset="0.85" style="stop-color:#10084E"/>
		<stop  offset="1" style="stop-color:#0F054C"/>
	</radialGradient>
	<path style="opacity:0.5;fill:url(#SVGID_00000111899742132138433870000006875406640747857326_);enable-background:new    ;" d="
		M206.4,329.6L69.5,250.3c-6.2-3.5-5.3-9.7,1.7-13.8L336.9,82.8c7-4.1,17.7-4.5,23.8-1L497.6,161c6.2,3.5,5.3,9.7-1.7,13.8
		L230.2,328.6C223.2,332.7,212.5,333.1,206.4,329.6z"/>
	<g>
		<path class="st8" d="M406.6,252.3l-2-0.3c-0.2-0.2-0.4-0.3-0.7-0.4l-152.3-88.1c-3.9-2.3-10.8-2-15.4,0.6l-88.8,51.4
			c-1,0.6-2,1.4-2.7,2.3l-1-0.3v3.1c0.1,0.8,0.3,1.6,0.8,2.3s1.1,1.2,1.8,1.6l152.3,88.1c3.9,2.3,10.8,2,15.4-0.6l88.9-51.4
			c2.5-1.5,3.8-3.4,3.7-5.1V252.3z"/>
		<path class="st0" d="M298.6,309.5l-152.3-88.1c-3.9-2.3-3.4-6.2,1.1-8.9l88.8-51.4c4.5-2.6,11.4-2.9,15.4-0.6l152.3,88.1
			c3.9,2.3,3.4,6.2-1.1,8.9L314,308.9C309.4,311.4,302.5,311.7,298.6,309.5z"/>
		<path class="st3" d="M198.2,229.1l-18.8-10.8c-1.8-1-1.5-2.8,0.5-3.9c1-0.6,2.2-0.9,3.4-1s2.4,0.2,3.4,0.7l18.8,10.8
			c1.8,1,1.5,2.8-0.5,4c-1,0.6-2.2,0.9-3.4,1C200.4,229.9,199.3,229.6,198.2,229.1z"/>
		<path class="st3" d="M232.9,249.2l-18.8-10.8c-1.8-1-1.5-2.8,0.5-4c1-0.6,2.2-0.9,3.4-1c1.2,0,2.4,0.2,3.4,0.7l18.8,10.8
			c1.7,1,1.5,2.8-0.5,3.9c-1,0.6-2.2,0.9-3.4,1C235.1,249.9,234,249.7,232.9,249.2z"/>
		<path class="st3" d="M267.6,269.3l-18.8-10.8c-1.7-1-1.5-2.8,0.5-4c1-0.6,2.2-0.9,3.4-0.9s2.4,0.2,3.4,0.7l18.8,10.8
			c1.8,1,1.5,2.8-0.5,4c-1,0.6-2.2,0.9-3.4,1C269.8,270,268.6,269.8,267.6,269.3z"/>
		<path class="st3" d="M302.3,289.4l-18.8-10.9c-1.7-1-1.5-2.8,0.5-3.9c1-0.6,2.2-0.9,3.4-1c1.2,0,2.4,0.2,3.4,0.7l18.8,10.8
			c1.8,1,1.5,2.8-0.5,3.9c-1,0.6-2.2,0.9-3.4,1S303.4,289.9,302.3,289.4z"/>
	</g>
</g>
<path class="st9" d="M468.4,174.2c-1.2,0.6-2.5,0.9-3.8,0.9s-2.6-0.3-3.8-0.9c-2.1-1.2-2.1-3.1,0-4.4c1.2-0.6,2.5-0.9,3.8-0.9
	s2.6,0.3,3.8,0.9C470.4,171,470.4,173,468.4,174.2z"/>
<path class="st9" d="M439.5,153.1l14.8,8.6c1.8,1.1,1.5,2.9-0.5,4.1c-1.1,0.6-2.3,0.9-3.5,1s-2.4-0.2-3.6-0.7l-14.8-8.6
	c-1.8-1.1-1.5-2.9,0.5-4.1c1.1-0.6,2.3-0.9,3.5-1C437.1,152.4,438.3,152.6,439.5,153.1z"/>
<path class="st9" d="M356.3,103.9l14.8,8.6c1.8,1.1,1.5,2.9-0.5,4.1c-1.1,0.6-2.3,0.9-3.5,1s-2.4-0.2-3.6-0.7l-14.8-8.6
	c-1.8-1-1.5-2.9,0.5-4.1c1.1-0.6,2.3-0.9,3.5-1C353.9,103.2,355.1,103.4,356.3,103.9z"/>
<path class="st0" d="M468.4,168.9c-1.2,0.6-2.5,0.9-3.8,0.9s-2.6-0.3-3.8-0.9c-2.1-1.2-2.1-3.2,0-4.4c1.2-0.6,2.5-0.9,3.8-0.9
	s2.6,0.3,3.8,0.9C470.4,165.8,470.4,167.7,468.4,168.9z"/>
<path class="st0" d="M439.5,147.8l14.8,8.6c1.8,1,1.5,2.9-0.5,4.1c-1.1,0.6-2.3,0.9-3.5,1s-2.4-0.2-3.6-0.7l-14.8-8.6
	c-1.8-1-1.5-2.9,0.5-4.1c1.1-0.6,2.3-0.9,3.5-1S438.3,147.3,439.5,147.8z"/>
<path class="st0" d="M356.3,98.6l14.8,8.6c1.8,1.1,1.5,2.9-0.5,4.1c-1.1,0.6-2.3,0.9-3.5,1s-2.4-0.2-3.6-0.7l-14.8-8.6
	c-1.8-1.1-1.5-2.9,0.5-4.1c1.1-0.6,2.3-0.9,3.5-1S355.1,98.1,356.3,98.6z"/>
<g class="st6">
	
		<linearGradient id="SVGID_00000024723520575607671130000015063679889448899004_" gradientUnits="userSpaceOnUse" x1="18.3204" y1="608.2853" x2="81.2503" y2="644.5367" gradientTransform="matrix(1 0 0 1 0 -246)">
		<stop  offset="0" style="stop-color:#BCBEFF"/>
		<stop  offset="0.23" style="stop-color:#AAADF8"/>
		<stop  offset="0.68" style="stop-color:#7C83E5"/>
		<stop  offset="1" style="stop-color:#5761D7"/>
	</linearGradient>
	<path style="fill:url(#SVGID_00000024723520575607671130000015063679889448899004_);" d="M89.7,382.9v-7l-1.9-1.1
		c-0.5,3.3-4.4,5.4-7.6,5.9l-21.9,12.8l-9.5,3.4l-30.4-15.7l0.7-0.4c-2.6-1.2-4-4-5.4-6.6l-2.1,1.2l-1.2,0.4v7.1
		c0.1,0.8,0.4,1.6,0.8,2.2c0.5,0.7,1.1,1.2,1.8,1.5l30.5,17.7c2,1,4.2,1.6,6.5,1.6c2.2,0,4.5-0.5,6.5-1.6L87,386.8
		c0.7-0.3,1.4-0.8,1.8-1.5c0.5-0.6,0.8-1.4,0.9-2.2C89.7,383,89.7,383,89.7,382.9L89.7,382.9z"/>
	<path class="st11" d="M80.2,380.8l-21.9,12.8l-8.3,3v9.4c2.3,0,4.5-0.5,6.5-1.5L87,386.8c0.7-0.3,1.4-0.8,1.8-1.5
		c0.5-0.6,0.8-1.4,0.9-2.2c0-0.1,0-0.1,0-0.2v-7l-1.8-1h-0.2C87.2,378.2,83.4,380.4,80.2,380.8z"/>
	
		<linearGradient id="SVGID_00000078739376138135320480000004854301363121765821_" gradientUnits="userSpaceOnUse" x1="10.4" y1="622" x2="89.7" y2="622" gradientTransform="matrix(1 0 0 1 0 -246)">
		<stop  offset="0" style="stop-color:#E9E9FD"/>
		<stop  offset="0.36" style="stop-color:#D3D2F9"/>
		<stop  offset="0.71" style="stop-color:#C5C4F7"/>
		<stop  offset="1" style="stop-color:#C0BFF6"/>
	</linearGradient>
	<path style="fill:url(#SVGID_00000078739376138135320480000004854301363121765821_);" d="M43.6,397.4l-30.5-17.7
		c-3.6-2.1-3.6-5.4,0-7.5l30.5-17.7c2-1,4.2-1.5,6.5-1.5c2.2,0,4.5,0.5,6.5,1.5L87,372.3c3.6,2.1,3.6,5.4,0,7.5l-30.5,17.7
		c-2,1-4.2,1.5-6.5,1.5C47.8,399,45.6,398.4,43.6,397.4z"/>
	<g class="st6">
		<path class="st3" d="M43.6,397.4l-30.5-17.7c-3.6-2.1-3.6-5.4,0-7.5l30.5-17.7c2-1,4.2-1.5,6.5-1.5c2.2,0,4.5,0.5,6.5,1.5
			L87,372.3c3.6,2.1,3.6,5.4,0,7.5l-30.5,17.7c-2,1-4.2,1.5-6.5,1.5C47.8,399,45.6,398.4,43.6,397.4z"/>
	</g>
</g>
<path class="st0" d="M50.1,371.7c-2,0-4-0.4-5.7-1.4l-30.5-17.6c-0.7-0.3-1.3-0.7-1.8-1.4c-0.4-0.6-0.7-1.4-0.7-2.1
	c0-0.8,0.2-1.5,0.7-2.1c0.4-0.6,1.1-1.1,1.8-1.4l30.5-17.8c1.8-0.9,3.8-1.4,5.7-1.4c2,0,4,0.5,5.7,1.4l30.5,17.7
	c0.7,0.3,1.3,0.7,1.8,1.4c0.4,0.6,0.7,1.4,0.7,2.1c0,0.8-0.2,1.5-0.7,2.1c-0.4,0.6-1.1,1.1-1.8,1.4l-30.5,17.7
	C54.1,371.3,52.1,371.8,50.1,371.7z M50.1,327.2c-1.9,0-3.8,0.4-5.5,1.3l-30.5,17.7c-0.7,0.2-1.3,0.5-1.7,1.1
	c-0.4,0.5-0.7,1.2-0.7,1.9c0,0.7,0.2,1.4,0.7,1.9c0.4,0.5,1,0.9,1.7,1.1l30.5,17.7c1.7,0.9,3.6,1.3,5.5,1.3s3.8-0.4,5.5-1.3
	L86,352.2c0.6-0.2,1.2-0.6,1.6-1.2c0.4-0.5,0.6-1.2,0.6-1.9c0-0.7-0.2-1.3-0.6-1.9c-0.4-0.5-0.9-0.9-1.6-1.2l-30.5-17.7
	C53.8,327.7,51.9,327.2,50.1,327.2z"/>
<path class="st13" d="M89.7,342.4V332l-1.9-1.1c-0.5,3.3-4.4,5.4-7.6,5.9l-21.9,12.8l-9.5,3.4l-30.4-15.7l0.7-0.4
	c-2.6-1.2-4-4-5.4-6.6l-2.1,1.2l-1.2,0.3v10.6c0.1,0.8,0.4,1.6,0.8,2.2c0.5,0.7,1.1,1.2,1.8,1.5L43.6,364c2,1,4.2,1.6,6.5,1.6
	c2.2,0,4.5-0.5,6.5-1.6L87,346.3c0.7-0.3,1.4-0.8,1.8-1.5c0.5-0.6,0.8-1.4,0.9-2.2C89.7,342.6,89.7,342.5,89.7,342.4L89.7,342.4z"/>
<linearGradient id="SVGID_00000132051021074244762930000003974076852100634760_" gradientUnits="userSpaceOnUse" x1="18.2841" y1="558.4767" x2="81.3152" y2="594.77" gradientTransform="matrix(1 0 0 1 0 -246)">
	<stop  offset="0" style="stop-color:#BCBEFF"/>
	<stop  offset="0.23" style="stop-color:#AAADF8"/>
	<stop  offset="0.68" style="stop-color:#7C83E5"/>
	<stop  offset="1" style="stop-color:#5761D7"/>
</linearGradient>
<path style="fill:url(#SVGID_00000132051021074244762930000003974076852100634760_);" d="M89.7,333.1v-6.9l-1.9-1.1
	c-0.5,3.3-4.4,5.4-7.6,5.9l-21.9,12.8l-9.5,3.4l-30.4-15.7l0.7-0.4c-2.6-1.2-4-4-5.4-6.6l-2.1,1.2l-1.2,0.3v7.1
	c0.1,0.8,0.4,1.6,0.8,2.2c0.5,0.7,1.1,1.2,1.8,1.5l30.5,17.6c2,1,4.2,1.6,6.5,1.6c2.2,0,4.5-0.5,6.5-1.6L87,337
	c0.7-0.3,1.4-0.8,1.8-1.5c0.5-0.6,0.8-1.4,0.9-2.2C89.7,333.3,89.7,333.2,89.7,333.1z"/>
<path class="st11" d="M80.2,331l-21.9,12.8l-8.3,3v9.4c2.3,0,4.5-0.5,6.5-1.5L87,337c0.7-0.3,1.4-0.8,1.8-1.5
	c0.5-0.6,0.8-1.4,0.9-2.2c0-0.1,0-0.1,0-0.2v-6.9l-1.8-1h-0.2C87.2,328.5,83.4,330.6,80.2,331z"/>
<linearGradient id="SVGID_00000072242853304151603320000007086540982183665282_" gradientUnits="userSpaceOnUse" x1="10.4" y1="572.2054" x2="89.7" y2="572.2054" gradientTransform="matrix(1 0 0 1 0 -246)">
	<stop  offset="0" style="stop-color:#E9E9FD"/>
	<stop  offset="0.36" style="stop-color:#D3D2F9"/>
	<stop  offset="0.71" style="stop-color:#C5C4F7"/>
	<stop  offset="1" style="stop-color:#C0BFF6"/>
</linearGradient>
<path style="fill:url(#SVGID_00000072242853304151603320000007086540982183665282_);" d="M43.6,347.6L13.1,330
	c-3.6-2.1-3.6-5.4,0-7.5l30.5-17.6c2-1,4.2-1.6,6.5-1.6c2.2,0,4.5,0.5,6.5,1.6L87,322.5c3.6,2.1,3.6,5.4,0,7.5l-30.5,17.6
	c-2,1-4.2,1.5-6.5,1.5C47.8,349.2,45.6,348.6,43.6,347.6z"/>
<path class="st16" d="M50.1,344.4c-1.8,0-3.6-0.4-5.2-1.2L21,329.4c-0.6-0.3-1.2-0.7-1.5-1.3c-0.4-0.6-0.6-1.2-0.7-1.9
	c0.1-0.7,0.3-1.3,0.7-1.8c0.4-0.5,0.9-1,1.5-1.2l23.8-13.8c1.6-0.8,3.4-1.2,5.2-1.2s3.6,0.4,5.2,1.2L79,323.2
	c0.6,0.3,1.1,0.7,1.5,1.2s0.6,1.2,0.7,1.8c-0.1,0.7-0.3,1.3-0.7,1.9c-0.4,0.6-0.9,1-1.5,1.3l-23.8,13.8
	C53.7,344,51.9,344.4,50.1,344.4z M50.1,308.5c-1.7,0-3.4,0.4-4.9,1.2l-23.8,13.8c-0.5,0.2-1,0.6-1.3,1.1s-0.6,1-0.6,1.6
	c0.1,0.6,0.3,1.1,0.6,1.6c0.3,0.5,0.8,0.8,1.3,1.1l23.8,13.8c1.5,0.8,3.2,1.2,4.9,1.2s3.4-0.4,4.9-1.2l23.8-13.8
	c0.5-0.2,1-0.6,1.3-1.1s0.6-1,0.6-1.6c-0.1-0.6-0.3-1.1-0.6-1.6c-0.3-0.5-0.8-0.8-1.3-1.1L55,309.7
	C53.5,308.9,51.8,308.5,50.1,308.5z"/>
<path class="st3" d="M87,330l-30.5,17.7c-2,1-4.2,1.5-6.5,1.5c-2.2,0-4.5-0.5-6.5-1.5L13.1,330c-0.7-0.3-1.3-0.8-1.7-1.4
	c-0.5-0.6-0.8-1.2-0.9-2c0,0.9,0.2,1.8,0.7,2.5s1.2,1.3,2,1.7l30.5,17.7c2,1,4.2,1.5,6.5,1.5c2.2,0,4.5-0.5,6.5-1.5L87,330.8
	c0.8-0.3,1.5-0.9,2-1.7c0.5-0.7,0.7-1.6,0.7-2.5c-0.2,0.7-0.5,1.4-0.9,2C88.3,329.2,87.7,329.7,87,330z"/>
<g class="st6">
	
		<linearGradient id="SVGID_00000106109660224797990420000011580243540757974666_" gradientUnits="userSpaceOnUse" x1="56.6349" y1="401.8196" x2="119.5794" y2="438.063" gradientTransform="matrix(1 0 0 1 0 -246)">
		<stop  offset="0" style="stop-color:#BCBEFF"/>
		<stop  offset="0.23" style="stop-color:#AAADF8"/>
		<stop  offset="0.68" style="stop-color:#7C83E5"/>
		<stop  offset="1" style="stop-color:#5761D7"/>
	</linearGradient>
	<path style="fill:url(#SVGID_00000106109660224797990420000011580243540757974666_);" d="M128.1,176.4v-6.9l-1.9-1.1
		c-0.5,3.3-4.4,5.4-7.6,5.9L96.8,187l-9.5,3.5l-30.4-15.7l0.7-0.4c-2.6-1.2-4-4-5.4-6.5l-2.1,1.2l-1.2,0.3v7.1
		c0.1,0.8,0.4,1.6,0.8,2.2c0.5,0.7,1.1,1.2,1.8,1.5L82,197.9c2,1,4.2,1.6,6.5,1.6c2.2,0,4.5-0.5,6.5-1.6l30.5-17.7
		c0.7-0.3,1.4-0.8,1.8-1.5c0.5-0.6,0.8-1.4,0.9-2.2C128.1,176.5,128.1,176.4,128.1,176.4z"/>
	<path class="st11" d="M118.6,174.2L96.8,187l-8.3,3v9.4c2.3,0,4.5-0.5,6.5-1.5l30.5-17.6c0.7-0.3,1.4-0.8,1.8-1.5
		c0.5-0.6,0.8-1.4,0.9-2.2c0,0,0-0.1,0-0.2v-6.9l-1.8-1h-0.2C125.6,171.7,121.8,173.8,118.6,174.2z"/>
	
		<linearGradient id="SVGID_00000027586800704623818600000008595721093907691437_" gradientUnits="userSpaceOnUse" x1="48.8" y1="415.4" x2="128.0843" y2="415.4" gradientTransform="matrix(1 0 0 1 0 -246)">
		<stop  offset="0" style="stop-color:#E9E9FD"/>
		<stop  offset="0.36" style="stop-color:#D3D2F9"/>
		<stop  offset="0.71" style="stop-color:#C5C4F7"/>
		<stop  offset="1" style="stop-color:#C0BFF6"/>
	</linearGradient>
	<path style="fill:url(#SVGID_00000027586800704623818600000008595721093907691437_);" d="M82,190.8l-30.5-17.7
		c-3.6-2.1-3.6-5.4,0-7.5L82,148c2-1,4.2-1.6,6.5-1.6c2.2,0,4.5,0.5,6.5,1.6l30.5,17.7c3.6,2.1,3.6,5.4,0,7.5L95,190.8
		c-2,1-4.2,1.6-6.5,1.6C86.2,192.4,84,191.8,82,190.8z"/>
	<g class="st6">
		<path class="st3" d="M82,190.8l-30.5-17.7c-3.6-2.1-3.6-5.4,0-7.5L82,148c2-1,4.2-1.6,6.5-1.6c2.2,0,4.5,0.5,6.5,1.6l30.5,17.7
			c3.6,2.1,3.6,5.4,0,7.5L95,190.8c-2,1-4.2,1.6-6.5,1.6C86.2,192.4,84,191.8,82,190.8z"/>
	</g>
</g>
<path class="st0" d="M88.5,168.6c-2,0-4-0.4-5.7-1.4l-30.5-17.7c-0.7-0.3-1.3-0.7-1.8-1.4c-0.4-0.6-0.7-1.4-0.7-2.1
	c0-0.8,0.2-1.5,0.7-2.1c0.4-0.6,1.1-1.1,1.8-1.4l30.5-17.7c1.8-0.9,3.8-1.4,5.7-1.4c2,0,4,0.5,5.7,1.4l30.5,17.7
	c0.7,0.3,1.3,0.7,1.8,1.4c0.4,0.6,0.7,1.4,0.7,2.1c0,0.8-0.2,1.5-0.7,2.1c-0.4,0.6-1.1,1.1-1.8,1.4l-30.5,17.7
	C92.5,168.1,90.5,168.6,88.5,168.6z M88.5,124.1c-1.9,0-3.8,0.4-5.5,1.3L52.5,143c-0.7,0.2-1.3,0.5-1.7,1.1
	c-0.4,0.5-0.7,1.2-0.7,1.9s0.2,1.4,0.7,1.9c0.4,0.5,1,0.9,1.7,1.1L83,166.7c1.7,0.9,3.6,1.3,5.5,1.3s3.8-0.5,5.5-1.3l30.6-17.7
	c0.7-0.2,1.3-0.5,1.7-1.1c0.4-0.5,0.7-1.2,0.7-1.9s-0.2-1.4-0.7-1.9c-0.4-0.5-1-0.9-1.7-1.1L94,125.4
	C92.3,124.5,90.4,124,88.5,124.1L88.5,124.1z"/>
<path class="st13" d="M128.1,139.3v-10.5l-1.9-1.1c-0.5,3.3-4.4,5.4-7.6,5.9l-21.9,12.8l-9.5,3.5l-30.4-15.7l0.7-0.4
	c-2.6-1.2-4-4-5.4-6.5l-2.1,1.2l-1.2,0.3v10.6c0.1,0.8,0.4,1.6,0.8,2.2c0.5,0.7,1.1,1.2,1.9,1.5L82,160.8c2,1,4.2,1.6,6.5,1.6
	c2.2,0,4.5-0.5,6.5-1.6l30.5-17.7c0.7-0.3,1.3-0.8,1.8-1.5c0.5-0.6,0.8-1.4,0.9-2.2C128.1,139.5,128.1,139.4,128.1,139.3
	L128.1,139.3z"/>
<linearGradient id="SVGID_00000078763287120370332950000005578855001994773426_" gradientUnits="userSpaceOnUse" x1="56.6559" y1="355.4567" x2="119.632" y2="391.7188" gradientTransform="matrix(1 0 0 1 0 -246)">
	<stop  offset="0" style="stop-color:#BCBEFF"/>
	<stop  offset="0.23" style="stop-color:#AAADF8"/>
	<stop  offset="0.68" style="stop-color:#7C83E5"/>
	<stop  offset="1" style="stop-color:#5761D7"/>
</linearGradient>
<path style="fill:url(#SVGID_00000078763287120370332950000005578855001994773426_);" d="M128.1,130v-6.9l-1.9-1.1
	c-0.5,3.3-4.4,5.4-7.6,5.9l-21.9,12.8l-9.5,3.5l-30.4-15.7l0.7-0.4c-2.6-1.2-4-4-5.4-6.5l-2.1,1.2l-1.2,0.3v7.1
	c0.1,0.8,0.4,1.6,0.8,2.2c0.5,0.7,1.1,1.2,1.8,1.5L82,151.5c2,1,4.2,1.6,6.5,1.6c2.2,0,4.5-0.5,6.5-1.6l30.5-17.7
	c0.7-0.3,1.3-0.8,1.8-1.5c0.5-0.6,0.8-1.4,0.9-2.2C128.1,130.2,128.1,130.1,128.1,130L128.1,130z"/>
<path class="st11" d="M118.6,127.9l-21.9,12.8l-8.3,3v9.4c2.3,0,4.5-0.5,6.5-1.5l30.5-17.7c0.7-0.3,1.3-0.8,1.8-1.5
	c0.5-0.6,0.8-1.4,0.9-2.2c0,0,0-0.1,0-0.2v-7l-1.8-1h-0.2C125.6,125.3,121.8,127.4,118.6,127.9z"/>
<linearGradient id="SVGID_00000106126732674674634540000012158180821652575143_" gradientUnits="userSpaceOnUse" x1="48.8" y1="369.1" x2="128.0843" y2="369.1" gradientTransform="matrix(1 0 0 1 0 -246)">
	<stop  offset="0" style="stop-color:#E9E9FD"/>
	<stop  offset="0.36" style="stop-color:#D3D2F9"/>
	<stop  offset="0.71" style="stop-color:#C5C4F7"/>
	<stop  offset="1" style="stop-color:#C0BFF6"/>
</linearGradient>
<path style="fill:url(#SVGID_00000106126732674674634540000012158180821652575143_);" d="M82,144.5l-30.5-17.7
	c-3.6-2.1-3.6-5.4,0-7.5L82,101.7c2-1,4.2-1.6,6.5-1.6c2.2,0,4.5,0.5,6.5,1.6l30.5,17.7c3.6,2.1,3.6,5.4,0,7.5L95,144.5
	c-2,1-4.2,1.6-6.5,1.6C86.2,146,84,145.5,82,144.5z"/>
<path class="st16" d="M88.5,141.3c-1.8,0-3.6-0.4-5.2-1.3l-23.8-13.8c-0.7-0.2-1.2-0.7-1.6-1.2c-0.4-0.6-0.6-1.2-0.6-1.9
	c0-0.7,0.2-1.4,0.6-1.9c0.4-0.6,1-1,1.6-1.2l23.8-13.8c1.6-0.8,3.4-1.2,5.2-1.2c1.8,0,3.6,0.4,5.2,1.2l23.8,13.8
	c0.7,0.2,1.2,0.7,1.6,1.2c0.4,0.6,0.6,1.2,0.6,1.9c0,0.7-0.2,1.4-0.6,1.9c-0.4,0.6-1,1-1.6,1.2L93.7,140
	C92.1,140.9,90.3,141.3,88.5,141.3z M88.5,105.4c-1.7,0-3.4,0.4-4.9,1.2l-23.8,13.8c-0.6,0.2-1.1,0.5-1.4,1
	c-0.4,0.5-0.5,1.1-0.5,1.7s0.2,1.2,0.5,1.7c0.4,0.5,0.9,0.8,1.4,1l23.8,13.7c1.5,0.8,3.2,1.2,4.9,1.2s3.4-0.4,4.9-1.2l23.8-13.8
	c0.6-0.2,1.1-0.5,1.4-1c0.4-0.5,0.5-1.1,0.5-1.7s-0.2-1.2-0.5-1.7c-0.4-0.5-0.9-0.8-1.4-1l-23.8-13.7
	C91.9,105.8,90.2,105.4,88.5,105.4z"/>
<path class="st3" d="M125.5,126.8L95,144.5c-2,1-4.2,1.6-6.5,1.6c-2.2,0-4.5-0.5-6.5-1.6l-30.5-17.7c-0.7-0.3-1.3-0.8-1.7-1.4
	c-0.5-0.6-0.8-1.3-0.9-2c0,0.9,0.2,1.8,0.7,2.5s1.2,1.3,2,1.7L82,145.3c2,1,4.2,1.6,6.5,1.6c2.2,0,4.5-0.5,6.5-1.6l30.5-17.7
	c0.8-0.3,1.5-0.9,2-1.7c0.5-0.7,0.7-1.6,0.7-2.5c-0.2,0.7-0.5,1.4-0.9,2C126.7,126,126.1,126.5,125.5,126.8z"/>
<path class="st9" d="M293.3,267.8L175,199.3c-3.1-1.8-2.7-4.9,0.8-6.9l69-40c3.5-2,8.9-2.3,11.9-0.5L375,220.4
	c3.1,1.8,2.7,4.9-0.8,6.9l-69,40C301.8,269.3,296.4,269.5,293.3,267.8z"/>
<path class="st8" d="M406.6,167.2l-2-0.3c-0.2-0.2-0.4-0.3-0.7-0.4L251.7,78.4c-3.9-2.3-10.8-2-15.4,0.6l-88.9,51.4
	c-1,0.6-2,1.4-2.7,2.3l-1-0.3v3.1c0.1,0.8,0.3,1.6,0.8,2.3s1.1,1.2,1.8,1.6l152.3,88.1c3.9,2.3,10.8,2,15.4-0.6l88.9-51.4
	c2.5-1.5,3.8-3.4,3.7-5.1V167.2z"/>
<path class="st0" d="M298.6,224.3l-152.3-88.1c-3.9-2.3-3.4-6.2,1.1-8.9l88.8-51.4c4.5-2.6,11.4-2.9,15.4-0.6l152.3,88.1
	c3.9,2.3,3.4,6.2-1.1,8.9L314,223.7C309.4,226.3,302.5,226.6,298.6,224.3z"/>
<path class="st2" d="M323.2,218.3l-166.5-96.4l17.7-10.2l166.5,96.4L323.2,218.3z"/>
<g class="st21">
	<path class="st8" d="M401.4,356.9c0-17.2,12.1-38.2,27-46.8c7.5-4.3,14.2-4.7,19.1-1.9l5.1,3l-1.5,0.1c2.7,3.3,4.3,8.2,4.3,14.3
		c0,17.2-12.1,38.2-27,46.8c-5.1,3-9.9,4.1-14,3.6l0.1,1.4l-5.2-3.1l-0.2-0.1C404.3,371.3,401.4,365.4,401.4,356.9z"/>
	<path class="st0" d="M452.5,355.3c10.5-18.3,10.5-38,0-44.1s-27.6,3.8-38.1,22.1c-10.5,18.3-10.5,38,0,44.1
		C425,383.5,442,373.6,452.5,355.3z"/>
</g>
<path class="st22" d="M431.8,396.3c-23.6,0-47.2-5.2-65.2-15.6c-17.5-10.1-27.1-23.6-27.1-37.9s9.6-27.8,27.1-37.9
	c35.9-20.8,94.4-20.8,130.3,0c17.5,10.1,27.1,23.6,27.1,37.9s-9.6,27.8-27.1,37.9C479,391.1,455.4,396.3,431.8,396.3z M431.8,289.9
	c-23.5,0-47,5.2-64.9,15.5c-17.3,10-26.8,23.3-26.8,37.4s9.5,27.4,26.8,37.4c35.8,20.7,94,20.7,129.8,0c17.3-10,26.8-23.3,26.8-37.4
	s-9.5-27.4-26.8-37.4C478.8,295.1,455.3,289.9,431.8,289.9z"/>
<path class="st0" d="M431.8,376.1c-14.7,0-29.3-3.2-40.5-9.7c-10.8-6.3-16.8-14.7-16.8-23.6s6-17.3,16.8-23.6
	c22.3-12.9,58.6-12.9,80.9,0c10.8,6.3,16.8,14.7,16.8,23.6s-6,17.3-16.8,23.6C461.1,372.9,446.4,376.1,431.8,376.1z M431.8,310.1
	c-14.6,0-29.1,3.2-40.2,9.6c-10.7,6.2-16.6,14.4-16.6,23.2c0,8.8,5.9,17,16.6,23.2c22.2,12.8,58.2,12.8,80.4,0
	c10.7-6.2,16.6-14.4,16.6-23.2c0-8.8-5.9-17-16.6-23.2C460.9,313.3,446.3,310.1,431.8,310.1z"/>
<g>
	<path class="st8" d="M401.4,356.9c0-17.2,12.1-38.2,27-46.8c7.5-4.3,14.2-4.7,19.1-1.9l5.1,3l-1.5,0.1c2.7,3.3,4.3,8.2,4.3,14.3
		c0,17.2-12.1,38.2-27,46.8c-5.1,3-9.9,4.1-14,3.6l0.1,1.4l-5.2-3.1l-0.2-0.1C404.3,371.3,401.4,365.4,401.4,356.9z"/>
	<path class="st0" d="M452.5,355.3c10.5-18.3,10.5-38,0-44.1s-27.6,3.8-38.1,22.1c-10.5,18.3-10.5,38,0,44.1
		C425,383.5,442,373.6,452.5,355.3z"/>
</g>
</svg>
